<?xml version="1.0" standalone="no"?>
<!DOCTYPE svg PUBLIC "-//W3C//DTD SVG 1.1//EN" "http://www.w3.org/Graphics/SVG/1.1/DTD/svg11.dtd">
<svg xmlns="http://www.w3.org/2000/svg">
<defs >
<font id="Kanit" horiz-adv-x="532" ><font-face
    font-family="Kanit Thin"
    units-per-em="1000"
    panose-1="0 0 0 0 0 0 0 0 0 0"
    ascent="1100"
    descent="-395"
    alphabetic="0" />
<glyph unicode=" " glyph-name="space" horiz-adv-x="235" />
<glyph unicode="!" glyph-name="exclam" horiz-adv-x="153" d="M69 139L63 495V644H91V495L86 139H69ZM60 0V32H93V0H60Z" />
<glyph unicode="&quot;" glyph-name="quotedbl" horiz-adv-x="274" d="M181 491V644H214L203 491H181ZM60 491V644H93L82 491H60Z" />
<glyph unicode="#" glyph-name="numbersign" horiz-adv-x="689" d="M102 0L163 195H60V220H171L234 423H110V449H242L304 644H332L270 449H497L559 644H587L525 449H629V423H517L453 220H579V195H445L384 0H357L418 195H190L129 0H102ZM198 220H426L489 423H262L198 220Z" />
<glyph unicode="$" glyph-name="dollar" horiz-adv-x="551" d="M259 -86V-10H257Q200 -10 157 -4T78 16V41Q118 28 161 21T257 14H259V318Q185 334 141 356T79 409T60 485Q60 556 108 602T259 653V730H287V654Q339 653 384 646T451 631V606Q419 617 379 623T292
629H287V337Q363 320 407 296T471 239T491 160Q491 79 439 38T287 -9V-86H259ZM259 343V628Q87 617 87 485Q87 446 102 421T155 377T259 343ZM287 14Q374 19 419 54T464 160Q464 225 422 257T287 312V14Z" />
<glyph unicode="%" glyph-name="percent" horiz-adv-x="677" d="M190 376Q123 376 92 413T60 509Q60 576 91 615T190 654Q257 654 288 615T320 509Q320 451 289 414T190 376ZM151 0L496 644H523L178 0H151ZM190 401Q246 401 269 429T293 509Q293 571 268 600T190
629Q137 629 112 600T87 509Q87 458 111 430T190 401ZM487 -10Q420 -10 389 27T357 123Q357 190 388 229T487 268Q554 268 585 229T617 123Q617 65 586 28T487 -10ZM487 15Q543 15 566 43T590 123Q590 185 565 214T487 243Q434 243 409 214T384 123Q384 72 408
44T487 15Z" />
<glyph unicode="&amp;" glyph-name="ampersand" horiz-adv-x="645" d="M260 -10Q170 -10 115 31T60 143Q60 213 106 260T230 353Q201 382 177 407T137 459T122 521Q122 575 158 614T261 654Q327 654 361 617T395 521Q395 464 362 426T268 347L482 129Q492 151
497 177T503 232V258H530V235Q530 164 500 110L595 15L578 0L488 91Q455 44 398 17T260 -10ZM251 365Q289 390 315 410T354 457T368 521Q368 568 344 598T261 629Q202 629 176 597T149 521Q149 489 162 465T198 418T251 365ZM260 15Q410 15 470 109L248 335Q198
306 162 279T107 220T87 143Q87 80 136 48T260 15Z" />
<glyph unicode="&apos;" glyph-name="quotesingle" horiz-adv-x="153" d="M60 491V644H93L82 491H60Z" />
<glyph unicode="(" glyph-name="parenleft" horiz-adv-x="274" d="M201 -72Q159 -39 132 6T89 103T67 205T60 303Q60 349 66 400T89 503T132 600T201 678H234Q155 614 121 519T87 303Q87 183 121 88T234 -72H201Z" />
<glyph unicode=")" glyph-name="parenright" horiz-adv-x="274" d="M40 -72Q119 -7 153 88T187 303Q187 423 153 518T40 678H73Q115 645 142 600T185 504T207 401T214 303Q214 257 208 206T185 103T142 7T73 -72H40Z" />
<glyph unicode="*" glyph-name="asterisk" horiz-adv-x="414" d="M111 358L90 375L189 491L60 543L71 567L196 510L193 644H221L218 510L343 567L354 543L224 490L324 375L303 358L207 480L111 358Z" />
<glyph unicode="+" glyph-name="plus" horiz-adv-x="487" d="M229 71V234H60V259H229V429H257V259H427V234H257V71H229Z" />
<glyph unicode="," glyph-name="comma" horiz-adv-x="177" d="M60 -120L84 33H117L82 -120H60Z" />
<glyph unicode="-" glyph-name="hyphen" horiz-adv-x="487" d="M60 234V259H427V234H60Z" />
<glyph unicode="." glyph-name="period" horiz-adv-x="153" d="M60 0V33H93V0H60Z" />
<glyph unicode="/" glyph-name="slash" horiz-adv-x="381" d="M60 0L294 662H321L87 0H60Z" />
<glyph unicode="0" glyph-name="zero" horiz-adv-x="632" d="M316 -10Q227 -10 171 30T87 141T60 307Q60 415 84 492T164 612T316 654Q413 654 468 612T548 493T572 307Q572 213 545 142T462 30T316 -10ZM316 15Q399 15 449 54T522 159T545 307Q545 409 524 481T453
591T316 629Q229 629 179 591T108 481T87 307Q87 226 109 160T182 54T316 15Z" />
<glyph unicode="1" glyph-name="one" horiz-adv-x="268" d="M160 0V626L60 607V633L188 654V0H160Z" />
<glyph unicode="2" glyph-name="two" horiz-adv-x="492" d="M60 0V24Q76 70 106 109T173 184T247 252Q302 300 335 336T383 407T398 485Q398 547 358 588T231 629Q197 629 159 623T86 604V630Q113 641 152 647T227 654Q322 654 373 610T425 485Q425 433 406 394T353
319T273 243Q235 209 200 177T136 108T90 25H432V0H60Z" />
<glyph unicode="3" glyph-name="three" horiz-adv-x="498" d="M214 -10Q168 -10 127 -3T60 14V40Q96 27 132 21T214 15Q411 15 411 171Q411 245 364 280T233 315H149L154 340H225Q311 340 353 379T396 490Q396 558 354 593T219 629Q180 629 142 622T72 604V630Q95
640 136 647T218 654Q328 654 375 609T423 490Q423 456 410 423T370 364T297 329Q374 316 406 271T438 171Q438 81 380 36T214 -10Z" />
<glyph unicode="4" glyph-name="four" horiz-adv-x="531" d="M391 0V162H40V194L390 644H419V187H491V162H419V0H391ZM65 187H391V606L65 187Z" />
<glyph unicode="5" glyph-name="five" horiz-adv-x="501" d="M218 -10Q173 -10 131 -4T63 14V40Q98 27 135 21T219 15Q314 15 364 59T414 186Q414 240 399 276T345 329T238 347H60V384L77 644H391L386 619H99L83 372H228Q346 372 393 327T441 186Q441 92 383 41T218 -10Z" />
<glyph unicode="6" glyph-name="six" horiz-adv-x="553" d="M277 -10Q171 -10 116 45T60 228V393Q60 473 89 531T170 622T295 654Q339 654 374 649T434 636V610Q408 619 374 624T295 629Q226 629 180 598T111 515T88 396V330Q135 365 187 380T281 396Q387 396
440 344T493 194Q493 101 438 46T277 -10ZM276 15Q371 15 418 64T466 194Q466 248 449 287T390 349T278 371Q229 371 178 352T88 304V208Q88 15 276 15Z" />
<glyph unicode="7" glyph-name="seven" horiz-adv-x="492" d="M157 0L418 619H50V644H442V612L184 0H157Z" />
<glyph unicode="8" glyph-name="eight" horiz-adv-x="566" d="M283 -10Q178 -10 119 33T60 162Q60 225 96 271T203 333Q136 350 108 391T79 483Q79 561 131 607T283 654Q384 654 435 608T487 483Q487 429 458 385T355 321Q435 306 470 267T506 162Q506 77 447
34T283 -10ZM313 332Q390 349 425 383T460 483Q460 553 415 591T283 629Q196 629 151 591T106 483Q106 431 135 397T227 349L313 332ZM283 15Q479 15 479 162Q479 227 444 257T335 302L239 321Q170 308 129 272T87 162Q87 15 283 15Z" />
<glyph unicode="9" glyph-name="nine" horiz-adv-x="553" d="M263 -10Q220 -10 183 -5T119 8V34Q145 24 182 20T263 15Q333 15 377 46T443 129T465 246V309Q419 274 372 259T275 243Q169 243 115 295T60 445Q60 538 116 596T281 654Q387 654 440 599T493 416V251Q493
131 432 61T263 -10ZM278 268Q333 268 380 286T465 335V436Q465 531 421 580T282 629Q185 629 136 578T87 445Q87 364 129 316T278 268Z" />
<glyph unicode=":" glyph-name="colon" horiz-adv-x="155" d="M60 336V371H95V336H60ZM60 33V68H95V33H60Z" />
<glyph unicode=";" glyph-name="semicolon" horiz-adv-x="179" d="M84 336V371H119V336H84ZM60 -85L84 68H117L82 -85H60Z" />
<glyph unicode="&lt;" glyph-name="less" horiz-adv-x="546" d="M486 75L60 276V300L486 501V472L88 288L486 104V75Z" />
<glyph unicode="=" glyph-name="equal" horiz-adv-x="494" d="M60 296V321H434V296H60ZM60 175V201H434V175H60Z" />
<glyph unicode="&gt;" glyph-name="greater" horiz-adv-x="546" d="M60 75V104L458 288L60 472V501L486 300V276L60 75Z" />
<glyph unicode="?" glyph-name="question" horiz-adv-x="484" d="M186 141V166Q186 208 201 236T239 285T286 325Q315 348 340 369T381 417T397 483Q397 551 357 590T224 629Q175 629 135 620T60 594V620Q88 636 131 645T226 654Q326 654 375 610T424 483Q424
443 409 415T369 364T317 319Q284 293 261 273T226 229T214 164V141H186ZM184 0V32H217V0H184Z" />
<glyph unicode="@" glyph-name="at" horiz-adv-x="768" d="M389 -132Q322 -132 262 -117T157 -65T86 33T60 188Q60 363 148 444T406 525Q562 525 635 455T708 256Q708 160 671 105T548 49H529Q500 15 459 -2T358 -20Q318 -20 285 -9T233 26T213 93Q213 147 247
181T367 215H524V260Q524 305 515 332T478 371T391 383Q356 383 324 378T263 361V387Q289 398 324 403T399 408Q482 408 517 375T552 262V75Q617 75 649 116T681 256Q681 375 616 437T406 500Q249 500 168 427T87 188Q87 103 111 46T177 -45T273 -92T387 -107Q497
-107 560 -88V-114Q529 -121 485 -126T389 -132ZM364 5Q417 5 455 22T524 78V189H368Q293 189 267 165T240 93Q240 44 273 25T364 5Z" />
<glyph unicode="A" glyph-name="A" horiz-adv-x="650" d="M60 0L303 644H348L590 0H562L487 200H164L89 0H60ZM173 225H477L325 628L173 225Z" />
<glyph unicode="B" glyph-name="B" horiz-adv-x="612" d="M80 0V644H349Q444 644 484 601T525 478Q525 423 502 388T437 335Q490 325 521 288T552 181Q552 86 507 43T370 0H80ZM108 347H364Q438 347 468 384T498 478Q498 523 485 554T439 602T344 619H108V347ZM108
25H374Q452 25 488 61T525 181Q525 249 490 285T357 322H108V25Z" />
<glyph unicode="C" glyph-name="C" horiz-adv-x="584" d="M343 -10Q243 -10 181 29T89 139T60 301Q60 405 86 484T175 609T343 654Q396 654 441 647T524 626V600Q487 614 442 621T346 629Q246 629 190 587T110 472T87 301Q87 168 148 92T349 15Q393 15 440 21T524
40V14Q487 3 442 -3T343 -10Z" />
<glyph unicode="D" glyph-name="D" horiz-adv-x="622" d="M80 0V644H313Q404 644 458 611T537 505T562 317Q562 208 539 138T461 34T313 0H80ZM108 25H303Q362 25 405 37T478 82T521 171T535 317Q535 435 512 500T439 592T303 619H108V25Z" />
<glyph unicode="E" glyph-name="E" horiz-adv-x="538" d="M80 0V644H488V619H108V335H453V310H108V25H488V0H80Z" />
<glyph unicode="F" glyph-name="F" horiz-adv-x="500" d="M80 0V644H470V619H108V335H434V310H108V0H80Z" />
<glyph unicode="G" glyph-name="G" horiz-adv-x="627" d="M344 -10Q244 -10 182 29T90 139T60 301Q60 405 87 484T176 609T343 654Q396 654 441 648T524 630V604Q487 615 442 622T347 629Q247 629 190 587T110 472T87 301Q87 168 149 92T350 15Q401 15 452 24T539
48V308H345V334H567V37Q542 21 489 6T344 -10Z" />
<glyph unicode="H" glyph-name="H" horiz-adv-x="617" d="M80 0V644H108V335H509V644H537V0H509V310H108V0H80Z" />
<glyph unicode="I" glyph-name="I" horiz-adv-x="188" d="M80 0V644H108V0H80Z" />
<glyph unicode="J" glyph-name="J" horiz-adv-x="391" d="M146 -10Q106 -10 74 -3T20 14V40Q70 16 142 16Q222 16 255 49T288 153V644H316V153Q316 72 276 31T146 -10Z" />
<glyph unicode="K" glyph-name="K" horiz-adv-x="563" d="M80 0V644H108V279L462 644H500L253 389L503 0H471L233 370L108 241V0H80Z" />
<glyph unicode="L" glyph-name="L" horiz-adv-x="518" d="M80 0V644H108V25H478V0H80Z" />
<glyph unicode="M" glyph-name="M" horiz-adv-x="737" d="M80 0V644H121L369 137L616 644H657V0H629V613L385 113H353L108 613V0H80Z" />
<glyph unicode="N" glyph-name="N" horiz-adv-x="649" d="M80 0V644H111L541 38V644H569V0H538L108 606V0H80Z" />
<glyph unicode="O" glyph-name="O" horiz-adv-x="682" d="M341 -10Q243 -10 181 30T90 143T60 316Q60 489 127 571T341 654Q488 654 555 572T622 316Q622 217 593 144T501 30T341 -10ZM341 15Q469 15 532 92T595 316Q595 431 567 499T483 598T341 629Q256 629
200 599T115 500T87 316Q87 169 150 92T341 15Z" />
<glyph unicode="P" glyph-name="P" horiz-adv-x="560" d="M80 0V644H321Q425 644 472 592T520 451Q520 361 466 311T317 261H108V0H80ZM108 286H319Q405 286 449 330T493 451Q493 532 451 575T324 619H108V286Z" />
<glyph unicode="Q" glyph-name="Q" horiz-adv-x="682" d="M438 -172Q391 -172 366 -153T331 -96T320 -9Q184 -2 122 85T60 316Q60 489 127 571T341 654Q488 654 555 572T622 316Q622 218 593 145T504 32T347 -10Q347 -82 365 -114T438 -146Q453 -146 473 -143T509
-136V-162Q494 -166 475 -169T438 -172ZM341 15Q469 15 532 92T595 316Q595 431 567 499T483 598T341 629Q256 629 200 599T115 500T87 316Q87 169 150 92T341 15Z" />
<glyph unicode="R" glyph-name="R" horiz-adv-x="582" d="M80 0V644H336Q434 644 477 595T520 460Q520 383 484 336T373 278Q398 268 409 252T433 208L522 0H494L406 202Q395 228 382 243T344 266T275 273H108V0H80ZM108 298H326Q403 298 448 335T493 460Q493
619 339 619H108V298Z" />
<glyph unicode="S" glyph-name="S" horiz-adv-x="551" d="M257 -10Q200 -10 157 -4T78 16V41Q118 28 161 21T257 14Q358 14 411 49T464 160Q464 206 443 235T378 284T261 318Q186 334 142 356T79 409T60 485Q60 560 113 607T284 654Q337 654 383 647T451 631V606Q419
617 379 623T292 629Q191 629 139 594T87 485Q87 444 104 418T164 374T282 338Q360 321 406 297T471 240T491 160Q491 73 431 32T257 -10Z" />
<glyph unicode="T" glyph-name="T" horiz-adv-x="569" d="M271 0V619H40V644H529V619H299V0H271Z" />
<glyph unicode="U" glyph-name="U" horiz-adv-x="656" d="M328 -10Q198 -10 137 51T75 231V644H103V219Q103 116 162 66T328 16Q435 16 494 66T553 219V644H581V231Q581 113 520 52T328 -10Z" />
<glyph unicode="V" glyph-name="V" horiz-adv-x="650" d="M303 0L60 644H89L325 16L561 644H590L348 0H303Z" />
<glyph unicode="W" glyph-name="W" horiz-adv-x="840" d="M210 0L60 644H89L234 20L407 586V644H431L607 20L752 644H780L631 0H586L427 570L256 0H210Z" />
<glyph unicode="X" glyph-name="X" horiz-adv-x="596" d="M60 0L281 317L60 644H89L298 333L507 644H536L314 317L536 0H507L298 299L89 0H60Z" />
<glyph unicode="Y" glyph-name="Y" horiz-adv-x="606" d="M289 0V242L60 644H89L303 268L517 644H546L317 242V0H289Z" />
<glyph unicode="Z" glyph-name="Z" horiz-adv-x="564" d="M60 0V22L472 619H77V644H504V618L95 25H509V0H60Z" />
<glyph unicode="[" glyph-name="bracketleft" horiz-adv-x="323" d="M60 -99V706H271L273 681H88V-74H273L271 -99H60Z" />
<glyph unicode="\" glyph-name="backslash" horiz-adv-x="400" d="M313 -54L60 662H87L340 -54H313Z" />
<glyph unicode="]" glyph-name="bracketright" horiz-adv-x="323" d="M52 -99L50 -74H235V681H50L52 706H263V-99H52Z" />
<glyph unicode="^" glyph-name="asciicircum" horiz-adv-x="420" d="M60 402L195 624H225L360 402H331L210 603L89 402H60Z" />
<glyph unicode="_" glyph-name="underscore" horiz-adv-x="559" d="M60 -25V0H499V-25H60Z" />
<glyph unicode="`" glyph-name="grave" horiz-adv-x="213" d="M130 522L60 671H90L153 522H130Z" />
<glyph unicode="a" glyph-name="a" horiz-adv-x="522" d="M224 -10Q179 -10 142 3T83 44T60 120Q60 181 97 218T230 256H419V317Q419 368 406 399T358 445T258 459Q218 459 182 453T113 434V460Q143 472 183 478T267 484Q361 484 404 446T447 319V0H425L421 65Q387
27 340 9T224 -10ZM231 15Q293 15 338 34T419 95V230H232Q147 230 117 202T87 120Q87 64 126 40T231 15Z" />
<glyph unicode="b" glyph-name="b" horiz-adv-x="554" d="M283 -10Q227 -10 185 6T107 57L103 0H80V674H108V430Q147 459 190 471T285 484Q383 484 438 428T494 241Q494 111 439 51T283 -10ZM278 15Q380 15 423 73T467 241Q467 357 420 408T276 459Q222 459 181
443T108 401V86Q176 15 278 15Z" />
<glyph unicode="c" glyph-name="c" horiz-adv-x="446" d="M286 -10Q165 -10 113 56T60 237Q60 362 123 423T296 484Q340 484 365 478T416 460V434Q388 447 361 453T299 459Q198 459 143 405T87 237Q87 125 134 70T293 15Q325 15 357 22T416 40V14Q390 3 358 -3T286 -10Z" />
<glyph unicode="d" glyph-name="d" horiz-adv-x="554" d="M271 -10Q212 -10 164 14T88 91T60 231Q60 361 120 422T279 484Q332 484 369 472T446 430V674H474V0H451L447 57Q412 23 370 7T271 -10ZM276 15Q378 15 446 86V401Q415 428 379 443T288 459Q191 459 139
403T87 231Q87 122 136 69T276 15Z" />
<glyph unicode="e" glyph-name="e" horiz-adv-x="518" d="M298 -10Q168 -10 114 50T60 241Q60 355 108 419T272 484Q339 484 379 459T439 392T458 300V218H88Q90 149 110 104T177 37T303 15Q364 15 426 40V14Q365 -10 298 -10ZM88 244H430V296Q430 370 393 414T272
459Q169 459 129 402T88 244Z" />
<glyph unicode="f" glyph-name="f" horiz-adv-x="335" d="M115 0V448H40V474H115V565Q115 626 148 658T245 690Q265 690 282 688T313 680V654Q298 659 284 662T253 665Q193 665 168 641T143 567V474H280L278 448H143V0H115Z" />
<glyph unicode="g" glyph-name="g" horiz-adv-x="538" d="M257 -176Q204 -176 159 -171T79 -152V-126Q120 -139 165 -145T257 -151Q311 -151 350 -145T411 -122T432 -68Q432 -27 409 -11T318 6H186Q119 6 90 24T60 83Q60 112 83 135T151 168Q102 185 84 225T65
315Q65 402 111 443T257 484Q277 484 297 481T330 474H493L491 448H393Q424 423 436 388T449 315Q449 231 404 190T257 148Q225 148 187 155Q144 150 116 133T87 83Q87 57 108 45T187 32H323Q391 32 425 9T459 -66Q459 -112 435 -135T366 -167T257 -176ZM257 173Q350
173 386 206T422 315Q422 391 384 425T257 459Q169 459 131 426T92 315Q92 242 128 208T257 173Z" />
<glyph unicode="h" glyph-name="h" horiz-adv-x="548" d="M80 0V674H108V412Q146 445 193 464T308 484Q394 484 433 444T473 317V0H445V317Q445 369 432 400T385 445T293 459Q237 459 190 437T108 381V0H80Z" />
<glyph unicode="i" glyph-name="i" horiz-adv-x="245" d="M130 610V654H165V610H130ZM137 0V448H60V474H165V0H137Z" />
<glyph unicode="j" glyph-name="j" horiz-adv-x="257" d="M141 610V654H176V610H141ZM50 -234Q12 -234 -20 -224V-198Q-3 -204 13 -206T41 -209Q98 -209 122 -184T147 -110V448H71V474H175V-110Q175 -168 142 -201T50 -234Z" />
<glyph unicode="k" glyph-name="k" horiz-adv-x="464" d="M80 0V674H108V228L375 474H411L215 292L423 0H393L196 275L108 194V0H80Z" />
<glyph unicode="l" glyph-name="l" horiz-adv-x="229" d="M153 -10Q120 -10 100 9T80 80V674H108V76Q108 42 118 29T151 16Q162 16 173 17T194 21V-5Q184 -8 172 -9T153 -10Z" />
<glyph unicode="m" glyph-name="m" horiz-adv-x="846" d="M80 0V474H103L108 412Q149 447 194 465T289 484Q346 484 377 465T422 413Q456 443 502 463T612 484Q692 484 731 444T771 319V0H743V318Q743 397 709 428T603 459Q553 459 509 441T432 389Q436 374 438
352T440 313V0H412V313Q412 390 387 424T287 459Q238 459 191 436T108 381V0H80Z" />
<glyph unicode="n" glyph-name="n" horiz-adv-x="548" d="M80 0V474H103L108 412Q146 445 193 464T308 484Q394 484 433 444T473 317V0H445V317Q445 369 432 400T385 445T293 459Q237 459 190 437T108 381V0H80Z" />
<glyph unicode="o" glyph-name="o" horiz-adv-x="552" d="M276 -10Q161 -10 111 53T60 237Q60 358 111 421T276 484Q390 484 441 421T492 237Q492 116 442 53T276 -10ZM276 15Q380 15 422 70T465 237Q465 348 423 403T276 459Q173 459 130 404T87 237Q87 126 129
71T276 15Z" />
<glyph unicode="p" glyph-name="p" horiz-adv-x="554" d="M80 -216V474H103L107 417Q142 452 184 468T283 484Q383 484 438 427T494 240Q494 110 435 50T277 -10Q222 -10 184 3T108 44V-216H80ZM270 15Q368 15 417 70T467 240Q467 350 424 404T278 459Q176 459
108 388V73Q140 48 177 32T270 15Z" />
<glyph unicode="q" glyph-name="q" horiz-adv-x="550" d="M536 -242Q489 -242 468 -215T446 -133V44Q409 16 371 3T277 -10Q179 -10 120 50T60 240Q60 370 115 427T271 484Q327 484 369 468T447 417L451 474H474V-133Q474 -176 486 -196T544 -216Q558 -216 575
-211V-237Q555 -242 536 -242ZM284 15Q340 15 377 31T446 73V388Q378 459 276 459Q174 459 131 405T87 240Q87 125 136 70T284 15Z" />
<glyph unicode="r" glyph-name="r" horiz-adv-x="313" d="M80 0V474H103L108 403Q146 430 194 451T288 484V458Q259 451 225 438T160 408T108 376V0H80Z" />
<glyph unicode="s" glyph-name="s" horiz-adv-x="437" d="M210 -10Q172 -10 137 -5T74 8V34Q138 15 207 15Q283 15 316 38T350 116Q350 154 335 173T288 204T206 234Q167 248 134 260T80 296T60 365Q60 424 98 454T222 484Q292 484 341 469V443Q284 459 226 459Q145
459 116 436T87 366Q87 334 99 316T140 285T214 258Q266 242 302 226T358 185T377 116Q377 46 332 18T210 -10Z" />
<glyph unicode="t" glyph-name="t" horiz-adv-x="332" d="M237 -10Q181 -10 149 23T117 114V448H40V474H117V606L145 616V474H288L286 448H145V114Q145 66 169 41T246 15Q270 15 302 26V0Q288 -4 272 -7T237 -10Z" />
<glyph unicode="u" glyph-name="u" horiz-adv-x="548" d="M250 -10Q164 -10 120 38T75 174V474H103V174Q103 97 141 56T265 15Q321 15 364 37T440 93V474H468V0H445L440 62Q403 28 361 9T250 -10Z" />
<glyph unicode="v" glyph-name="v" horiz-adv-x="529" d="M245 0L60 474H89L264 16L441 474H469L285 0H245Z" />
<glyph unicode="w" glyph-name="w" horiz-adv-x="702" d="M183 0L60 474H89L203 20L335 426V474H359L502 20L614 474H642L520 0H484L354 411L221 0H183Z" />
<glyph unicode="x" glyph-name="x" horiz-adv-x="488" d="M50 0L228 241L55 474H86L243 261L400 474H431L260 241L438 0H407L243 223L80 0H50Z" />
<glyph unicode="y" glyph-name="y" horiz-adv-x="549" d="M134 -176Q98 -176 71 -166V-140Q88 -147 103 -149T132 -151Q168 -151 190 -132T229 -78T266 2L60 474H89L280 33L481 474H509L298 9Q275 -43 254 -85T205 -151T134 -176Z" />
<glyph unicode="z" glyph-name="z" horiz-adv-x="474" d="M60 0V23L378 448H75V474H408V450L91 26H414V0H60Z" />
<glyph unicode="{" glyph-name="braceleft" horiz-adv-x="275" d="M210 -104Q162 -104 137 -84T111 -12V188Q111 232 98 256T40 285V312Q84 317 97 341T111 409V609Q111 661 136 681T210 701H225V675H210Q168 675 154 660T139 602V390Q139 365 126 336T76 298Q113
289 126 261T139 207V-5Q139 -47 153 -62T210 -78H225V-104H210Z" />
<glyph unicode="|" glyph-name="bar" horiz-adv-x="148" d="M60 -120V735H88V-120H60Z" />
<glyph unicode="}" glyph-name="braceright" horiz-adv-x="275" d="M50 -104V-78H65Q107 -78 121 -63T136 -5V207Q136 232 149 260T199 298Q162 307 149 336T136 390V602Q136 644 122 659T65 675H50V701H65Q113 701 138 681T164 609V409Q164 366 177 342T235 312V285Q191
280 178 256T164 188V-12Q164 -64 139 -84T65 -104H50Z" />
<glyph unicode="~" glyph-name="asciitilde" horiz-adv-x="587" d="M412 253Q379 253 350 264T294 289T237 315T176 326Q138 326 111 311T60 265V298Q77 321 108 336T176 351Q210 351 239 340T297 315T353 289T412 278Q450 278 476 293T527 339V306Q510 282 480
268T412 253Z" />
<glyph unicode="&#xa0;" glyph-name="uni00A0" horiz-adv-x="235" />
<glyph unicode="&#xa1;" glyph-name="exclamdown" horiz-adv-x="153" d="M60 442V474H93V442H60ZM63 -170V-21L69 335H86L91 -21V-170H63Z" />
<glyph unicode="&#xa2;" glyph-name="cent" horiz-adv-x="476" d="M268 -86V-9Q156 -4 108 61T60 237Q60 353 115 414T268 483V560H294V484H296Q340 484 365 478T416 460V434Q388 447 361 453T299 459H294V15Q326 15 357 22T416 40V14Q391 4 361 -2T294 -10V-86H268ZM268
15V458Q181 450 134 396T87 237Q87 131 128 76T268 15Z" />
<glyph unicode="&#xa3;" glyph-name="sterling" horiz-adv-x="507" d="M60 0V26H88Q123 26 139 48T155 111V329H80V355H155V512Q155 583 201 618T313 654Q344 654 370 650T413 638V612Q399 620 372 624T320 629Q254 629 219 600T183 513V355H412V329H183V112Q183
84 177 62T153 26H447V0H60Z" />
<glyph unicode="&#xa4;" glyph-name="currency" horiz-adv-x="569" d="M75 73L60 93L145 158Q106 205 106 269Q106 333 145 380L60 445L75 465L161 398Q185 421 216 434T284 448Q320 448 351 435T407 398L494 465L509 445L424 380Q442 358 452 330T463 269Q463
238 453 209T424 157L509 93L494 73L408 139Q384 117 353 104T285 90Q249 90 217 103T161 139L75 73ZM284 115Q327 115 361 136T415 192T436 269Q436 312 416 346T361 402T284 423Q242 423 208 402T153 347T133 269Q133 227 153 192T207 136T284 115Z" />
<glyph unicode="&#xa5;" glyph-name="yen" horiz-adv-x="588" d="M279 0V125H110V150H279V234H110V259H269L60 644H88L294 268L499 644H528L317 259H477V234H308V150H477V125H308V0H279Z" />
<glyph unicode="&#xa6;" glyph-name="brokenbar" horiz-adv-x="148" d="M60 445V735H88V445H60ZM60 -120V170H88V-120H60Z" />
<glyph unicode="&#xa7;" glyph-name="section" horiz-adv-x="551" d="M257 -10Q200 -10 157 -4T78 16V41Q118 28 161 21T257 14Q358 14 411 49T464 160Q464 206 443 235T378 283T261 318Q188 335 144 352T80 396T60 465Q60 481 64 496T76 525Q60 554 60 596Q60
671 113 718T284 765Q337 765 383 758T451 742V717Q419 728 379 734T292 740Q191 740 139 705T87 596Q87 555 104 529T164 485T282 449Q364 430 409 414T472 372T491 301Q491 284 487 266T476 231Q491 200 491 160Q491 73 431 32T257 -10ZM457 258Q461 269 462
280T464 301Q464 331 455 349T423 380T361 403T261 429Q198 445 158 461T94 502Q87 486 87 465Q87 429 105 408T166 371T282 338Q411 309 457 258Z" />
<glyph unicode="&#xa8;" glyph-name="dieresis" horiz-adv-x="312" d="M217 574V609H252V574H217ZM60 574V609H95V574H60Z" />
<glyph unicode="&#xa9;" glyph-name="copyright" horiz-adv-x="784" d="M392 -10Q323 -10 263 16T158 87T86 193T60 322Q60 391 86 451T157 556T263 628T392 654Q461 654 521 628T626 557T698 451T724 322Q724 253 698 193T627 88T521 16T392 -10ZM392 16Q455
16 510 40T608 106T674 203T698 322Q698 385 674 440T608 538T511 604T392 628Q329 628 274 604T176 538T110 441T86 322Q86 259 110 204T176 106T273 40T392 16ZM389 75Q275 75 213 140T150 321Q150 404 184 458T274 539T399 566Q443 566 473 560T528 540V514Q471
541 402 541Q340 541 289 517T207 444T177 321Q177 210 234 155T396 100Q428 100 464 107T528 127V101Q502 88 465 82T389 75Z" />
<glyph unicode="&#xaa;" glyph-name="ordfeminine" horiz-adv-x="349" d="M155 380Q116 380 88 397T60 455Q60 537 161 537H262V558Q262 596 245 613T174 630Q133 630 94 616V641Q130 654 180 654Q232 654 260 633T289 562V386H265L263 422Q223 380 155 380ZM160
404Q195 404 218 414T262 449V513H160Q120 513 103 499T86 455Q86 427 106 416T160 404Z" />
<glyph unicode="&#xab;" glyph-name="guillemotleft" horiz-adv-x="560" d="M486 95L240 276V300L486 481L500 461L268 288L500 115L486 95ZM306 95L60 276V300L306 481L320 461L88 288L320 115L306 95Z" />
<glyph unicode="&#xac;" glyph-name="logicalnot" horiz-adv-x="540" d="M452 158V336H60V361H480V158H452Z" />
<glyph unicode="&#xad;" glyph-name="uni00AD" horiz-adv-x="487" d="M60 234V259H427V234H60Z" />
<glyph unicode="&#xae;" glyph-name="registered" horiz-adv-x="784" d="M392 -10Q323 -10 263 16T158 87T86 193T60 322Q60 391 86 451T157 556T263 628T392 654Q461 654 521 628T626 557T698 451T724 322Q724 253 698 193T627 88T521 16T392 -10ZM392 16Q455
16 510 40T608 106T674 203T698 322Q698 385 674 440T608 538T511 604T392 628Q329 628 274 604T176 538T110 441T86 322Q86 259 110 204T176 106T273 40T392 16ZM237 88V552H425Q496 552 530 517T565 419Q565 305 458 289Q476 282 485 270T502 238L567 88H539L475
233Q467 252 457 262T429 277T379 281H265V88H237ZM265 307H417Q473 307 505 332T538 419Q538 478 510 502T426 527H265V307Z" />
<glyph unicode="&#xaf;" glyph-name="overscore" horiz-adv-x="387" d="M60 569V594H327V569H60Z" />
<glyph unicode="&#xb0;" glyph-name="degree" horiz-adv-x="323" d="M161 511Q119 511 90 540T60 612Q60 655 89 684T161 714Q204 714 233 685T263 612Q263 570 234 541T161 511ZM161 536Q193 536 215 558T238 612Q238 644 216 666T161 689Q129 689 107 667T85
612Q85 580 107 558T161 536Z" />
<glyph unicode="&#xb1;" glyph-name="plusminus" horiz-adv-x="487" d="M229 71V234H60V259H229V429H257V259H427V234H257V71H229ZM60 0V25H427V0H60Z" />
<glyph unicode="&#xb2;" glyph-name="uni00B2" horiz-adv-x="292" d="M60 370V390Q72 421 95 442T145 486Q170 507 183 520T200 545T205 575Q205 601 191 616T141 632Q104 632 71 621V643Q82 647 103 650T141 654Q184 654 206 632T229 575Q229 542 212 522T160
472Q136 453 116 436T85 392H232V370H60Z" />
<glyph unicode="&#xb3;" glyph-name="uni00B3" horiz-adv-x="294" d="M127 362Q108 362 90 365T60 373V395Q76 390 92 387T127 384Q172 384 190 398T209 444Q209 473 190 486T131 499H99L104 521H127Q166 521 184 534T203 580Q203 608 187 620T129 632Q113 632
97 630T65 622V644Q76 648 94 651T129 654Q185 654 206 634T227 580Q227 557 216 538T175 510Q208 504 221 486T234 444Q234 362 127 362Z" />
<glyph unicode="&#xb4;" glyph-name="acute" horiz-adv-x="213" d="M60 522L123 671H153L83 522H60Z" />
<glyph unicode="&#xb5;" glyph-name="uni00B5" horiz-adv-x="553" d="M80 -143V474H108V174Q108 97 147 56T270 15Q326 15 369 37T445 93V474H473V0H450L445 62Q408 28 366 9T255 -10Q206 -10 167 9T108 65V-143H80Z" />
<glyph unicode="&#xb6;" glyph-name="paragraph" horiz-adv-x="594" d="M346 -77V253Q286 253 234 263T143 297T82 365T60 477Q60 563 93 614T187 687T328 710H534V-77H506V684H374V-77H346Z" />
<glyph unicode="&#xb7;" glyph-name="middot" horiz-adv-x="153" d="M60 267V300H93V267H60Z" />
<glyph unicode="&#xb8;" glyph-name="cedilla" horiz-adv-x="318" d="M121 -240Q105 -240 88 -238T60 -232V-207Q89 -215 124 -215Q178 -215 204 -198T231 -141Q231 -103 207 -90T132 -76H104L131 0H159L140 -53Q196 -53 227 -73T258 -139Q258 -188 226 -214T121 -240Z" />
<glyph unicode="&#xb9;" glyph-name="uni00B9" horiz-adv-x="201" d="M138 370V631L60 613V634L161 654V370H138Z" />
<glyph unicode="&#xba;" glyph-name="ordmasculine" horiz-adv-x="362" d="M181 380Q119 380 90 415T60 517Q60 584 90 619T181 654Q242 654 272 619T302 517Q302 450 273 415T181 380ZM181 405Q234 405 255 433T276 517Q276 572 255 600T181 629Q129 629 107
601T85 517Q85 462 106 434T181 405Z" />
<glyph unicode="&#xbb;" glyph-name="guillemotright" horiz-adv-x="560" d="M254 95L240 115L472 288L240 461L254 481L500 300V276L254 95ZM74 95L60 115L292 288L60 461L74 481L320 300V276L74 95Z" />
<glyph unicode="&#xbc;" glyph-name="onequarter" horiz-adv-x="601" d="M138 370V631L60 613V634L161 654V370H138ZM107 0L452 644H479L134 0H107ZM487 0V67H327V91L477 284H510V89H541V67H510V0H487ZM349 89H489V269L349 89Z" />
<glyph unicode="&#xbd;" glyph-name="onehalf" horiz-adv-x="601" d="M138 370V631L60 613V634L161 654V370H138ZM107 0L452 644H479L134 0H107ZM369 0V20Q381 51 404 72T454 116Q479 137 492 150T509 175T514 205Q514 231 500 246T450 262Q413 262 380 251V273Q391
277 412 280T450 284Q493 284 515 262T538 205Q538 172 521 152T469 102Q445 83 425 66T394 22H541V0H369Z" />
<glyph unicode="&#xbe;" glyph-name="threequarters" horiz-adv-x="619" d="M127 362Q108 362 90 365T60 373V395Q76 390 92 387T127 384Q172 384 190 398T209 444Q209 473 190 486T131 499H99L104 521H127Q166 521 184 534T203 580Q203 608 187 620T129 632Q113
632 97 630T65 622V644Q76 648 94 651T129 654Q185 654 206 634T227 580Q227 557 216 538T175 510Q208 504 221 486T234 444Q234 362 127 362ZM125 0L470 644H497L152 0H125ZM505 0V67H345V91L495 284H528V89H559V67H528V0H505ZM367 89H507V269L367 89Z" />
<glyph unicode="&#xbf;" glyph-name="questiondown" horiz-adv-x="484" d="M267 442V474H300V442H267ZM258 -180Q158 -180 109 -136T60 -9Q60 32 75 60T115 110T167 155Q200 182 223 201T258 245T270 310V333H298V308Q298 266 283 238T245 189T198 149Q169 126
144 105T103 57T87 -9Q87 -77 127 -116T260 -155Q310 -155 350 -146T424 -120V-146Q396 -162 354 -171T258 -180Z" />
<glyph unicode="&#xc0;" glyph-name="Agrave" horiz-adv-x="650" d="M313 688L243 837H273L336 688H313ZM60 0L303 644H348L590 0H562L487 200H164L89 0H60ZM173 225H477L325 628L173 225Z" />
<glyph unicode="&#xc1;" glyph-name="Aacute" horiz-adv-x="650" d="M309 688L372 837H402L332 688H309ZM60 0L303 644H348L590 0H562L487 200H164L89 0H60ZM173 225H477L325 628L173 225Z" />
<glyph unicode="&#xc2;" glyph-name="Acircumflex" horiz-adv-x="650" d="M215 688L310 810H340L435 688H406L325 792L244 688H215ZM60 0L303 644H348L590 0H562L487 200H164L89 0H60ZM173 225H477L325 628L173 225Z" />
<glyph unicode="&#xc3;" glyph-name="Atilde" horiz-adv-x="650" d="M391 718Q368 718 348 727T308 745T270 754Q249 754 231 747T195 720V751Q206 765 226 772T267 779Q292 779 311 770T348 752T388 743Q410 743 426 750T456 777V746Q436 718 391 718ZM60 0L303
644H348L590 0H562L487 200H164L89 0H60ZM173 225H477L325 628L173 225Z" />
<glyph unicode="&#xc4;" glyph-name="Adieresis" horiz-adv-x="650" d="M229 718V753H264V718H229ZM386 718V753H421V718H386ZM60 0L303 644H348L590 0H562L487 200H164L89 0H60ZM173 225H477L325 628L173 225Z" />
<glyph unicode="&#xc5;" glyph-name="Aring" horiz-adv-x="650" d="M60 0L298 631Q268 640 249 665T230 723Q230 764 257 791T325 819Q366 819 393 792T421 723Q421 690 402 665T352 631L590 0H562L487 200H164L89 0H60ZM325 653Q356 653 376 673T396 723Q396
754 376 774T325 794Q295 794 275 774T255 723Q255 693 275 673T325 653ZM173 225H477L325 628L173 225Z" />
<glyph unicode="&#xc6;" glyph-name="AE" horiz-adv-x="825" d="M60 0L303 644H765V618H440V335H730V309H440V25H765V0H412V200H164L89 0H60ZM174 225H412V618H322L174 225Z" />
<glyph unicode="&#xc7;" glyph-name="Ccedilla" horiz-adv-x="584" d="M324 -240Q308 -240 290 -238T261 -232V-207Q290 -215 325 -215Q379 -215 405 -198T432 -141Q432 -105 408 -91T333 -76H305L328 -10Q234 -7 175 33T88 142T60 301Q60 405 86 484T175 609T343
654Q396 654 441 647T524 626V600Q487 614 442 621T346 629Q246 629 190 587T110 472T87 301Q87 168 148 92T349 15Q393 15 440 21T524 40V14Q489 4 447 -2T356 -10L341 -53Q397 -53 428 -74T459 -139Q459 -188 428 -214T324 -240Z" />
<glyph unicode="&#xc8;" glyph-name="Egrave" horiz-adv-x="538" d="M286 688L216 837H246L309 688H286ZM80 0V644H488V619H108V335H453V310H108V25H488V0H80Z" />
<glyph unicode="&#xc9;" glyph-name="Eacute" horiz-adv-x="538" d="M277 688L340 837H370L300 688H277ZM80 0V644H488V619H108V335H453V310H108V25H488V0H80Z" />
<glyph unicode="&#xca;" glyph-name="Ecircumflex" horiz-adv-x="538" d="M172 688L267 810H297L392 688H363L282 792L201 688H172ZM80 0V644H488V619H108V335H453V310H108V25H488V0H80Z" />
<glyph unicode="&#xcb;" glyph-name="Edieresis" horiz-adv-x="538" d="M193 718V753H228V718H193ZM350 718V753H385V718H350ZM80 0V644H488V619H108V335H453V310H108V25H488V0H80Z" />
<glyph unicode="&#xcc;" glyph-name="Igrave" horiz-adv-x="188" d="M81 688L11 837H41L104 688H81ZM80 0V644H108V0H80Z" />
<glyph unicode="&#xcd;" glyph-name="Iacute" horiz-adv-x="188" d="M87 688L150 837H180L110 688H87ZM80 0V644H108V0H80Z" />
<glyph unicode="&#xce;" glyph-name="Icircumflex" horiz-adv-x="188" d="M-16 688L79 810H109L204 688H175L94 792L13 688H-16ZM80 0V644H108V0H80Z" />
<glyph unicode="&#xcf;" glyph-name="Idieresis" horiz-adv-x="188" d="M-2 718V753H33V718H-2ZM155 718V753H190V718H155ZM80 0V644H108V0H80Z" />
<glyph unicode="&#xd0;" glyph-name="Eth" horiz-adv-x="673" d="M131 0V305H40V330H131V644H364Q455 644 509 611T588 505T613 317Q613 208 590 138T512 34T364 0H131ZM159 25H354Q413 25 456 37T529 82T572 171T586 317Q586 435 563 500T490 591T354 618H159V330H357V305H159V25Z"
/>
<glyph unicode="&#xd1;" glyph-name="Ntilde" horiz-adv-x="649" d="M400 718Q377 718 357 727T317 745T279 754Q258 754 240 747T204 720V751Q215 765 235 772T276 779Q301 779 320 770T357 752T397 743Q419 743 435 750T465 777V746Q445 718 400 718ZM80 0V644H111L541
38V644H569V0H538L108 606V0H80Z" />
<glyph unicode="&#xd2;" glyph-name="Ograve" horiz-adv-x="682" d="M335 688L265 837H295L358 688H335ZM341 -10Q243 -10 181 30T90 143T60 316Q60 489 127 571T341 654Q488 654 555 572T622 316Q622 217 593 144T501 30T341 -10ZM341 15Q469 15 532 92T595 316Q595
431 567 499T483 598T341 629Q256 629 200 599T115 500T87 316Q87 169 150 92T341 15Z" />
<glyph unicode="&#xd3;" glyph-name="Oacute" horiz-adv-x="682" d="M334 688L397 837H427L357 688H334ZM341 -10Q243 -10 181 30T90 143T60 316Q60 489 127 571T341 654Q488 654 555 572T622 316Q622 217 593 144T501 30T341 -10ZM341 15Q469 15 532 92T595 316Q595
431 567 499T483 598T341 629Q256 629 200 599T115 500T87 316Q87 169 150 92T341 15Z" />
<glyph unicode="&#xd4;" glyph-name="Ocircumflex" horiz-adv-x="682" d="M231 688L326 810H356L451 688H422L341 792L260 688H231ZM341 -10Q243 -10 181 30T90 143T60 316Q60 489 127 571T341 654Q488 654 555 572T622 316Q622 217 593 144T501 30T341 -10ZM341
15Q469 15 532 92T595 316Q595 431 567 499T483 598T341 629Q256 629 200 599T115 500T87 316Q87 169 150 92T341 15Z" />
<glyph unicode="&#xd5;" glyph-name="Otilde" horiz-adv-x="682" d="M407 718Q384 718 364 727T324 745T286 754Q265 754 247 747T211 720V751Q222 765 242 772T283 779Q308 779 327 770T364 752T404 743Q426 743 442 750T472 777V746Q452 718 407 718ZM341 -10Q243
-10 181 30T90 143T60 316Q60 489 127 571T341 654Q488 654 555 572T622 316Q622 217 593 144T501 30T341 -10ZM341 15Q469 15 532 92T595 316Q595 431 567 499T483 598T341 629Q256 629 200 599T115 500T87 316Q87 169 150 92T341 15Z" />
<glyph unicode="&#xd6;" glyph-name="Odieresis" horiz-adv-x="682" d="M245 718V753H280V718H245ZM402 718V753H437V718H402ZM341 -10Q243 -10 181 30T90 143T60 316Q60 489 127 571T341 654Q488 654 555 572T622 316Q622 217 593 144T501 30T341 -10ZM341 15Q469
15 532 92T595 316Q595 431 567 499T483 598T341 629Q256 629 200 599T115 500T87 316Q87 169 150 92T341 15Z" />
<glyph unicode="&#xd7;" glyph-name="multiply" horiz-adv-x="397" d="M320 109L200 229L84 114L65 133L180 249L60 368L78 386L197 266L318 386L337 367L217 246L337 126L320 109Z" />
<glyph unicode="&#xd8;" glyph-name="Oslash" horiz-adv-x="682" d="M180 -53L205 17Q130 52 95 129T60 316Q60 489 127 571T341 654Q388 654 427 645L444 693H471L452 639Q540 611 581 531T622 316Q622 217 593 144T501 30T341 -10Q309 -10 281 -6T228 7L207
-53H180ZM213 41L419 621Q401 625 382 627T341 629Q256 629 200 599T115 500T87 316Q87 105 213 41ZM341 15Q469 15 532 92T595 316Q595 449 557 520T443 615L237 31Q281 15 341 15Z" />
<glyph unicode="&#xd9;" glyph-name="Ugrave" horiz-adv-x="656" d="M340 688L270 837H300L363 688H340ZM328 -10Q198 -10 137 51T75 231V644H103V219Q103 116 162 66T328 16Q435 16 494 66T553 219V644H581V231Q581 113 520 52T328 -10Z" />
<glyph unicode="&#xda;" glyph-name="Uacute" horiz-adv-x="656" d="M309 688L372 837H402L332 688H309ZM328 -10Q198 -10 137 51T75 231V644H103V219Q103 116 162 66T328 16Q435 16 494 66T553 219V644H581V231Q581 113 520 52T328 -10Z" />
<glyph unicode="&#xdb;" glyph-name="Ucircumflex" horiz-adv-x="656" d="M218 688L313 810H343L438 688H409L328 792L247 688H218ZM328 -10Q198 -10 137 51T75 231V644H103V219Q103 116 162 66T328 16Q435 16 494 66T553 219V644H581V231Q581 113 520 52T328 -10Z" />
<glyph unicode="&#xdc;" glyph-name="Udieresis" horiz-adv-x="656" d="M232 718V753H267V718H232ZM389 718V753H424V718H389ZM328 -10Q198 -10 137 51T75 231V644H103V219Q103 116 162 66T328 16Q435 16 494 66T553 219V644H581V231Q581 113 520 52T328 -10Z" />
<glyph unicode="&#xdd;" glyph-name="Yacute" horiz-adv-x="606" d="M277 688L340 837H370L300 688H277ZM289 0V242L60 644H89L303 268L517 644H546L317 242V0H289Z" />
<glyph unicode="&#xde;" glyph-name="Thorn" horiz-adv-x="560" d="M80 0V644H108V513H321Q425 513 472 461T520 320Q520 230 466 180T317 130H108V0H80ZM108 155H319Q405 155 449 199T493 320Q493 401 451 444T324 487H108V155Z" />
<glyph unicode="&#xdf;" glyph-name="germandbls" horiz-adv-x="613" d="M361 -10Q323 -10 285 -5T217 12V38Q249 25 286 20T361 15Q442 15 484 60T526 190Q526 237 511 273T460 329T358 350H267V375H365Q414 375 443 395T486 449T499 520Q499 563 481 598T419
653T301 674Q103 674 103 484V0H75V488Q75 589 134 644T301 700Q379 700 429 677T502 613T526 520Q526 462 501 422T434 364Q488 351 520 307T553 190Q553 95 504 43T361 -10Z" />
<glyph unicode="&#xe0;" glyph-name="agrave" horiz-adv-x="522" d="M277 522L207 671H237L300 522H277ZM224 -10Q179 -10 142 3T83 44T60 120Q60 181 97 218T230 256H419V317Q419 368 406 399T358 445T258 459Q218 459 182 453T113 434V460Q143 472 183 478T267
484Q361 484 404 446T447 319V0H425L421 65Q387 27 340 9T224 -10ZM231 15Q293 15 338 34T419 95V230H232Q147 230 117 202T87 120Q87 64 126 40T231 15Z" />
<glyph unicode="&#xe1;" glyph-name="aacute" horiz-adv-x="522" d="M261 522L324 671H354L284 522H261ZM224 -10Q179 -10 142 3T83 44T60 120Q60 181 97 218T230 256H419V317Q419 368 406 399T358 445T258 459Q218 459 182 453T113 434V460Q143 472 183 478T267
484Q361 484 404 446T447 319V0H425L421 65Q387 27 340 9T224 -10ZM231 15Q293 15 338 34T419 95V230H232Q147 230 117 202T87 120Q87 64 126 40T231 15Z" />
<glyph unicode="&#xe2;" glyph-name="acircumflex" horiz-adv-x="522" d="M165 522L260 644H290L385 522H356L275 626L194 522H165ZM224 -10Q179 -10 142 3T83 44T60 120Q60 181 97 218T230 256H419V317Q419 368 406 399T358 445T258 459Q218 459 182 453T113
434V460Q143 472 183 478T267 484Q361 484 404 446T447 319V0H425L421 65Q387 27 340 9T224 -10ZM231 15Q293 15 338 34T419 95V230H232Q147 230 117 202T87 120Q87 64 126 40T231 15Z" />
<glyph unicode="&#xe3;" glyph-name="atilde" horiz-adv-x="522" d="M344 552Q321 552 301 561T261 579T223 588Q202 588 184 581T148 554V585Q159 599 179 606T220 613Q245 613 264 604T301 586T341 577Q363 577 379 584T409 611V580Q389 552 344 552ZM224 -10Q179
-10 142 3T83 44T60 120Q60 181 97 218T230 256H419V317Q419 368 406 399T358 445T258 459Q218 459 182 453T113 434V460Q143 472 183 478T267 484Q361 484 404 446T447 319V0H425L421 65Q387 27 340 9T224 -10ZM231 15Q293 15 338 34T419 95V230H232Q147 230 117
202T87 120Q87 64 126 40T231 15Z" />
<glyph unicode="&#xe4;" glyph-name="adieresis" horiz-adv-x="522" d="M183 552V587H218V552H183ZM340 552V587H375V552H340ZM224 -10Q179 -10 142 3T83 44T60 120Q60 181 97 218T230 256H419V317Q419 368 406 399T358 445T258 459Q218 459 182 453T113 434V460Q143
472 183 478T267 484Q361 484 404 446T447 319V0H425L421 65Q387 27 340 9T224 -10ZM231 15Q293 15 338 34T419 95V230H232Q147 230 117 202T87 120Q87 64 126 40T231 15Z" />
<glyph unicode="&#xe5;" glyph-name="aring" horiz-adv-x="522" d="M285 522Q245 522 218 549T190 617Q190 658 217 685T285 713Q326 713 353 686T381 617Q381 577 354 550T285 522ZM285 547Q316 547 336 567T356 617Q356 648 336 668T285 688Q255 688 235 668T215
617Q215 587 235 567T285 547ZM224 -10Q179 -10 142 3T83 44T60 120Q60 181 97 218T230 256H419V317Q419 368 406 399T358 445T258 459Q218 459 182 453T113 434V460Q143 472 183 478T267 484Q361 484 404 446T447 319V0H425L421 65Q387 27 340 9T224 -10ZM231
15Q293 15 338 34T419 95V230H232Q147 230 117 202T87 120Q87 64 126 40T231 15Z" />
<glyph unicode="&#xe6;" glyph-name="ae" horiz-adv-x="877" d="M224 -10Q179 -10 142 3T83 44T60 120Q60 181 97 218T230 256H419V317Q419 368 406 399T359 445T261 459Q221 459 184 453T113 434V460Q143 472 183 478T267 484Q344 484 387 459T441 373Q464 426
510 455T631 484Q698 484 738 459T798 392T817 300V218H447Q447 110 495 63T662 15Q723 15 785 40V14Q724 -10 657 -10Q566 -10 513 18T437 108Q410 47 354 19T224 -10ZM447 244H789V296Q789 370 752 414T631 459Q528 459 488 402T447 244ZM231 15Q281 15 323 31T392
79T419 154V230H232Q147 230 117 202T87 120Q87 64 126 40T231 15Z" />
<glyph unicode="&#xe7;" glyph-name="ccedilla" horiz-adv-x="476" d="M243 -240Q227 -240 209 -238T180 -232V-207Q209 -215 244 -215Q298 -215 324 -198T351 -141Q351 -105 327 -91T252 -76H224L248 -8Q148 3 104 67T60 237Q60 362 123 423T296 484Q340 484
365 478T416 460V434Q388 447 361 453T299 459Q198 459 143 405T87 237Q87 125 134 70T293 15Q325 15 357 22T416 40V14Q390 3 358 -3T286 -10H275L260 -53Q316 -53 347 -74T378 -139Q378 -188 347 -214T243 -240Z" />
<glyph unicode="&#xe8;" glyph-name="egrave" horiz-adv-x="518" d="M262 522L192 671H222L285 522H262ZM298 -10Q168 -10 114 50T60 241Q60 355 108 419T272 484Q339 484 379 459T439 392T458 300V218H88Q90 149 110 104T177 37T303 15Q364 15 426 40V14Q365
-10 298 -10ZM88 244H430V296Q430 370 393 414T272 459Q169 459 129 402T88 244Z" />
<glyph unicode="&#xe9;" glyph-name="eacute" horiz-adv-x="518" d="M252 522L315 671H345L275 522H252ZM298 -10Q168 -10 114 50T60 241Q60 355 108 419T272 484Q339 484 379 459T439 392T458 300V218H88Q90 149 110 104T177 37T303 15Q364 15 426 40V14Q365
-10 298 -10ZM88 244H430V296Q430 370 393 414T272 459Q169 459 129 402T88 244Z" />
<glyph unicode="&#xea;" glyph-name="ecircumflex" horiz-adv-x="518" d="M162 522L257 644H287L382 522H353L272 626L191 522H162ZM298 -10Q168 -10 114 50T60 241Q60 355 108 419T272 484Q339 484 379 459T439 392T458 300V218H88Q90 149 110 104T177 37T303
15Q364 15 426 40V14Q365 -10 298 -10ZM88 244H430V296Q430 370 393 414T272 459Q169 459 129 402T88 244Z" />
<glyph unicode="&#xeb;" glyph-name="edieresis" horiz-adv-x="518" d="M175 552V587H210V552H175ZM332 552V587H367V552H332ZM298 -10Q168 -10 114 50T60 241Q60 355 108 419T272 484Q339 484 379 459T439 392T458 300V218H88Q90 149 110 104T177 37T303 15Q364
15 426 40V14Q365 -10 298 -10ZM88 244H430V296Q430 370 393 414T272 459Q169 459 129 402T88 244Z" />
<glyph unicode="&#xec;" glyph-name="igrave" horiz-adv-x="265" d="M156 522L86 671H116L179 522H156ZM157 0V448H80V474H185V0H157Z" />
<glyph unicode="&#xed;" glyph-name="iacute" horiz-adv-x="265" d="M147 522L210 671H240L170 522H147ZM157 0V448H80V474H185V0H157Z" />
<glyph unicode="&#xee;" glyph-name="icircumflex" horiz-adv-x="265" d="M28 522L123 644H153L248 522H219L138 626L57 522H28ZM157 0V448H80V474H185V0H157Z" />
<glyph unicode="&#xef;" glyph-name="idieresis" horiz-adv-x="265" d="M37 552V587H72V552H37ZM194 552V587H229V552H194ZM157 0V448H80V474H185V0H157Z" />
<glyph unicode="&#xf0;" glyph-name="eth" horiz-adv-x="568" d="M276 -10Q171 -10 116 45T60 194Q60 292 115 344T276 396Q318 396 368 381T465 330V396Q465 448 456 492T424 568L287 508V533L409 586Q388 606 359 617T288 629Q245 629 210 624T149 610V636Q175
644 210 649T288 654Q336 654 372 639T433 597L533 641V616L448 578Q471 544 482 498T493 393V228Q493 101 438 46T276 -10ZM277 15Q465 15 465 208V304Q427 333 378 352T279 371Q173 371 130 323T87 194Q87 113 134 64T277 15Z" />
<glyph unicode="&#xf1;" glyph-name="ntilde" horiz-adv-x="548" d="M356 552Q333 552 313 561T273 579T235 588Q214 588 196 581T160 554V585Q171 599 191 606T232 613Q257 613 276 604T313 586T353 577Q375 577 391 584T421 611V580Q401 552 356 552ZM80 0V474H103L108
412Q146 445 193 464T308 484Q394 484 433 444T473 317V0H445V317Q445 369 432 400T385 445T293 459Q237 459 190 437T108 381V0H80Z" />
<glyph unicode="&#xf2;" glyph-name="ograve" horiz-adv-x="552" d="M274 522L204 671H234L297 522H274ZM276 -10Q161 -10 111 53T60 237Q60 358 111 421T276 484Q390 484 441 421T492 237Q492 116 442 53T276 -10ZM276 15Q380 15 422 70T465 237Q465 348 423
403T276 459Q173 459 130 404T87 237Q87 126 129 71T276 15Z" />
<glyph unicode="&#xf3;" glyph-name="oacute" horiz-adv-x="552" d="M271 522L334 671H364L294 522H271ZM276 -10Q161 -10 111 53T60 237Q60 358 111 421T276 484Q390 484 441 421T492 237Q492 116 442 53T276 -10ZM276 15Q380 15 422 70T465 237Q465 348 423
403T276 459Q173 459 130 404T87 237Q87 126 129 71T276 15Z" />
<glyph unicode="&#xf4;" glyph-name="ocircumflex" horiz-adv-x="552" d="M161 522L256 644H286L381 522H352L271 626L190 522H161ZM276 -10Q161 -10 111 53T60 237Q60 358 111 421T276 484Q390 484 441 421T492 237Q492 116 442 53T276 -10ZM276 15Q380 15 422
70T465 237Q465 348 423 403T276 459Q173 459 130 404T87 237Q87 126 129 71T276 15Z" />
<glyph unicode="&#xf5;" glyph-name="otilde" horiz-adv-x="552" d="M342 552Q319 552 299 561T259 579T221 588Q200 588 182 581T146 554V585Q157 599 177 606T218 613Q243 613 262 604T299 586T339 577Q361 577 377 584T407 611V580Q387 552 342 552ZM276 -10Q161
-10 111 53T60 237Q60 358 111 421T276 484Q390 484 441 421T492 237Q492 116 442 53T276 -10ZM276 15Q380 15 422 70T465 237Q465 348 423 403T276 459Q173 459 130 404T87 237Q87 126 129 71T276 15Z" />
<glyph unicode="&#xf6;" glyph-name="odieresis" horiz-adv-x="552" d="M180 552V587H215V552H180ZM337 552V587H372V552H337ZM276 -10Q161 -10 111 53T60 237Q60 358 111 421T276 484Q390 484 441 421T492 237Q492 116 442 53T276 -10ZM276 15Q380 15 422 70T465
237Q465 348 423 403T276 459Q173 459 130 404T87 237Q87 126 129 71T276 15Z" />
<glyph unicode="&#xf7;" glyph-name="divide" horiz-adv-x="487" d="M225 379V419H261V379H225ZM60 234V259H427V234H60ZM225 81V121H261V81H225Z" />
<glyph unicode="&#xf8;" glyph-name="oslash" horiz-adv-x="552" d="M170 -54L189 1Q121 23 91 82T60 237Q60 358 111 421T276 484Q299 484 318 482T356 474L375 528H402L380 465Q439 440 465 383T492 237Q492 116 442 53T276 -10Q243 -10 214 -4L197 -54H170ZM198
25L347 450Q332 454 314 456T276 459Q173 459 130 404T87 237Q87 150 112 97T198 25ZM276 15Q380 15 422 70T465 237Q465 317 443 368T371 441L223 19Q235 17 248 16T276 15Z" />
<glyph unicode="&#xf9;" glyph-name="ugrave" horiz-adv-x="548" d="M266 522L196 671H226L289 522H266ZM250 -10Q164 -10 120 38T75 174V474H103V174Q103 97 141 56T265 15Q321 15 364 37T440 93V474H468V0H445L440 62Q403 28 361 9T250 -10Z" />
<glyph unicode="&#xfa;" glyph-name="uacute" horiz-adv-x="548" d="M251 522L314 671H344L274 522H251ZM250 -10Q164 -10 120 38T75 174V474H103V174Q103 97 141 56T265 15Q321 15 364 37T440 93V474H468V0H445L440 62Q403 28 361 9T250 -10Z" />
<glyph unicode="&#xfb;" glyph-name="ucircumflex" horiz-adv-x="548" d="M162 522L257 644H287L382 522H353L272 626L191 522H162ZM250 -10Q164 -10 120 38T75 174V474H103V174Q103 97 141 56T265 15Q321 15 364 37T440 93V474H468V0H445L440 62Q403 28 361 9T250 -10Z" />
<glyph unicode="&#xfc;" glyph-name="udieresis" horiz-adv-x="548" d="M173 552V587H208V552H173ZM330 552V587H365V552H330ZM250 -10Q164 -10 120 38T75 174V474H103V174Q103 97 141 56T265 15Q321 15 364 37T440 93V474H468V0H445L440 62Q403 28 361 9T250 -10Z" />
<glyph unicode="&#xfd;" glyph-name="yacute" horiz-adv-x="549" d="M259 522L322 671H352L282 522H259ZM134 -176Q98 -176 71 -166V-140Q88 -147 103 -149T132 -151Q168 -151 190 -132T229 -78T266 2L60 474H89L280 33L481 474H509L298 9Q275 -43 254 -85T205
-151T134 -176Z" />
<glyph unicode="&#xfe;" glyph-name="thorn" horiz-adv-x="554" d="M80 -216V700H108V417Q143 452 185 468T283 484Q383 484 438 427T494 240Q494 110 435 50T277 -10Q222 -10 184 3T108 44V-216H80ZM270 15Q368 15 417 70T467 240Q467 350 424 404T278 459Q176
459 108 388V73Q140 48 177 32T270 15Z" />
<glyph unicode="&#xff;" glyph-name="ydieresis" horiz-adv-x="549" d="M192 552V587H227V552H192ZM349 552V587H384V552H349ZM134 -176Q98 -176 71 -166V-140Q88 -147 103 -149T132 -151Q168 -151 190 -132T229 -78T266 2L60 474H89L280 33L481 474H509L298 9Q275
-43 254 -85T205 -151T134 -176Z" />
<glyph unicode="&#x2013;" glyph-name="endash" horiz-adv-x="597" d="M60 234V259H537V234H60Z" />
<glyph unicode="&#x2014;" glyph-name="emdash" horiz-adv-x="909" d="M60 234V259H849V234H60Z" />
<glyph unicode="&#x2018;" glyph-name="quoteleft" horiz-adv-x="196" d="M60 495L114 654H136L93 495H60Z" />
<glyph unicode="&#x2019;" glyph-name="quoteright" horiz-adv-x="196" d="M60 495L103 654H136L82 495H60Z" />
<glyph unicode="&#x201a;" glyph-name="quotesinglbase" horiz-adv-x="196" d="M60 -126L103 33H136L82 -126H60Z" />
<glyph unicode="&#x201c;" glyph-name="quotedblleft" horiz-adv-x="312" d="M176 495L230 654H252L209 495H176ZM60 495L114 654H136L93 495H60Z" />
<glyph unicode="&#x201d;" glyph-name="quotedblright" horiz-adv-x="312" d="M176 495L219 654H252L198 495H176ZM60 495L103 654H136L82 495H60Z" />
<glyph unicode="&#x201e;" glyph-name="quotedblbase" horiz-adv-x="312" d="M176 -126L219 33H252L198 -126H176ZM60 -126L103 33H136L82 -126H60Z" />
<glyph unicode="&#x2022;" glyph-name="bullet" horiz-adv-x="343" d="M171 176Q125 176 93 208T60 287Q60 334 92 366T171 399Q218 399 250 367T283 287Q283 241 251 209T171 176Z" />
<glyph unicode="&#x2039;" glyph-name="guilsinglleft" horiz-adv-x="380" d="M306 95L60 276V300L306 481L320 461L88 288L320 115L306 95Z" />
<glyph unicode="&#x203a;" glyph-name="guilsinglright" horiz-adv-x="380" d="M74 95L60 115L292 288L60 461L74 481L320 300V276L74 95Z" />
</font>
</defs>
</svg>
