<?xml version="1.0" standalone="no"?>
<!DOCTYPE svg PUBLIC "-//W3C//DTD SVG 1.1//EN" "http://www.w3.org/Graphics/SVG/1.1/DTD/svg11.dtd">
<svg xmlns="http://www.w3.org/2000/svg">
<defs >
<font id="Kanit" horiz-adv-x="543" ><font-face
    font-family="Kanit ExtraLight"
    units-per-em="1000"
    panose-1="0 0 0 0 0 0 0 0 0 0"
    ascent="1100"
    descent="-395"
    alphabetic="0" />
<glyph unicode=" " glyph-name="space" horiz-adv-x="235" />
<glyph unicode="!" glyph-name="exclam" horiz-adv-x="171" d="M55 146L122 491L154 644H209L177 491L99 146H55ZM15 0L25 48H86L76 0H15Z" />
<glyph unicode="&quot;" glyph-name="quotedbl" horiz-adv-x="297" d="M250 479L285 644H338L291 479H250ZM116 479L151 644H204L157 479H116Z" />
<glyph unicode="#" glyph-name="numbersign" horiz-adv-x="694" d="M53 0L151 187H54L63 228H172L270 414H150L159 456H292L391 644H441L342 456H549L648 644H699L600 456H695L686 414H578L480 228H599L590 187H458L360 0H310L408 187H200L102 0H53ZM222 228H429L527
414H320L222 228Z" />
<glyph unicode="$" glyph-name="dollar" horiz-adv-x="553" d="M194 -86L210 -10Q97 -9 34 18L45 67Q119 37 220 37L278 307Q277 307 277 307T276 308Q181 332 142 372T117 481Q132 553 188 599T351 653L368 730H414L398 654Q448 653 489 646T552 630L542 581Q475
606 387 606L332 346Q436 319 471 275T492 164Q476 85 419 42T256 -8L240 -86H194ZM288 357L341 604Q269 597 226 568T171 481Q164 448 171 426T207 388T288 357ZM266 38Q340 44 382 74T438 164Q449 218 422 246T321 295L266 38Z" />
<glyph unicode="%" glyph-name="percent" horiz-adv-x="695" d="M227 370Q162 370 136 408T122 506Q136 574 176 614T288 654Q351 654 377 614T389 506Q376 446 338 408T227 370ZM108 0L588 644H640L160 0H108ZM236 410Q283 410 310 435T347 506Q359 562 344 587T279
613Q234 613 205 588T164 506Q154 461 168 436T236 410ZM463 -10Q398 -10 372 28T358 126Q372 194 412 234T524 274Q587 274 613 234T625 126Q612 66 574 28T463 -10ZM472 30Q519 30 546 55T583 126Q595 182 580 207T515 233Q470 233 441 208T400 126Q390 81 404
56T472 30Z" />
<glyph unicode="&amp;" glyph-name="ampersand" horiz-adv-x="652" d="M222 -10Q127 -10 79 32T46 147Q60 216 114 264T253 354Q218 395 198 430T187 516Q199 573 244 613T366 654Q434 654 464 616T481 516Q469 461 430 423T325 346L474 152Q502 194 514 251L518
271H564L560 252Q544 175 500 120L572 27L533 -3L466 82Q377 -10 222 -10ZM297 375Q356 408 389 436T433 514Q442 557 428 583T356 610Q305 610 274 582T234 514Q228 487 235 466T258 424T297 375ZM231 32Q362 32 439 114L280 320Q202 283 157 246T99 148Q87 91
122 62T231 32Z" />
<glyph unicode="&apos;" glyph-name="quotesingle" horiz-adv-x="163" d="M116 479L151 644H204L157 479H116Z" />
<glyph unicode="(" glyph-name="parenleft" horiz-adv-x="292" d="M138 -72Q94 -28 78 35T63 168T79 303Q93 367 120 437T191 570T298 678H361Q267 612 213 517T133 303Q108 185 122 90T201 -72H138Z" />
<glyph unicode=")" glyph-name="parenright" horiz-adv-x="292" d="M-21 -72Q72 -6 126 89T206 303Q231 421 218 516T139 678H202Q246 634 262 571T277 437T261 303Q248 239 221 169T149 35T42 -72H-21Z" />
<glyph unicode="*" glyph-name="asterisk" horiz-adv-x="421" d="M155 346L123 375L241 485L128 535L154 572L260 517L283 644H330L299 517L428 572L439 533L302 482L376 373L337 346L271 463L155 346Z" />
<glyph unicode="+" glyph-name="plus" horiz-adv-x="482" d="M193 79L226 235H64L74 280H236L270 442H317L283 280H446L436 235H273L240 79H193Z" />
<glyph unicode="," glyph-name="comma" horiz-adv-x="189" d="M-11 -120L50 45H103L30 -120H-11Z" />
<glyph unicode="-" glyph-name="hyphen" horiz-adv-x="482" d="M64 235L74 280H446L436 235H64Z" />
<glyph unicode="." glyph-name="period" horiz-adv-x="163" d="M15 0L25 51H78L68 0H15Z" />
<glyph unicode="/" glyph-name="slash" horiz-adv-x="399" d="M15 0L389 662H444L70 0H15Z" />
<glyph unicode="0" glyph-name="zero" horiz-adv-x="639" d="M277 -10Q189 -10 139 29T74 141T80 310Q103 418 144 495T253 613T419 654Q516 654 565 613T623 495T609 310Q589 213 546 141T437 30T277 -10ZM287 37Q363 37 416 72T504 169T555 310Q576 405 572
471T530 571T408 606Q294 606 230 529T134 310Q118 231 124 170T169 73T287 37Z" />
<glyph unicode="1" glyph-name="one" horiz-adv-x="286" d="M116 0L243 600L138 583L148 629L310 654L171 0H116Z" />
<glyph unicode="2" glyph-name="two" horiz-adv-x="499" d="M15 0L22 34Q60 99 122 153T250 254Q315 301 354 335T414 401T443 475Q452 515 445 544T407 590T316 606Q281 606 241 600T163 579L173 629Q205 640 249 647T331 654Q427 654 471 607T497 475Q487 425
461 387T395 315T305 243Q242 196 184 151T88 44H413L404 0H15Z" />
<glyph unicode="3" glyph-name="three" horiz-adv-x="506" d="M175 -10Q130 -10 87 -3T18 15L28 64Q62 51 99 44T180 37Q273 37 325 69T393 174Q408 242 371 273T257 305H169L184 348H258Q338 348 384 384T444 484Q458 546 428 576T305 606Q265 606 225 599T150
579L160 628Q188 639 233 646T321 654Q430 654 472 607T498 484Q491 451 472 418T423 361T349 326Q411 310 435 269T447 174Q428 82 356 36T175 -10Z" />
<glyph unicode="4" glyph-name="four" horiz-adv-x="536" d="M336 0L368 155H27L37 202L476 644H527L433 201H503L493 155H423L391 0H336ZM90 200H383L463 576L90 200Z" />
<glyph unicode="5" glyph-name="five" horiz-adv-x="506" d="M178 -10Q133 -10 90 -4T21 15L31 65Q63 52 101 45T184 37Q268 37 324 75T397 189Q407 237 401 269T363 317T267 333H85L95 380L168 644H499L484 599H204L143 378H276Q491 378 451 189Q431 95 362 43T178 -10Z" />
<glyph unicode="6" glyph-name="six" horiz-adv-x="561" d="M238 -10Q132 -10 84 47T64 231L97 390Q123 518 202 586T401 654Q446 654 480 649T540 634L530 586Q505 596 471 601T392 606Q292 606 232 548T152 399L140 341Q190 373 243 387T336 402Q444 402 486
350T507 197Q488 103 422 47T238 -10ZM247 35Q335 35 387 79T455 196Q466 246 460 282T421 338T322 358Q273 358 223 341T131 297L112 210Q93 122 124 79T247 35Z" />
<glyph unicode="7" glyph-name="seven" horiz-adv-x="495" d="M102 0L482 599H132L141 644H546L537 599L157 0H102Z" />
<glyph unicode="8" glyph-name="eight" horiz-adv-x="575" d="M244 -10Q133 -10 82 34T50 166Q63 226 106 271T218 333Q161 349 143 389T134 478Q151 558 212 606T386 654Q493 654 536 606T562 478Q552 427 516 386T408 322Q478 306 503 267T515 166Q477 -10 244
-10ZM348 340Q421 357 460 387T512 478Q526 541 495 575T376 609Q297 609 248 576T185 478Q175 430 196 399T270 356L348 340ZM254 35Q436 35 464 166Q477 225 453 251T358 293L271 312Q204 299 159 266T100 167Q86 101 121 68T254 35Z" />
<glyph unicode="9" glyph-name="nine" horiz-adv-x="561" d="M218 -10Q173 -10 138 -5T76 9L87 58Q138 37 226 37Q293 37 341 64T421 137T464 244L476 300Q427 268 376 254T281 239Q178 239 133 291T109 444Q129 538 196 596T381 654Q490 654 535 597T553 412L519
254Q494 134 419 62T218 -10ZM296 283Q348 283 396 300T486 344L505 434Q523 521 496 565T372 609Q283 609 229 564T159 445Q149 395 156 359T196 303T296 283Z" />
<glyph unicode=":" glyph-name="colon" horiz-adv-x="164" d="M85 332L96 384H150L139 332H85ZM21 30L32 82H86L75 30H21Z" />
<glyph unicode=";" glyph-name="semicolon" horiz-adv-x="190" d="M112 332L123 384H176L165 332H112ZM-5 -94L56 71H109L36 -94H-5Z" />
<glyph unicode="&lt;" glyph-name="less" horiz-adv-x="546" d="M464 65L72 269L81 314L561 518L549 463L134 290L476 116L464 65Z" />
<glyph unicode="=" glyph-name="equal" horiz-adv-x="488" d="M80 306L88 348H466L458 306H80ZM50 167L59 209H437L428 167H50Z" />
<glyph unicode="&gt;" glyph-name="greater" horiz-adv-x="546" d="M28 65L40 120L457 294L113 467L125 518L517 314L508 269L28 65Z" />
<glyph unicode="?" glyph-name="question" horiz-adv-x="488" d="M167 148L172 172Q182 216 205 245T260 298T321 342Q363 371 396 401T440 478Q454 541 427 573T305 606Q258 606 215 597T136 571L146 619Q179 635 226 644T326 654Q427 654 469 608T494 479Q482
421 445 386T357 316Q321 291 295 272T251 229T226 169L222 148H167ZM133 0L143 48H204L194 0H133Z" />
<glyph unicode="@" glyph-name="at" horiz-adv-x="768" d="M321 -132Q253 -132 196 -116T101 -63T49 35T54 188Q92 363 199 444T475 525Q628 525 691 455T726 254Q706 158 656 101T513 43H495Q461 13 417 -3T315 -20Q255 -20 218 9T194 99Q205 153 246 190T374
228H516L523 261Q532 301 529 324T502 356T425 366Q358 366 295 345L303 385Q332 396 369 401T445 407Q522 407 553 373T568 262L531 86Q590 86 624 126T678 254Q694 329 680 379T614 454T465 479Q323 479 230 412T102 187Q80 80 103 21T185 -63T329 -87Q439 -87
506 -68L496 -114Q463 -121 418 -126T321 -132ZM331 19Q423 19 485 81L507 188H370Q308 188 279 165T240 99Q230 55 252 37T331 19Z" />
<glyph unicode="A" glyph-name="A" horiz-adv-x="667" d="M-2 0L378 644H448L555 0H502L470 188H168L58 0H-2ZM190 233H467L406 600L190 233Z" />
<glyph unicode="B" glyph-name="B" horiz-adv-x="619" d="M19 0L155 644H438Q528 644 564 600T583 476Q571 422 541 385T468 331Q516 320 538 284T546 182Q526 88 470 44T321 0H19ZM149 354H382Q450 354 484 387T530 473Q539 514 535 542T503 585T417 600H201L149
354ZM83 43H325Q396 43 436 75T493 184Q506 246 481 278T367 311H140L83 43Z" />
<glyph unicode="C" glyph-name="C" horiz-adv-x="590" d="M292 -10Q190 -10 133 29T60 139T63 304Q86 409 130 487T249 610T433 654Q488 654 531 647T610 625L600 576Q565 590 521 598T427 606Q334 606 272 569T174 464T117 304Q99 220 110 161T169 69T309 37Q353
37 401 44T491 64L481 15Q440 3 393 -3T292 -10Z" />
<glyph unicode="D" glyph-name="D" horiz-adv-x="633" d="M19 0L155 644H395Q534 644 579 568T588 317Q565 208 528 138T427 34T261 0H19ZM83 44H258Q333 44 385 66T474 147T533 317Q557 427 551 488T502 574T376 599H201L83 44Z" />
<glyph unicode="E" glyph-name="E" horiz-adv-x="542" d="M19 0L155 644H576L567 599H201L147 344H478L468 300H137L83 44H449L440 0H19Z" />
<glyph unicode="F" glyph-name="F" horiz-adv-x="507" d="M19 0L155 644H561L552 599H201L147 344H461L451 300H137L74 0H19Z" />
<glyph unicode="G" glyph-name="G" horiz-adv-x="634" d="M292 -10Q194 -10 137 29T61 139T63 304Q86 409 132 487T252 610T433 654Q488 654 531 647T611 627L600 578Q565 591 521 598T428 606Q336 606 274 569T175 464T117 304Q99 220 109 161T166 69T308 37Q355
37 402 45T486 67L534 296H351L361 340H594L530 39Q499 21 441 6T292 -10Z" />
<glyph unicode="H" glyph-name="H" horiz-adv-x="631" d="M19 0L155 644H210L147 344H517L580 644H635L499 0H444L507 300H137L74 0H19Z" />
<glyph unicode="I" glyph-name="I" horiz-adv-x="206" d="M19 0L155 644H210L74 0H19Z" />
<glyph unicode="J" glyph-name="J" horiz-adv-x="420" d="M106 -10Q66 -10 35 -4T-19 13L-9 61Q12 51 43 44T109 37Q178 37 218 68T273 168L374 644H429L328 165Q310 80 258 35T106 -10Z" />
<glyph unicode="K" glyph-name="K" horiz-adv-x="586" d="M19 0L155 644H210L138 302L537 644H604L305 388L474 0H414L263 352L123 231L74 0H19Z" />
<glyph unicode="L" glyph-name="L" horiz-adv-x="522" d="M19 0L155 644H210L83 44H439L430 0H19Z" />
<glyph unicode="M" glyph-name="M" horiz-adv-x="745" d="M19 0L155 644H216L348 167L682 644H749L613 0H559L678 564L361 112H318L192 564L73 0H19Z" />
<glyph unicode="N" glyph-name="N" horiz-adv-x="657" d="M19 0L155 644H207L487 82L606 644H661L525 0H472L193 561L74 0H19Z" />
<glyph unicode="O" glyph-name="O" horiz-adv-x="688" d="M285 -10Q141 -10 87 74T66 319Q103 492 189 573T427 654Q573 654 627 573T644 319Q610 158 525 74T285 -10ZM295 37Q414 37 486 105T589 319Q612 425 602 488T547 578T416 606Q337 606 279 579T182 488T120
319Q89 173 128 105T295 37Z" />
<glyph unicode="P" glyph-name="P" horiz-adv-x="572" d="M19 0L155 644H411Q513 644 553 589T574 443Q555 352 488 300T323 247H126L74 0H19ZM135 291H327Q412 291 458 332T519 443Q535 518 510 558T398 599H201L135 291Z" />
<glyph unicode="Q" glyph-name="Q" horiz-adv-x="688" d="M346 -172Q275 -172 257 -129T252 -8Q127 1 81 84T66 319Q103 492 189 573T427 654Q573 654 627 573T644 319Q611 163 531 80T306 -9Q293 -72 303 -98T364 -124Q380 -124 400 -121T437 -114L427 -162Q411
-166 389 -169T346 -172ZM295 37Q414 37 486 105T589 319Q612 425 602 488T547 578T416 606Q337 606 279 579T182 488T120 319Q89 173 128 105T295 37Z" />
<glyph unicode="R" glyph-name="R" horiz-adv-x="593" d="M19 0L155 644H424Q522 644 558 592T576 452Q560 378 515 331T395 270Q415 259 422 243T436 201L480 0H424L380 194Q373 229 354 243T279 258H128L74 0H19ZM138 302H336Q407 302 455 337T521 452Q536 525
512 562T411 599H201L138 302Z" />
<glyph unicode="S" glyph-name="S" horiz-adv-x="552" d="M198 -10Q82 -10 17 18L28 67Q103 37 204 37Q298 37 352 66T421 164Q430 206 417 231T366 274T261 308Q161 332 123 372T100 481Q117 559 180 606T368 654Q422 654 467 646T535 630L525 581Q458 606 368
606Q273 606 221 577T154 481Q146 444 157 421T205 381T308 348Q383 330 422 305T473 245T475 164Q457 78 387 34T198 -10Z" />
<glyph unicode="T" glyph-name="T" horiz-adv-x="570" d="M201 0L328 599H106L115 644H614L605 599H383L256 0H201Z" />
<glyph unicode="U" glyph-name="U" horiz-adv-x="663" d="M273 -10Q144 -10 92 54T63 233L150 644H205L117 227Q96 129 136 84T284 38Q377 38 443 82T530 227L618 644H673L586 233Q561 115 484 53T273 -10Z" />
<glyph unicode="V" glyph-name="V" horiz-adv-x="668" d="M242 0L135 644H189L285 49L633 644H693L314 0H242Z" />
<glyph unicode="W" glyph-name="W" horiz-adv-x="850" d="M149 0L135 644H190L201 67L466 579L479 644H524L565 67L821 644H875L590 0H527L490 530L219 0H149Z" />
<glyph unicode="X" glyph-name="X" horiz-adv-x="624" d="M-2 0L289 318L135 644H197L330 357L585 644H646L354 318L512 0H450L314 278L60 0H-2Z" />
<glyph unicode="Y" glyph-name="Y" horiz-adv-x="624" d="M228 0L279 241L135 644H189L314 289L589 644H649L334 241L283 0H228Z" />
<glyph unicode="Z" glyph-name="Z" horiz-adv-x="568" d="M-2 0L5 34L515 599H142L151 644H592L584 605L78 44H470L461 0H-2Z" />
<glyph unicode="[" glyph-name="bracketleft" horiz-adv-x="333" d="M-7 -99L165 706H396L388 661H210L58 -55H236L224 -99H-7Z" />
<glyph unicode="\" glyph-name="backslash" horiz-adv-x="418" d="M256 -54L155 662H210L311 -54H256Z" />
<glyph unicode="]" glyph-name="bracketright" horiz-adv-x="333" d="M-15 -99L-7 -55H171L323 661H145L157 706H388L216 -99H-15Z" />
<glyph unicode="^" glyph-name="asciicircum" horiz-adv-x="439" d="M99 397L288 624H334L428 397H378L306 583L155 397H99Z" />
<glyph unicode="_" glyph-name="underscore" horiz-adv-x="554" d="M5 -45L15 0H459L449 -45H5Z" />
<glyph unicode="`" glyph-name="grave" horiz-adv-x="229" d="M199 522L159 680H211L244 522H199Z" />
<glyph unicode="a" glyph-name="a" horiz-adv-x="559" d="M208 -10Q146 -10 103 12T43 86T45 221Q64 307 105 365T202 454T323 484Q373 484 406 473T470 434L478 474H533L433 0H387L393 53Q352 21 308 6T208 -10ZM231 35Q278 35 319 50T399 99L460 386Q437 410
408 424T330 438Q242 438 182 383T99 221Q78 120 108 78T231 35Z" />
<glyph unicode="b" glyph-name="b" horiz-adv-x="564" d="M237 -10Q182 -10 145 5T80 53L64 0H18L161 674H216L165 434Q206 460 249 472T342 484Q406 484 448 459T505 381T503 241Q475 111 409 51T237 -10ZM234 35Q326 35 376 87T449 241Q472 347 441 392T318
438Q269 438 228 424T155 386L94 99Q139 35 234 35Z" />
<glyph unicode="c" glyph-name="c" horiz-adv-x="450" d="M230 -10Q112 -10 68 55T48 237Q74 362 152 423T343 484Q389 484 415 478T467 458L457 413Q410 438 343 438Q251 438 188 390T102 237Q80 134 111 85T253 35Q285 35 319 42T383 61L374 15Q343 3 307 -3T230 -10Z" />
<glyph unicode="d" glyph-name="d" horiz-adv-x="565" d="M208 -10Q147 -10 104 15T45 93T48 233Q76 362 147 423T318 484Q367 484 403 473T470 434L521 674H576L433 0H387L393 53Q352 21 308 6T208 -10ZM231 35Q278 35 319 50T399 99L460 386Q437 410 405 424T324
438Q240 438 183 389T102 233Q80 132 109 84T231 35Z" />
<glyph unicode="e" glyph-name="e" horiz-adv-x="525" d="M240 -10Q112 -10 67 50T49 240Q73 354 138 419T319 484Q388 484 426 459T475 390T475 294L457 208H97Q86 146 96 108T146 52T261 35Q327 35 394 60L385 15Q318 -10 240 -10ZM106 251H416L425 296Q435
340 429 372T395 421T311 438Q217 438 171 390T106 251Z" />
<glyph unicode="f" glyph-name="f" horiz-adv-x="344" d="M52 0L142 428H69L79 474H152L169 554Q198 690 337 690Q360 690 378 687T411 677L402 633Q374 644 341 644Q286 644 261 623T224 555L207 474H339L326 428H197L107 0H52Z" />
<glyph unicode="g" glyph-name="g" horiz-adv-x="542" d="M200 -176Q175 -176 141 -173T88 -166L98 -118Q119 -125 150 -127T200 -130Q277 -130 328 -100T392 -8L404 49Q364 24 323 12T231 0Q168 0 124 23T64 98T65 236Q92 366 160 425T329 484Q384 484 421 469T487
420L503 474H549L448 -3Q431 -82 366 -129T200 -176ZM254 45Q302 45 341 59T414 98L473 374Q426 438 333 438Q242 438 191 388T119 236Q97 130 128 88T254 45Z" />
<glyph unicode="h" glyph-name="h" horiz-adv-x="559" d="M18 0L161 674H216L161 417Q203 447 252 465T365 484Q447 484 482 443T498 313L432 0H377L443 312Q458 382 436 410T335 438Q286 438 238 419T151 368L73 0H18Z" />
<glyph unicode="i" glyph-name="i" horiz-adv-x="270" d="M202 597L215 657H278L265 597H202ZM83 0L173 428H99L115 474H238L138 0H83Z" />
<glyph unicode="j" glyph-name="j" horiz-adv-x="269" d="M201 597L214 657H277L264 597H201ZM-47 -234Q-68 -234 -88 -231T-124 -222L-114 -177Q-99 -182 -84 -184T-55 -187Q1 -187 26 -166T60 -99L172 428H98L114 474H237L115 -102Q87 -234 -47 -234Z" />
<glyph unicode="k" glyph-name="k" horiz-adv-x="486" d="M18 0L161 674H216L125 246L417 474H483L249 289L394 0H336L206 258L112 184L73 0H18Z" />
<glyph unicode="l" glyph-name="l" horiz-adv-x="246" d="M103 -10Q63 -10 44 12T37 91L161 674H216L92 93Q85 61 91 49T122 37Q144 37 168 43L158 -3Q144 -7 130 -8T103 -10Z" />
<glyph unicode="m" glyph-name="m" horiz-adv-x="851" d="M19 0L119 474H167L160 416Q206 448 254 466T351 484Q403 484 430 465T464 416Q504 445 554 464T667 484Q745 484 777 444T791 317L724 0H670L736 312Q751 383 730 410T637 438Q592 438 549 423T471 377Q471
363 469 345T463 310L398 0H345L410 309Q425 377 409 407T326 438Q282 438 236 418T151 369L73 0H19Z" />
<glyph unicode="n" glyph-name="n" horiz-adv-x="560" d="M19 0L119 474H167L160 416Q202 446 252 465T366 484Q449 484 483 443T499 313L433 0H378L444 312Q454 359 450 386T421 426T344 438Q292 438 241 419T152 369L74 0H19Z" />
<glyph unicode="o" glyph-name="o" horiz-adv-x="563" d="M221 -10Q101 -10 62 53T48 237Q74 357 138 420T326 484Q445 484 486 421T501 237Q476 116 412 53T221 -10ZM231 37Q326 37 375 86T446 237Q468 338 442 387T316 436Q222 436 173 387T102 237Q88 169 93
125T132 59T231 37Z" />
<glyph unicode="p" glyph-name="p" horiz-adv-x="564" d="M-27 -216L119 474H165L159 420Q200 453 244 468T343 484Q441 484 486 426T503 238Q476 109 407 50T234 -10Q184 -10 148 2T82 39L28 -216H-27ZM230 35Q319 35 373 83T449 238Q471 339 444 388T321 438Q275
438 233 423T153 374L92 88Q115 64 148 50T230 35Z" />
<glyph unicode="q" glyph-name="q" horiz-adv-x="546" d="M428 -242Q379 -242 358 -214T350 -126L385 39Q307 -10 211 -10Q111 -10 66 49T48 238Q76 367 144 425T312 484Q367 484 404 469T470 420L486 474H532L405 -124Q397 -162 404 -178T452 -195Q460 -195 471
-193T490 -189L481 -235Q456 -242 428 -242ZM235 35Q285 35 323 49T395 88L456 374Q409 438 316 438Q224 438 174 389T102 238Q80 132 109 84T235 35Z" />
<glyph unicode="r" glyph-name="r" horiz-adv-x="336" d="M19 0L119 474H167L159 408Q201 434 252 454T353 484L344 439Q314 432 278 420T208 394T151 364L74 0H19Z" />
<glyph unicode="s" glyph-name="s" horiz-adv-x="446" d="M154 -10Q112 -10 75 -5T13 10L23 59Q83 37 157 37Q227 37 261 55T305 120Q312 152 301 168T261 197T188 225Q151 239 122 252T79 290T74 359Q87 421 134 452T274 484Q310 484 341 480T397 467L386 418Q332
436 272 436Q201 436 169 419T128 360Q122 332 131 317T165 290T232 265Q282 248 313 231T357 189T360 120Q345 50 291 20T154 -10Z" />
<glyph unicode="t" glyph-name="t" horiz-adv-x="346" d="M181 -10Q118 -10 92 25T79 123L143 428H69L79 474H153L180 598L238 616L208 474H345L332 428H198L134 125Q123 72 140 54T207 35Q220 35 235 37T268 46L259 2Q223 -10 181 -10Z" />
<glyph unicode="u" glyph-name="u" horiz-adv-x="560" d="M184 -10Q102 -10 67 38T50 174L114 474H169L105 172Q89 99 115 67T217 35Q267 35 312 54T395 104L473 474H528L428 0H379L386 58Q344 27 295 9T184 -10Z" />
<glyph unicode="v" glyph-name="v" horiz-adv-x="546" d="M184 0L99 474H153L223 46L476 474H535L250 0H184Z" />
<glyph unicode="w" glyph-name="w" horiz-adv-x="719" d="M122 0L99 474H154L169 56L366 422L377 474H420L461 56L653 474H708L485 0H429L388 377L185 0H122Z" />
<glyph unicode="x" glyph-name="x" horiz-adv-x="508" d="M-12 0L218 241L93 474H153L255 279L440 474H499L279 241L406 0H346L239 204L47 0H-12Z" />
<glyph unicode="y" glyph-name="y" horiz-adv-x="560" d="M161 -176Q136 -176 102 -173T49 -166L59 -118Q80 -125 111 -127T161 -130Q239 -130 298 -100T372 -8L386 58Q344 27 295 9T184 -10Q102 -10 67 38T50 174L114 474H169L105 172Q89 99 114 67T217 35Q267
35 312 54T395 104L473 474H528L427 -3Q416 -56 377 -95T281 -155T161 -176Z" />
<glyph unicode="z" glyph-name="z" horiz-adv-x="479" d="M-2 0L5 34L386 428H102L112 474H461L453 436L74 45H376L367 0H-2Z" />
<glyph unicode="{" glyph-name="braceleft" horiz-adv-x="285" d="M145 -104Q91 -104 71 -83T62 -6L102 179Q111 224 104 248T54 278L62 318Q107 323 124 347T152 417L191 602Q203 657 232 678T316 700H348L339 655H315Q282 655 268 643T245 595L200 386Q195 360
176 332T120 294Q152 284 159 256T161 202L119 1Q112 -34 121 -46T163 -59H187L177 -104H145Z" />
<glyph unicode="|" glyph-name="bar" horiz-adv-x="165" d="M-11 -120L171 735H226L44 -120H-11Z" />
<glyph unicode="}" glyph-name="braceright" horiz-adv-x="285" d="M-18 -104L-8 -59H16Q49 -59 64 -47T86 1L129 206Q135 232 154 260T210 298Q178 308 171 336T168 390L212 595Q220 630 211 642T168 655H144L153 700H185Q239 700 259 679T268 602L229 417Q219
372 227 348T277 318L269 278Q224 273 206 249T179 179L139 -6Q128 -61 98 -82T14 -104H-18Z" />
<glyph unicode="~" glyph-name="asciitilde" horiz-adv-x="579" d="M420 241Q389 241 362 252T309 277T256 302T198 313Q160 313 130 298T68 252L80 310Q103 333 137 348T209 363Q244 363 271 352T323 327T373 302T430 291Q468 291 497 305T558 351L546 293Q524
269 491 255T420 241Z" />
<glyph unicode="&#xa0;" glyph-name="uni00A0" horiz-adv-x="235" />
<glyph unicode="&#xa1;" glyph-name="exclamdown" horiz-adv-x="171" d="M89 426L99 474H160L150 426H89ZM-34 -170L-2 -17L76 328H120L53 -17L21 -170H-34Z" />
<glyph unicode="&#xa2;" glyph-name="cent" horiz-adv-x="483" d="M207 -86L223 -9Q118 -2 80 62T65 237Q89 353 158 413T328 482L345 560H389L373 484Q412 483 436 476T484 458L474 413Q427 437 363 438L277 35Q308 36 340 43T400 61L391 15Q335 -6 267 -9L251
-86H207ZM233 36L318 435Q242 426 191 378T119 237Q99 143 123 94T233 36Z" />
<glyph unicode="&#xa3;" glyph-name="sterling" horiz-adv-x="505" d="M15 0L24 45H51Q84 45 103 66T131 123L172 319H99L109 364H182L212 504Q227 578 279 616T408 654Q475 654 509 636L499 592Q486 600 462 604T413 608Q348 608 313 583T266 503L237 364H450L439
319H227L186 126Q181 99 171 79T140 45H419L410 0H15Z" />
<glyph unicode="&#xa4;" glyph-name="currency" horiz-adv-x="571" d="M55 66L36 100L133 163Q106 208 120 269Q132 328 178 374L108 438L141 471L211 404Q240 426 273 438T340 450Q409 450 449 404L550 471L569 438L471 374Q483 352 487 325T485 269Q478 239
463 212T426 162L497 99L464 66L392 132Q364 111 332 99T264 87Q230 87 202 99T154 132L55 66ZM272 129Q311 129 346 148T406 199T440 269Q452 327 423 367T331 408Q293 408 258 390T198 340T165 269Q152 211 180 170T272 129Z" />
<glyph unicode="&#xa5;" glyph-name="yen" horiz-adv-x="615" d="M239 0L262 110H99L108 151H271L285 219H122L131 260H283L151 644H204L325 289L596 644H656L360 260H513L504 219H341L327 151H490L481 110H318L295 0H239Z" />
<glyph unicode="&#xa6;" glyph-name="brokenbar" horiz-adv-x="165" d="M107 434L171 735H226L162 434H107ZM-11 -120L53 180H108L44 -120H-11Z" />
<glyph unicode="&#xa7;" glyph-name="section" horiz-adv-x="553" d="M215 -10Q99 -10 34 18L45 67Q120 37 221 37Q313 37 368 66T438 164Q447 206 432 231T378 273T275 306Q207 324 168 343T116 390T112 460Q116 477 124 493T143 523Q132 552 141 593Q158 672
224 718T408 765Q462 765 507 757T576 741L566 692Q499 717 409 717Q317 717 263 688T194 592Q187 555 198 532T246 492T349 458Q424 440 464 421T518 375T522 305Q519 289 510 269T491 234Q501 203 492 163Q474 77 406 34T215 -10ZM460 271Q466 281 469 289T474
306Q481 339 469 357T419 388T314 420Q260 434 226 448T176 485Q167 473 163 455Q157 425 169 407T215 375T313 346Q429 317 460 271Z" />
<glyph unicode="&#xa8;" glyph-name="dieresis" horiz-adv-x="333" d="M301 567L313 622H370L358 567H301ZM135 567L147 622H203L191 567H135Z" />
<glyph unicode="&#xa9;" glyph-name="copyright" horiz-adv-x="774" d="M344 -10Q275 -10 221 16T130 87T81 193T83 322Q98 391 133 451T222 556T342 628T486 654Q555 654 609 628T700 557T749 451T747 322Q732 253 696 193T606 88T486 16T344 -10ZM354 33Q416
33 473 55T578 116T657 208T703 322Q721 404 700 469T622 572T476 610Q388 610 316 572T194 469T127 322Q110 240 131 175T209 71T354 33ZM362 83Q258 83 208 146T181 321Q198 401 242 453T346 532T471 558Q515 558 544 551T594 530L586 490Q535 517 470 517Q415
517 365 497T279 433T228 321Q206 218 240 171T382 124Q413 124 449 131T514 152L505 111Q476 98 438 91T362 83Z" />
<glyph unicode="&#xaa;" glyph-name="ordfeminine" horiz-adv-x="349" d="M174 380Q135 380 111 398T95 456Q113 540 216 540H310L314 557Q321 590 310 604T245 619Q203 619 161 605L169 640Q187 646 212 650T262 654Q312 654 339 632T355 559L319 386H282L285
418Q240 380 174 380ZM191 412Q222 412 246 422T292 454L303 508H212Q175 508 158 497T135 457Q130 432 143 422T191 412Z" />
<glyph unicode="&#xab;" glyph-name="guillemotleft" horiz-adv-x="581" d="M480 87L269 271L276 303L565 487L582 450L324 284L511 118L480 87ZM283 87L72 271L79 303L368 487L384 450L127 284L313 118L283 87Z" />
<glyph unicode="&#xac;" glyph-name="logicalnot" horiz-adv-x="535" d="M425 152L460 319H82L92 364H517L472 152H425Z" />
<glyph unicode="&#xad;" glyph-name="uni00AD" horiz-adv-x="482" d="M64 235L74 280H446L436 235H64Z" />
<glyph unicode="&#xae;" glyph-name="registered" horiz-adv-x="774" d="M344 -10Q275 -10 221 16T130 87T81 193T83 322Q98 391 133 451T222 556T342 628T486 654Q555 654 609 628T700 557T749 451T747 322Q732 253 696 193T606 88T486 16T344 -10ZM354 33Q416
33 473 55T578 116T657 208T703 322Q721 404 700 469T622 572T476 610Q388 610 316 572T194 469T127 322Q110 240 131 175T209 71T354 33ZM213 100L307 545H495Q563 545 592 510T607 414Q597 362 564 330T478 288Q492 280 497 269T507 239L537 100H493L462 237Q457
262 444 269T387 277H295L258 100H213ZM304 316H429Q483 316 517 336T563 414Q574 467 557 486T484 506H344L304 316Z" />
<glyph unicode="&#xaf;" glyph-name="overscore" horiz-adv-x="387" d="M135 567L144 609H421L412 567H135Z" />
<glyph unicode="&#xb0;" glyph-name="degree" horiz-adv-x="321" d="M227 507Q184 507 160 537T145 612Q154 657 189 687T272 717Q316 717 340 687T356 612Q346 567 311 537T227 507ZM236 546Q264 546 287 565T316 612Q321 640 309 659T264 678Q236 678 213 659T185
612Q179 584 191 565T236 546Z" />
<glyph unicode="&#xb1;" glyph-name="plusminus" horiz-adv-x="482" d="M195 89L229 245H67L76 290H238L273 452H320L285 290H448L439 245H276L242 89H195ZM15 0L24 45H396L387 0H15Z" />
<glyph unicode="&#xb2;" glyph-name="uni00B2" horiz-adv-x="296" d="M93 370L99 396Q117 423 143 443T200 485Q242 515 257 532T278 572Q283 595 272 607T227 619Q210 619 191 616T154 607L161 641Q175 646 198 650T243 654Q289 654 308 631T319 572Q312 541
293 521T235 473Q210 454 190 440T152 404H286L279 370H93Z" />
<glyph unicode="&#xb3;" glyph-name="uni00B3" horiz-adv-x="298" d="M166 362Q145 362 125 365T94 373L101 407Q131 395 167 395Q209 395 228 406T254 446Q265 494 194 494H159L169 525H196Q232 525 251 536T276 576Q281 600 268 610T216 620Q182 620 149 609L156
643Q168 647 189 650T231 654Q287 654 307 633T319 578Q315 556 300 537T256 509Q285 503 293 486T297 445Q280 362 166 362Z" />
<glyph unicode="&#xb4;" glyph-name="acute" horiz-adv-x="229" d="M125 522L226 680H278L169 522H125Z" />
<glyph unicode="&#xb5;" glyph-name="uni00B5" horiz-adv-x="565" d="M-12 -143L119 474H174L110 172Q96 104 120 70T222 35Q272 35 317 54T400 104L478 474H533L433 0H384L391 58Q349 27 300 9T189 -10Q151 -10 124 3T82 38L43 -143H-12Z" />
<glyph unicode="&#xb6;" glyph-name="paragraph" horiz-adv-x="611" d="M273 -77L343 253Q285 253 238 263T158 298T114 366T116 477Q134 562 178 613T287 687T430 710H666L499 -77H444L602 665H486L328 -77H273Z" />
<glyph unicode="&#xb7;" glyph-name="middot" horiz-adv-x="163" d="M69 258L80 309H133L122 258H69Z" />
<glyph unicode="&#xb8;" glyph-name="cedilla" horiz-adv-x="315" d="M28 -240Q12 -240 -6 -238T-35 -232L-27 -195Q0 -203 34 -203Q84 -203 112 -189T147 -139Q154 -106 135 -95T67 -84H34L80 0H123L95 -51Q145 -51 172 -73T190 -139Q180 -188 141 -214T28 -240Z" />
<glyph unicode="&#xb9;" glyph-name="uni00B9" horiz-adv-x="206" d="M169 370L221 614L141 597L149 631L270 654L209 370H169Z" />
<glyph unicode="&#xba;" glyph-name="ordmasculine" horiz-adv-x="363" d="M205 380Q79 380 108 517Q122 584 159 619T264 654Q328 654 351 619T361 517Q347 450 310 415T205 380ZM212 414Q260 414 285 440T320 517Q331 567 319 593T256 619Q209 619 184 593T148
517Q138 467 149 441T212 414Z" />
<glyph unicode="&#xbb;" glyph-name="guillemotright" horiz-adv-x="581" d="M254 87L237 124L496 290L308 456L339 487L550 303L543 271L254 87ZM56 87L40 124L298 290L111 456L141 487L352 303L345 271L56 87Z" />
<glyph unicode="&#xbc;" glyph-name="onequarter" horiz-adv-x="616" d="M169 370L221 614L141 597L149 631L270 654L209 370H169ZM63 0L543 644H595L115 0H63ZM450 0L463 62H308L315 96L502 284H550L510 95H541L534 62H503L490 0H450ZM354 95H477L510 253L354 95Z" />
<glyph unicode="&#xbd;" glyph-name="onehalf" horiz-adv-x="615" d="M169 370L221 614L141 597L149 631L270 654L209 370H169ZM63 0L543 644H595L115 0H63ZM334 0L339 26Q359 53 384 73T440 115Q483 145 498 162T518 202Q523 225 513 237T467 249Q451 249 431
246T394 237L401 271Q415 276 438 280T483 284Q527 284 547 261T560 202Q554 171 534 151T476 103Q451 84 431 70T394 34H527L520 0H334Z" />
<glyph unicode="&#xbe;" glyph-name="threequarters" horiz-adv-x="630" d="M166 362Q145 362 125 365T94 373L101 406Q131 394 167 394Q209 394 228 406T254 446Q265 494 194 494H159L169 525H196Q232 525 251 536T276 576Q281 600 268 610T216 621Q184 621 149
610L156 643Q168 647 189 650T231 654Q290 654 308 633T319 578Q315 556 300 537T256 509Q285 503 293 486T297 445Q280 362 166 362ZM77 0L556 644H608L129 0H77ZM464 0L477 62H322L329 96L515 284H564L524 95H555L548 62H517L504 0H464ZM368 95H490L523 253L368
95Z" />
<glyph unicode="&#xbf;" glyph-name="questiondown" horiz-adv-x="488" d="M287 426L297 474H358L348 426H287ZM165 -180Q65 -180 23 -134T-3 -5Q9 53 46 88T134 158Q171 184 197 203T241 245T265 305L269 326H324L319 302Q310 259 286 229T232 177T170 132Q128
103 95 73T51 -4Q43 -46 51 -74T91 -117T186 -132Q233 -132 276 -123T355 -97L345 -145Q312 -161 265 -170T165 -180Z" />
<glyph unicode="&#xc0;" glyph-name="Agrave" horiz-adv-x="667" d="M393 688L353 846H405L438 688H393ZM-2 0L378 644H448L555 0H502L470 188H168L58 0H-2ZM190 233H467L406 600L190 233Z" />
<glyph unicode="&#xc1;" glyph-name="Aacute" horiz-adv-x="667" d="M389 688L490 846H542L434 688H389ZM-2 0L378 644H448L555 0H502L470 188H168L58 0H-2ZM190 233H467L406 600L190 233Z" />
<glyph unicode="&#xc2;" glyph-name="Acircumflex" horiz-adv-x="667" d="M293 687L426 822H474L550 687H502L445 790L344 687H293ZM-2 0L378 644H448L555 0H502L470 188H168L58 0H-2ZM190 233H467L406 600L190 233Z" />
<glyph unicode="&#xc3;" glyph-name="Atilde" horiz-adv-x="667" d="M498 710Q474 710 453 719T413 738T373 747Q351 747 329 740T287 712L297 759Q311 773 335 780T381 788Q407 788 426 779T463 761T505 751Q553 751 585 786L575 739Q549 710 498 710ZM-2 0L378
644H448L555 0H502L470 188H168L58 0H-2ZM190 233H467L406 600L190 233Z" />
<glyph unicode="&#xc4;" glyph-name="Adieresis" horiz-adv-x="667" d="M317 713L328 768H385L373 713H317ZM483 713L495 768H551L539 713H483ZM-2 0L378 644H448L555 0H502L470 188H168L58 0H-2ZM190 233H467L406 600L190 233Z" />
<glyph unicode="&#xc5;" glyph-name="Aring" horiz-adv-x="667" d="M-2 0L362 617Q337 629 326 654T322 710Q331 753 364 782T446 812Q491 812 513 783T527 710Q520 679 501 655T452 618L555 0H502L470 188H168L58 0H-2ZM410 645Q439 645 461 663T490 710Q496
739 484 757T438 776Q410 776 387 758T358 710Q352 682 364 664T410 645ZM190 233H467L406 600L190 233Z" />
<glyph unicode="&#xc6;" glyph-name="AE" horiz-adv-x="832" d="M-2 0L378 644H856L847 598H535L481 344H758L748 299H471L417 44H729L720 0H353L393 189H168L56 0H-2ZM194 233H402L480 598H410L194 233Z" />
<glyph unicode="&#xc7;" glyph-name="Ccedilla" horiz-adv-x="590" d="M217 -240Q201 -240 183 -238T153 -232L161 -195Q188 -203 222 -203Q272 -203 299 -189T334 -139Q341 -107 321 -96T255 -84H222L262 -9Q172 -3 122 37T58 146T63 304Q86 409 130 487T249
610T433 654Q488 654 531 647T610 625L600 576Q565 590 521 598T427 606Q334 606 272 569T174 464T117 304Q99 220 110 161T169 69T309 37Q353 37 401 44T491 64L481 15Q442 4 399 -2T305 -10L283 -51Q395 -51 377 -139Q367 -188 329 -214T217 -240Z" />
<glyph unicode="&#xc8;" glyph-name="Egrave" horiz-adv-x="542" d="M361 688L321 846H373L406 688H361ZM19 0L155 644H576L567 599H201L147 344H478L468 300H137L83 44H449L440 0H19Z" />
<glyph unicode="&#xc9;" glyph-name="Eacute" horiz-adv-x="542" d="M347 688L448 846H500L392 688H347ZM19 0L155 644H576L567 599H201L147 344H478L468 300H137L83 44H449L440 0H19Z" />
<glyph unicode="&#xca;" glyph-name="Ecircumflex" horiz-adv-x="542" d="M238 687L371 822H419L495 687H447L390 790L289 687H238ZM19 0L155 644H576L567 599H201L147 344H478L468 300H137L83 44H449L440 0H19Z" />
<glyph unicode="&#xcb;" glyph-name="Edieresis" horiz-adv-x="542" d="M268 714L279 769H336L324 714H268ZM434 714L446 769H502L490 714H434ZM19 0L155 644H576L567 599H201L147 344H478L468 300H137L83 44H449L440 0H19Z" />
<glyph unicode="&#xcc;" glyph-name="Igrave" horiz-adv-x="205" d="M169 688L129 846H181L214 688H169ZM18 0L154 644H209L73 0H18Z" />
<glyph unicode="&#xcd;" glyph-name="Iacute" horiz-adv-x="206" d="M168 688L269 846H321L213 688H168ZM19 0L155 644H210L74 0H19Z" />
<glyph unicode="&#xce;" glyph-name="Icircumflex" horiz-adv-x="204" d="M62 687L195 822H243L319 687H271L214 790L113 687H62ZM18 0L154 644H209L73 0H18Z" />
<glyph unicode="&#xcf;" glyph-name="Idieresis" horiz-adv-x="205" d="M86 715L97 770H154L142 715H86ZM252 715L264 770H320L308 715H252ZM19 0L155 644H210L74 0H19Z" />
<glyph unicode="&#xd0;" glyph-name="Eth" horiz-adv-x="674" d="M60 0L122 294H41L51 339H131L196 644H436Q575 644 620 568T629 317Q606 208 569 138T468 34T302 0H60ZM124 44H299Q374 44 426 66T515 147T574 317Q598 427 592 488T543 574T417 599H242L186 339H377L367
294H177L124 44Z" />
<glyph unicode="&#xd1;" glyph-name="Ntilde" horiz-adv-x="657" d="M494 713Q470 713 449 722T409 741T369 750Q347 750 325 743T283 715L293 762Q307 776 331 783T377 791Q403 791 422 782T459 764T501 754Q549 754 581 789L571 742Q545 713 494 713ZM19 0L155
644H207L487 82L606 644H661L525 0H472L193 561L74 0H19Z" />
<glyph unicode="&#xd2;" glyph-name="Ograve" horiz-adv-x="688" d="M417 688L377 846H429L462 688H417ZM285 -10Q141 -10 87 74T66 319Q103 492 189 573T427 654Q573 654 627 573T644 319Q610 158 525 74T285 -10ZM295 37Q414 37 486 105T589 319Q612 425 602
488T547 578T416 606Q337 606 279 579T182 488T120 319Q89 173 128 105T295 37Z" />
<glyph unicode="&#xd3;" glyph-name="Oacute" horiz-adv-x="688" d="M412 688L513 846H565L457 688H412ZM285 -10Q141 -10 87 74T66 319Q103 492 189 573T427 654Q573 654 627 573T644 319Q610 158 525 74T285 -10ZM295 37Q414 37 486 105T589 319Q612 425 602
488T547 578T416 606Q337 606 279 579T182 488T120 319Q89 173 128 105T295 37Z" />
<glyph unicode="&#xd4;" glyph-name="Ocircumflex" horiz-adv-x="688" d="M305 687L438 822H486L562 687H514L457 790L356 687H305ZM285 -10Q141 -10 87 74T66 319Q103 492 189 573T427 654Q573 654 627 573T644 319Q610 158 525 74T285 -10ZM295 37Q414 37 486
105T589 319Q612 425 602 488T547 578T416 606Q337 606 279 579T182 488T120 319Q89 173 128 105T295 37Z" />
<glyph unicode="&#xd5;" glyph-name="Otilde" horiz-adv-x="688" d="M511 715Q487 715 466 724T426 743T386 752Q364 752 342 745T300 717L310 764Q324 778 348 785T394 793Q420 793 439 784T476 766T518 756Q566 756 598 791L588 744Q562 715 511 715ZM285 -10Q141
-10 87 74T66 319Q103 492 189 573T427 654Q573 654 627 573T644 319Q610 158 525 74T285 -10ZM295 37Q414 37 486 105T589 319Q612 425 602 488T547 578T416 606Q337 606 279 579T182 488T120 319Q89 173 128 105T295 37Z" />
<glyph unicode="&#xd6;" glyph-name="Odieresis" horiz-adv-x="688" d="M329 714L340 769H397L385 714H329ZM495 714L507 769H563L551 714H495ZM285 -10Q141 -10 87 74T66 319Q103 492 189 573T427 654Q573 654 627 573T644 319Q610 158 525 74T285 -10ZM295 37Q414
37 486 105T589 319Q612 425 602 488T547 578T416 606Q337 606 279 579T182 488T120 319Q89 173 128 105T295 37Z" />
<glyph unicode="&#xd7;" glyph-name="multiply" horiz-adv-x="403" d="M301 106L210 222L74 111L50 142L184 254L93 369L130 400L220 283L361 399L386 368L245 251L336 135L301 106Z" />
<glyph unicode="&#xd8;" glyph-name="Oslash" horiz-adv-x="688" d="M106 -53L147 19Q17 88 66 319Q103 492 189 573T427 654Q449 654 469 652T507 646L534 693H584L550 634Q625 603 648 526T644 319Q610 158 525 74T285 -10Q257 -10 233 -7T188 2L156 -53H106ZM172
62L481 601Q467 603 451 604T416 606Q337 606 279 579T182 488T120 319Q98 218 110 155T172 62ZM295 37Q414 37 486 105T589 319Q614 436 599 500T524 589L213 46Q248 37 295 37Z" />
<glyph unicode="&#xd9;" glyph-name="Ugrave" horiz-adv-x="663" d="M419 688L379 846H431L464 688H419ZM273 -10Q144 -10 92 54T63 233L150 644H205L117 227Q96 129 136 84T284 38Q377 38 443 82T530 227L618 644H673L586 233Q561 115 484 53T273 -10Z" />
<glyph unicode="&#xda;" glyph-name="Uacute" horiz-adv-x="663" d="M391 688L492 846H544L436 688H391ZM273 -10Q144 -10 92 54T63 233L150 644H205L117 227Q96 129 136 84T284 38Q377 38 443 82T530 227L618 644H673L586 233Q561 115 484 53T273 -10Z" />
<glyph unicode="&#xdb;" glyph-name="Ucircumflex" horiz-adv-x="663" d="M292 687L425 822H473L549 687H501L444 790L343 687H292ZM273 -10Q144 -10 92 54T63 233L150 644H205L117 227Q96 129 136 84T284 38Q377 38 443 82T530 227L618 644H673L586 233Q561 115
484 53T273 -10Z" />
<glyph unicode="&#xdc;" glyph-name="Udieresis" horiz-adv-x="663" d="M309 714L320 769H377L365 714H309ZM475 714L487 769H543L531 714H475ZM273 -10Q144 -10 92 54T63 233L150 644H205L117 227Q96 129 136 84T284 38Q377 38 443 82T530 227L618 644H673L586
233Q561 115 484 53T273 -10Z" />
<glyph unicode="&#xdd;" glyph-name="Yacute" horiz-adv-x="624" d="M366 688L467 846H519L411 688H366ZM228 0L279 241L135 644H189L314 289L589 644H649L334 241L283 0H228Z" />
<glyph unicode="&#xde;" glyph-name="Thorn" horiz-adv-x="572" d="M19 0L155 644H210L184 519H385Q486 519 526 464T548 320Q528 228 464 175T296 122H99L74 0H19ZM109 167H301Q380 167 429 208T493 320Q504 370 498 404T461 456T371 474H174L109 167Z" />
<glyph unicode="&#xdf;" glyph-name="germandbls" horiz-adv-x="621" d="M309 -10Q269 -10 234 -5T170 12L180 60Q208 47 241 42T313 37Q384 37 431 77T494 191Q508 256 483 295T372 335H285L294 379H385Q453 379 490 418T538 512Q547 553 539 584T495 634T387
652Q207 652 169 474L69 0H14L115 478Q137 581 209 640T397 700Q477 700 523 675T586 608T590 512Q578 456 546 414T470 355Q520 341 541 298T549 189Q528 95 467 43T309 -10Z" />
<glyph unicode="&#xe0;" glyph-name="agrave" horiz-adv-x="575" d="M339 522L299 680H351L384 522H339ZM224 -10Q162 -10 119 12T59 86T61 221Q80 307 121 365T218 454T339 484Q389 484 422 473T486 434L494 474H549L449 0H403L409 53Q368 21 324 6T224 -10ZM247
35Q294 35 335 50T415 99L476 386Q453 410 424 424T346 438Q258 438 198 383T115 221Q94 120 124 78T247 35Z" />
<glyph unicode="&#xe1;" glyph-name="aacute" horiz-adv-x="575" d="M323 522L424 680H476L368 522H323ZM224 -10Q162 -10 119 12T59 86T61 221Q80 307 121 365T218 454T339 484Q389 484 422 473T486 434L494 474H549L449 0H403L409 53Q368 21 324 6T224 -10ZM247
35Q294 35 335 50T415 99L476 386Q453 410 424 424T346 438Q258 438 198 383T115 221Q94 120 124 78T247 35Z" />
<glyph unicode="&#xe2;" glyph-name="acircumflex" horiz-adv-x="575" d="M220 521L353 656H401L477 521H429L372 624L271 521H220ZM224 -10Q162 -10 119 12T59 86T61 221Q80 307 121 365T218 454T339 484Q389 484 422 473T486 434L494 474H549L449 0H403L409
53Q368 21 324 6T224 -10ZM247 35Q294 35 335 50T415 99L476 386Q453 410 424 424T346 438Q258 438 198 383T115 221Q94 120 124 78T247 35Z" />
<glyph unicode="&#xe3;" glyph-name="atilde" horiz-adv-x="575" d="M425 547Q401 547 380 556T340 575T300 584Q278 584 256 577T214 549L224 596Q238 610 262 617T308 625Q334 625 353 616T390 598T432 588Q480 588 512 623L502 576Q476 547 425 547ZM224 -10Q162
-10 119 12T59 86T61 221Q80 307 121 365T218 454T339 484Q389 484 422 473T486 434L494 474H549L449 0H403L409 53Q368 21 324 6T224 -10ZM247 35Q294 35 335 50T415 99L476 386Q453 410 424 424T346 438Q258 438 198 383T115 221Q94 120 124 78T247 35Z" />
<glyph unicode="&#xe4;" glyph-name="adieresis" horiz-adv-x="575" d="M247 548L258 603H315L303 548H247ZM413 548L425 603H481L469 548H413ZM224 -10Q162 -10 119 12T59 86T61 221Q80 307 121 365T218 454T339 484Q389 484 422 473T486 434L494 474H549L449
0H403L409 53Q368 21 324 6T224 -10ZM247 35Q294 35 335 50T415 99L476 386Q453 410 424 424T346 438Q258 438 198 383T115 221Q94 120 124 78T247 35Z" />
<glyph unicode="&#xe5;" glyph-name="aring" horiz-adv-x="575" d="M354 521Q310 521 287 550T273 622Q282 665 315 694T397 724Q442 724 464 695T478 622Q469 580 436 551T354 521ZM361 557Q390 557 412 575T441 622Q447 651 435 669T389 688Q361 688 338 670T309
622Q303 594 315 576T361 557ZM224 -10Q162 -10 119 12T59 86T61 221Q80 307 121 365T218 454T339 484Q389 484 422 473T486 434L494 474H549L449 0H403L409 53Q368 21 324 6T224 -10ZM247 35Q294 35 335 50T415 99L476 386Q453 410 424 424T346 438Q258 438 198
383T115 221Q94 120 124 78T247 35Z" />
<glyph unicode="&#xe6;" glyph-name="ae" horiz-adv-x="879" d="M177 -10Q132 -10 98 4T47 48T41 126Q55 189 103 228T247 268H424L431 301Q445 366 421 401T314 437Q272 437 232 430T156 411L166 458Q199 470 242 477T332 484Q467 484 482 393Q516 437 567 460T687
484Q755 484 794 459T845 390T846 294L828 208H467Q456 145 466 107T515 52T631 35Q696 35 765 60L756 15Q687 -10 611 -10Q527 -10 480 15T418 94Q382 48 322 19T177 -10ZM476 251H786L795 296Q809 362 787 400T679 438Q585 438 541 392T476 251ZM201 36Q340 36
396 136L415 224H240Q170 224 138 199T95 126Q85 77 114 57T201 36Z" />
<glyph unicode="&#xe7;" glyph-name="ccedilla" horiz-adv-x="450" d="M146 -240Q130 -240 112 -238T82 -232L90 -195Q117 -203 151 -203Q201 -203 228 -189T263 -139Q270 -107 250 -96T184 -84H151L192 -8Q95 3 60 66T48 237Q74 362 152 423T343 484Q389 484
415 478T467 458L457 413Q410 438 343 438Q251 438 188 390T102 237Q80 134 111 85T253 35Q285 35 319 42T383 61L374 15Q343 3 308 -3T234 -10L212 -51Q324 -51 306 -139Q296 -188 258 -214T146 -240Z" />
<glyph unicode="&#xe8;" glyph-name="egrave" horiz-adv-x="525" d="M301 522L261 680H313L346 522H301ZM240 -10Q112 -10 67 50T49 240Q73 354 138 419T319 484Q388 484 426 459T475 390T475 294L457 208H97Q86 146 96 108T146 52T261 35Q327 35 394 60L385 15Q318
-10 240 -10ZM106 251H416L425 296Q435 340 429 372T395 421T311 438Q217 438 171 390T106 251Z" />
<glyph unicode="&#xe9;" glyph-name="eacute" horiz-adv-x="525" d="M293 522L394 680H446L338 522H293ZM240 -10Q112 -10 67 50T49 240Q73 354 138 419T319 484Q388 484 426 459T475 390T475 294L457 208H97Q86 146 96 108T146 52T261 35Q327 35 394 60L385 15Q318
-10 240 -10ZM106 251H416L425 296Q435 340 429 372T395 421T311 438Q217 438 171 390T106 251Z" />
<glyph unicode="&#xea;" glyph-name="ecircumflex" horiz-adv-x="525" d="M193 521L326 656H374L450 521H402L345 624L244 521H193ZM240 -10Q112 -10 67 50T49 240Q73 354 138 419T319 484Q388 484 426 459T475 390T475 294L457 208H97Q86 146 96 108T146 52T261
35Q327 35 394 60L385 15Q318 -10 240 -10ZM106 251H416L425 296Q435 340 429 372T395 421T311 438Q217 438 171 390T106 251Z" />
<glyph unicode="&#xeb;" glyph-name="edieresis" horiz-adv-x="525" d="M214 548L225 603H282L270 548H214ZM380 548L392 603H448L436 548H380ZM240 -10Q112 -10 67 50T49 240Q73 354 138 419T319 484Q388 484 426 459T475 390T475 294L457 208H97Q86 146 96 108T146
52T261 35Q327 35 394 60L385 15Q318 -10 240 -10ZM106 251H416L425 296Q435 340 429 372T395 421T311 438Q217 438 171 390T106 251Z" />
<glyph unicode="&#xec;" glyph-name="igrave" horiz-adv-x="271" d="M200 522L160 680H212L245 522H200ZM84 0L174 428H99L113 474H239L139 0H84Z" />
<glyph unicode="&#xed;" glyph-name="iacute" horiz-adv-x="271" d="M188 522L289 680H341L233 522H188ZM84 0L174 428H99L113 474H239L139 0H84Z" />
<glyph unicode="&#xee;" glyph-name="icircumflex" horiz-adv-x="269" d="M73 521L206 656H254L330 521H282L225 624L124 521H73ZM80 0L170 428H95L109 474H235L135 0H80Z" />
<glyph unicode="&#xef;" glyph-name="idieresis" horiz-adv-x="270" d="M91 548L102 603H159L147 548H91ZM257 548L269 603H325L313 548H257ZM94 0L184 428H109L123 474H249L149 0H94Z" />
<glyph unicode="&#xf0;" glyph-name="eth" horiz-adv-x="570" d="M220 -10Q108 -10 64 45T39 195Q60 294 124 347T301 400Q342 400 386 386T468 339L479 395Q489 445 491 483T484 548L331 487L339 526L467 577Q451 594 424 602T356 611Q313 611 277 606T211 590L220
634Q250 642 288 648T371 654Q421 654 456 639T512 595L618 638L610 599L528 566Q555 500 532 391L498 231Q470 104 402 47T220 -10ZM230 33Q403 33 440 208L458 296Q428 322 387 339T300 357Q203 357 154 313T89 195Q73 120 104 77T230 33Z" />
<glyph unicode="&#xf1;" glyph-name="ntilde" horiz-adv-x="560" d="M418 547Q394 547 373 556T333 575T293 584Q271 584 249 577T207 549L217 596Q231 610 255 617T301 625Q327 625 346 616T383 598T425 588Q473 588 505 623L495 576Q469 547 418 547ZM19 0L119
474H167L160 416Q202 446 252 465T366 484Q449 484 483 443T499 313L433 0H378L444 312Q454 359 450 386T421 426T344 438Q292 438 241 419T152 369L74 0H19Z" />
<glyph unicode="&#xf2;" glyph-name="ograve" horiz-adv-x="563" d="M320 522L280 680H332L365 522H320ZM221 -10Q101 -10 62 53T48 237Q74 357 138 420T326 484Q445 484 486 421T501 237Q476 116 412 53T221 -10ZM231 37Q326 37 375 86T446 237Q468 338 442 387T316
436Q222 436 173 387T102 237Q88 169 93 125T132 59T231 37Z" />
<glyph unicode="&#xf3;" glyph-name="oacute" horiz-adv-x="563" d="M315 522L416 680H468L360 522H315ZM221 -10Q101 -10 62 53T48 237Q74 357 138 420T326 484Q445 484 486 421T501 237Q476 116 412 53T221 -10ZM231 37Q326 37 375 86T446 237Q468 338 442 387T316
436Q222 436 173 387T102 237Q88 169 93 125T132 59T231 37Z" />
<glyph unicode="&#xf4;" glyph-name="ocircumflex" horiz-adv-x="563" d="M206 521L339 656H387L463 521H415L358 624L257 521H206ZM221 -10Q101 -10 62 53T48 237Q74 357 138 420T326 484Q445 484 486 421T501 237Q476 116 412 53T221 -10ZM231 37Q326 37 375
86T446 237Q468 338 442 387T316 436Q222 436 173 387T102 237Q88 169 93 125T132 59T231 37Z" />
<glyph unicode="&#xf5;" glyph-name="otilde" horiz-adv-x="563" d="M411 549Q387 549 366 558T326 577T286 586Q264 586 242 579T200 551L210 598Q224 612 248 619T294 627Q320 627 339 618T376 600T418 590Q466 590 498 625L488 578Q462 549 411 549ZM221 -10Q101
-10 62 53T48 237Q74 357 138 420T326 484Q445 484 486 421T501 237Q476 116 412 53T221 -10ZM231 37Q326 37 375 86T446 237Q468 338 442 387T316 436Q222 436 173 387T102 237Q88 169 93 125T132 59T231 37Z" />
<glyph unicode="&#xf6;" glyph-name="odieresis" horiz-adv-x="563" d="M229 548L240 603H297L285 548H229ZM395 548L407 603H463L451 548H395ZM221 -10Q101 -10 62 53T48 237Q74 357 138 420T326 484Q445 484 486 421T501 237Q476 116 412 53T221 -10ZM231 37Q326
37 375 86T446 237Q468 338 442 387T316 436Q222 436 173 387T102 237Q88 169 93 125T132 59T231 37Z" />
<glyph unicode="&#xf7;" glyph-name="divide" horiz-adv-x="481" d="M255 388L266 442H320L309 388H255ZM64 235L74 280H445L435 235H64ZM189 79L201 133H255L243 79H189Z" />
<glyph unicode="&#xf8;" glyph-name="oslash" horiz-adv-x="563" d="M89 -54L123 5Q62 29 46 87T48 237Q74 357 138 420T326 484Q365 484 393 477L422 528H471L434 463Q488 438 503 381T501 237Q476 116 412 53T221 -10Q206 -10 192 -9T165 -6L138 -54H89ZM148
50L367 432Q356 434 343 435T316 436Q222 436 173 387T102 237Q86 161 94 115T148 50ZM231 37Q326 37 375 86T446 237Q461 308 454 353T408 418L191 39Q200 38 210 38T231 37Z" />
<glyph unicode="&#xf9;" glyph-name="ugrave" horiz-adv-x="560" d="M316 522L276 680H328L361 522H316ZM184 -10Q102 -10 67 38T50 174L114 474H169L105 172Q89 99 115 67T217 35Q267 35 312 54T395 104L473 474H528L428 0H379L386 58Q344 27 295 9T184 -10Z" />
<glyph unicode="&#xfa;" glyph-name="uacute" horiz-adv-x="560" d="M297 522L398 680H450L342 522H297ZM184 -10Q102 -10 67 38T50 174L114 474H169L105 172Q89 99 115 67T217 35Q267 35 312 54T395 104L473 474H528L428 0H379L386 58Q344 27 295 9T184 -10Z" />
<glyph unicode="&#xfb;" glyph-name="ucircumflex" horiz-adv-x="560" d="M202 521L335 656H383L459 521H411L354 624L253 521H202ZM184 -10Q102 -10 67 38T50 174L114 474H169L105 172Q89 99 115 67T217 35Q267 35 312 54T395 104L473 474H528L428 0H379L386
58Q344 27 295 9T184 -10Z" />
<glyph unicode="&#xfc;" glyph-name="udieresis" horiz-adv-x="560" d="M222 546L233 601H290L278 546H222ZM388 546L400 601H456L444 546H388ZM184 -10Q102 -10 67 38T50 174L114 474H169L105 172Q89 99 115 67T217 35Q267 35 312 54T395 104L473 474H528L428
0H379L386 58Q344 27 295 9T184 -10Z" />
<glyph unicode="&#xfd;" glyph-name="yacute" horiz-adv-x="566" d="M329 522L430 680H482L374 522H329ZM177 -176Q152 -176 118 -173T65 -166L75 -118Q96 -125 127 -127T177 -130Q255 -130 314 -100T388 -8L402 58Q360 27 311 9T200 -10Q118 -10 83 38T66 174L130
474H185L121 172Q105 99 130 67T233 35Q283 35 328 54T411 104L489 474H544L443 -3Q432 -56 393 -95T297 -155T177 -176Z" />
<glyph unicode="&#xfe;" glyph-name="thorn" horiz-adv-x="564" d="M-27 -216L167 700H222L164 428Q205 457 248 470T343 484Q407 484 449 459T506 379T503 238Q476 109 405 50T234 -10Q184 -10 148 2T82 39L28 -216H-27ZM230 35Q319 35 373 83T449 238Q471 339
444 388T321 438Q275 438 233 423T153 374L92 88Q115 64 148 50T230 35Z" />
<glyph unicode="&#xff;" glyph-name="ydieresis" horiz-adv-x="566" d="M261 551L272 606H329L317 551H261ZM427 551L439 606H495L483 551H427ZM177 -176Q152 -176 118 -173T65 -166L75 -118Q96 -125 127 -127T177 -130Q255 -130 314 -100T388 -8L402 58Q360 27
311 9T200 -10Q118 -10 83 38T66 174L130 474H185L121 172Q105 99 130 67T233 35Q283 35 328 54T411 104L489 474H544L443 -3Q432 -56 393 -95T297 -155T177 -176Z" />
<glyph unicode="&#x2013;" glyph-name="endash" horiz-adv-x="591" d="M64 235L74 280H555L545 235H64Z" />
<glyph unicode="&#x2014;" glyph-name="emdash" horiz-adv-x="893" d="M64 235L74 280H857L847 235H64Z" />
<glyph unicode="&#x2018;" glyph-name="quoteleft" horiz-adv-x="210" d="M117 483L212 654H254L171 483H117Z" />
<glyph unicode="&#x2019;" glyph-name="quoteright" horiz-adv-x="210" d="M117 483L200 654H254L159 483H117Z" />
<glyph unicode="&#x201a;" glyph-name="quotesinglbase" horiz-adv-x="210" d="M-15 -138L68 33H122L27 -138H-15Z" />
<glyph unicode="&#x201c;" glyph-name="quotedblleft" horiz-adv-x="333" d="M243 483L338 654H377L294 483H243ZM117 483L212 654H251L168 483H117Z" />
<glyph unicode="&#x201d;" glyph-name="quotedblright" horiz-adv-x="333" d="M243 483L326 654H377L282 483H243ZM117 483L200 654H251L156 483H117Z" />
<glyph unicode="&#x201e;" glyph-name="quotedblbase" horiz-adv-x="333" d="M114 -123L197 48H248L153 -123H114ZM-12 -123L71 48H122L27 -123H-12Z" />
<glyph unicode="&#x2022;" glyph-name="bullet" horiz-adv-x="341" d="M166 172Q118 172 92 205T76 287Q83 319 103 345T153 387T215 403Q263 403 290 369T307 287Q300 254 279 228T228 187T166 172Z" />
<glyph unicode="&#x2039;" glyph-name="guilsinglleft" horiz-adv-x="383" d="M283 87L72 271L79 303L368 487L384 450L127 284L313 118L283 87Z" />
<glyph unicode="&#x203a;" glyph-name="guilsinglright" horiz-adv-x="383" d="M56 87L40 124L298 290L111 456L141 487L352 303L345 271L56 87Z" />
</font>
</defs>
</svg>
