<?xml version="1.0" standalone="no"?>
<!DOCTYPE svg PUBLIC "-//W3C//DTD SVG 1.1//EN" "http://www.w3.org/Graphics/SVG/1.1/DTD/svg11.dtd">
<svg xmlns="http://www.w3.org/2000/svg">
<defs >
<font id="Kanit" horiz-adv-x="551" ><font-face
    font-family="Kanit Light"
    units-per-em="1000"
    panose-1="0 0 0 0 0 0 0 0 0 0"
    ascent="1100"
    descent="-395"
    alphabetic="0" />
<glyph unicode=" " glyph-name="space" horiz-adv-x="230" />
<glyph unicode="!" glyph-name="exclam" horiz-adv-x="190" d="M60 154L54 487V644H136V487L130 154H60ZM50 0V65H140V0H50Z" />
<glyph unicode="&quot;" glyph-name="quotedbl" horiz-adv-x="321" d="M197 467V644H271L258 467H197ZM50 467V644H124L111 467H50Z" />
<glyph unicode="#" glyph-name="numbersign" horiz-adv-x="700" d="M84 0L140 180H50V237H158L211 406H97V464H229L286 644H358L301 464H489L546 644H619L562 464H650V406H544L490 237H603V180H472L416 0H344L400 180H211L155 0H84ZM229 237H418L471 406H283L229 237Z" />
<glyph unicode="$" glyph-name="dollar" horiz-adv-x="556" d="M247 -86V-10Q134 -8 65 20V93Q106 77 152 69T247 60V297Q243 297 242 298Q136 324 93 365T50 477Q50 551 98 597T247 652V730H311V653Q360 652 401 645T467 629V557Q433 569 393 576T311 584V356Q386
337 428 311T488 249T506 168Q506 92 457 47T311 -7V-86H247ZM247 372V581Q191 574 162 549T132 477Q132 435 157 413T247 372ZM311 63Q367 70 395 94T424 168Q424 213 399 237T311 280V63Z" />
<glyph unicode="%" glyph-name="percent" horiz-adv-x="713" d="M188 365Q118 365 84 403T50 503Q50 573 84 613T188 654Q257 654 291 614T325 503Q325 442 291 404T188 365ZM146 0L488 644H565L223 0H146ZM188 420Q232 420 250 442T268 504Q268 554 249 576T188
598Q146 598 127 576T108 504Q108 464 126 442T188 420ZM526 -10Q456 -10 422 28T388 128Q388 198 422 238T526 279Q595 279 629 239T663 128Q663 67 629 29T526 -10ZM526 45Q570 45 588 67T606 129Q606 179 587 201T526 223Q484 223 465 201T446 129Q446 89 464
67T526 45Z" />
<glyph unicode="&amp;" glyph-name="ampersand" horiz-adv-x="660" d="M270 -10Q170 -10 110 34T50 152Q50 220 92 269T207 356Q168 395 141 429T114 511Q114 571 155 612T273 654Q347 654 388 615T429 511Q429 457 400 420T317 345L483 176Q500 213 500 270V284H565V270Q565
231 556 194T530 130L620 39L570 -6L490 73Q455 30 399 10T270 -10ZM266 385Q313 414 337 440T361 508Q361 546 341 568T273 591Q225 591 204 567T182 508Q182 476 204 449T266 385ZM270 49Q328 49 369 66T440 119L257 306Q192 276 161 242T129 154Q129 102 169
76T270 49Z" />
<glyph unicode="&apos;" glyph-name="quotesingle" horiz-adv-x="174" d="M50 467V644H124L111 467H50Z" />
<glyph unicode="(" glyph-name="parenleft" horiz-adv-x="310" d="M187 -72Q136 -28 106 34T63 166T50 303Q50 369 63 439T106 571T187 678H280Q201 611 167 515T132 303Q132 186 166 91T280 -72H187Z" />
<glyph unicode=")" glyph-name="parenright" horiz-adv-x="310" d="M30 -72Q110 -4 144 91T178 303Q178 419 144 515T30 678H124Q175 634 205 572T247 439T260 303Q260 237 248 167T205 34T124 -72H30Z" />
<glyph unicode="*" glyph-name="asterisk" horiz-adv-x="428" d="M128 335L78 372L170 475L50 524L76 578L186 525L182 644H247L243 525L352 578L378 524L257 475L350 372L300 335L214 447L128 335Z" />
<glyph unicode="+" glyph-name="plus" horiz-adv-x="477" d="M205 88V236H50V301H205V455H272V301H427V236H272V88H205Z" />
<glyph unicode="," glyph-name="comma" horiz-adv-x="202" d="M50 -120L78 57H152L110 -120H50Z" />
<glyph unicode="-" glyph-name="hyphen" horiz-adv-x="477" d="M50 236V301H427V236H50Z" />
<glyph unicode="." glyph-name="period" horiz-adv-x="174" d="M50 0V69H124V0H50Z" />
<glyph unicode="/" glyph-name="slash" horiz-adv-x="417" d="M50 0L284 662H367L133 0H50Z" />
<glyph unicode="0" glyph-name="zero" horiz-adv-x="647" d="M324 -10Q227 -10 167 29T78 141T50 314Q50 422 76 498T162 614T324 654Q425 654 485 614T571 498T597 314Q597 214 570 141T482 29T324 -10ZM324 60Q395 60 436 91T496 180T515 314Q515 445 474 514T324
584Q252 584 210 553T150 462T132 314Q132 238 150 181T211 92T324 60Z" />
<glyph unicode="1" glyph-name="one" horiz-adv-x="304" d="M152 0V574L50 556V625L234 654V0H152Z" />
<glyph unicode="2" glyph-name="two" horiz-adv-x="506" d="M50 0V44Q76 107 124 159T227 257Q282 303 312 334T355 395T367 465Q367 523 337 553T225 584Q188 584 149 577T75 555V628Q107 639 152 646T238 654Q342 654 395 604T449 465Q449 417 432 381T385 312T315
243Q266 200 222 159T151 64H456V0H50Z" />
<glyph unicode="3" glyph-name="three" horiz-adv-x="514" d="M223 -10Q179 -10 129 -2T50 17V89Q88 74 129 67T213 60Q299 60 340 86T382 177Q382 239 343 267T234 295H141L149 357H226Q298 357 333 388T368 477Q368 532 332 558T215 584Q175 584 135 576T62
555V626Q90 637 135 645T226 654Q341 654 395 605T450 478Q450 429 425 387T343 327Q407 313 435 272T464 177Q464 83 399 37T223 -10Z" />
<glyph unicode="4" glyph-name="four" horiz-adv-x="541" d="M361 0V148H30V210L370 644H443V215H511V148H443V0H361ZM112 213H372V546L112 213Z" />
<glyph unicode="5" glyph-name="five" horiz-adv-x="512" d="M224 -10Q180 -10 132 -3T53 17V90Q127 60 215 60Q301 60 340 92T380 192Q380 256 351 288T236 320H50V377L67 644H416L408 580H136L123 385H244Q357 385 409 337T462 192Q462 98 402 44T224 -10Z" />
<glyph unicode="6" glyph-name="six" horiz-adv-x="569" d="M285 -10Q170 -10 110 48T50 235V387Q50 467 81 527T171 620T310 654Q357 654 393 649T458 633V562Q429 573 394 578T314 584Q217 584 173 535T128 402V353Q167 382 214 395T301 409Q411 409 465 356T519
201Q519 107 462 49T285 -10ZM285 55Q365 55 405 93T445 199Q445 245 432 277T386 327T294 345Q245 345 203 330T128 290V212Q128 55 285 55Z" />
<glyph unicode="7" glyph-name="seven" horiz-adv-x="498" d="M127 0L372 580H40V644H458V587L210 0H127Z" />
<glyph unicode="8" glyph-name="eight" horiz-adv-x="584" d="M292 -10Q174 -10 112 35T50 170Q50 228 81 272T174 333Q118 351 93 389T68 474Q68 556 124 605T292 654Q408 654 462 605T516 474Q516 426 492 385T405 323Q473 306 503 268T534 170Q534 81 473 36T292
-10ZM320 349Q382 364 412 391T442 473Q442 530 404 559T292 589Q220 589 181 561T142 474Q142 431 169 403T244 364L320 349ZM292 55Q460 55 460 171Q460 224 429 248T338 285L251 303Q193 291 159 262T124 172Q124 112 167 84T292 55Z" />
<glyph unicode="9" glyph-name="nine" horiz-adv-x="569" d="M259 -10Q213 -10 177 -5T111 11V82Q140 72 175 66T255 60Q353 60 397 110T441 242V291Q402 263 355 249T268 235Q158 235 104 289T50 443Q50 538 108 596T284 654Q400 654 459 596T519 409V257Q519
177 488 117T398 24T259 -10ZM275 299Q324 299 366 314T441 354V432Q441 589 284 589Q204 589 164 551T124 445Q124 400 137 367T183 317T275 299Z" />
<glyph unicode=":" glyph-name="colon" horiz-adv-x="173" d="M50 329V398H123V329H50ZM50 28V97H123V28H50Z" />
<glyph unicode=";" glyph-name="semicolon" horiz-adv-x="202" d="M80 329V398H152V329H80ZM50 -103L78 74H152L110 -103H50Z" />
<glyph unicode="&lt;" glyph-name="less" horiz-adv-x="547" d="M497 56L50 262V329L497 535V458L136 296L497 133V56Z" />
<glyph unicode="=" glyph-name="equal" horiz-adv-x="482" d="M50 311V370H432V311H50ZM50 168V228H432V168H50Z" />
<glyph unicode="&gt;" glyph-name="greater" horiz-adv-x="547" d="M50 56V133L412 296L50 458V535L497 329V262L50 56Z" />
<glyph unicode="?" glyph-name="question" horiz-adv-x="493" d="M166 155V178Q166 223 186 255T235 311T293 360Q321 384 341 410T361 474Q361 532 329 558T210 584Q166 584 124 574T50 548V618Q82 635 128 644T229 654Q336 654 389 607T443 475Q443 420 416
386T343 313Q314 289 293 270T260 230T248 174V155H166ZM162 0V65H252V0H162Z" />
<glyph unicode="@" glyph-name="at" horiz-adv-x="768" d="M391 -132Q319 -132 257 -116T149 -62T76 37T50 188Q50 363 142 444T403 525Q559 525 638 455T718 252Q718 156 676 97T541 38H524Q497 11 458 -4T363 -20Q296 -20 255 14T214 106Q214 142 229 173T277
223T365 242H492V262Q492 297 483 316T451 342T385 350Q355 350 323 345T262 330V384Q288 395 324 400T400 406Q478 406 516 372T554 263V97Q606 97 627 135T649 252Q649 359 591 409T403 459Q260 459 190 398T119 187Q119 87 154 32T251 -44T389 -66Q499 -66 562
-47V-114Q531 -121 487 -126T391 -132ZM370 34Q453 34 492 85V187H375Q317 187 298 165T278 105Q278 67 300 51T370 34Z" />
<glyph unicode="A" glyph-name="A" horiz-adv-x="685" d="M50 0L295 644H391L635 0H551L483 177H203L135 0H50ZM217 242H468L342 573L217 242Z" />
<glyph unicode="B" glyph-name="B" horiz-adv-x="627" d="M70 0V644H368Q463 644 507 600T552 474Q552 421 531 386T471 332Q520 320 548 286T577 184Q577 90 528 45T384 0H70ZM152 362H363Q424 362 449 391T475 468Q475 524 449 552T348 581H152V362ZM152 62H370Q435
62 465 90T495 187Q495 243 466 271T357 300H152V62Z" />
<glyph unicode="C" glyph-name="C" horiz-adv-x="595" d="M359 -10Q255 -10 187 29T84 140T50 308Q50 413 82 491T182 611T358 654Q414 654 459 646T545 624V552Q505 567 460 575T365 584Q278 584 227 551T154 456T132 308Q132 189 188 125T367 60Q412 60 458
67T545 89V16Q506 4 461 -3T359 -10Z" />
<glyph unicode="D" glyph-name="D" horiz-adv-x="642" d="M70 0V644H322Q462 644 527 568T592 318Q592 153 529 77T322 0H70ZM152 64H307Q375 64 420 84T487 160T510 318Q510 420 490 477T425 556T307 579H152V64Z" />
<glyph unicode="E" glyph-name="E" horiz-adv-x="555" d="M70 0V644H505V579H152V354H469V290H152V64H505V0H70Z" />
<glyph unicode="F" glyph-name="F" horiz-adv-x="522" d="M70 0V644H492V579H152V354H455V290H152V0H70Z" />
<glyph unicode="G" glyph-name="G" horiz-adv-x="639" d="M359 -10Q255 -10 187 29T84 140T50 308Q50 413 82 491T182 611T358 654Q414 654 459 646T545 624V552Q505 567 460 575T365 584Q278 584 227 551T154 456T132 308Q132 189 187 125T364 60Q407 60 447
67T518 86V291H346V347H589V41Q560 22 505 6T359 -10Z" />
<glyph unicode="H" glyph-name="H" horiz-adv-x="644" d="M70 0V644H152V354H492V644H574V0H492V290H152V0H70Z" />
<glyph unicode="I" glyph-name="I" horiz-adv-x="222" d="M70 0V644H152V0H70Z" />
<glyph unicode="J" glyph-name="J" horiz-adv-x="427" d="M165 -10Q125 -10 91 -4T30 13V83Q54 73 88 66T155 59Q226 59 253 89T280 183V644H362V177Q362 89 314 40T165 -10Z" />
<glyph unicode="K" glyph-name="K" horiz-adv-x="607" d="M70 0V644H152V325L453 644H549L309 386L557 0H469L257 333L152 222V0H70Z" />
<glyph unicode="L" glyph-name="L" horiz-adv-x="525" d="M70 0V644H152V64H495V0H70Z" />
<glyph unicode="M" glyph-name="M" horiz-adv-x="752" d="M70 0V644H158L376 197L594 644H682V0H601V516L404 112H349L151 516V0H70Z" />
<glyph unicode="N" glyph-name="N" horiz-adv-x="663" d="M70 0V644H144L511 126V644H593V0H518L152 517V0H70Z" />
<glyph unicode="O" glyph-name="O" horiz-adv-x="694" d="M347 -10Q196 -10 123 69T50 322Q50 495 123 574T347 654Q499 654 571 575T644 322Q644 149 572 70T347 -10ZM347 60Q420 60 467 85T538 167T562 322Q562 419 539 476T468 559T347 584Q274 584 227 559T156
477T132 322Q132 225 155 168T226 85T347 60Z" />
<glyph unicode="P" glyph-name="P" horiz-adv-x="582" d="M70 0V644H342Q450 644 501 586T552 436Q552 342 495 288T338 233H152V0H70ZM152 297H325Q397 297 433 334T470 436Q470 504 436 541T330 579H152V297Z" />
<glyph unicode="Q" glyph-name="Q" horiz-adv-x="694" d="M441 -172Q370 -172 338 -129T303 -8Q175 3 113 82T50 322Q50 495 123 574T347 654Q499 654 571 575T644 322Q644 159 580 80T383 -9Q384 -61 399 -81T457 -102Q493 -102 528 -92V-161Q512 -165 488 -168T441
-172ZM347 60Q420 60 467 85T538 167T562 322Q562 419 539 476T468 559T347 584Q274 584 227 559T156 477T132 322Q132 225 155 168T226 85T347 60Z" />
<glyph unicode="R" glyph-name="R" horiz-adv-x="602" d="M70 0V644H353Q457 644 504 590T552 444Q552 373 518 326T415 263Q435 251 445 236T467 194L551 0H467L385 187Q372 217 354 230T288 243H152V0H70ZM152 307H330Q395 307 432 339T470 444Q470 579 341
579H152V307Z" />
<glyph unicode="S" glyph-name="S" horiz-adv-x="556" d="M259 -10Q139 -10 65 20V93Q107 77 154 69T252 60Q338 60 381 83T424 168Q424 206 407 228T349 266T242 298Q136 324 93 365T50 477Q50 559 109 606T289 654Q345 654 393 646T467 629V557Q431 570 389
577T302 584Q220 584 176 560T132 477Q132 444 147 424T200 389T303 358Q382 339 426 313T488 250T506 168Q506 83 444 37T259 -10Z" />
<glyph unicode="T" glyph-name="T" horiz-adv-x="570" d="M244 0V579H30V644H540V579H326V0H244Z" />
<glyph unicode="U" glyph-name="U" horiz-adv-x="671" d="M336 -10Q204 -10 135 53T65 236V644H147V235Q147 147 196 104T336 60Q425 60 474 103T524 235V644H606V236Q606 116 537 53T336 -10Z" />
<glyph unicode="V" glyph-name="V" horiz-adv-x="685" d="M295 0L50 644H135L342 83L550 644H635L391 0H295Z" />
<glyph unicode="W" glyph-name="W" horiz-adv-x="861" d="M200 0L50 644H131L252 114L391 573V644H458L608 114L731 644H811L662 0H575L435 490L288 0H200Z" />
<glyph unicode="X" glyph-name="X" horiz-adv-x="652" d="M50 0L277 320L53 644H147L326 381L505 644H599L375 320L602 0H507L326 257L145 0H50Z" />
<glyph unicode="Y" glyph-name="Y" horiz-adv-x="642" d="M280 0V240L50 644H135L321 310L507 644H592L362 240V0H280Z" />
<glyph unicode="Z" glyph-name="Z" horiz-adv-x="572" d="M50 0V46L418 579H67V644H522V593L157 64H527V0H50Z" />
<glyph unicode="[" glyph-name="bracketleft" horiz-adv-x="344" d="M50 -99V706H301L304 641H132V-35H304L301 -99H50Z" />
<glyph unicode="\" glyph-name="backslash" horiz-adv-x="436" d="M303 -54L50 662H134L386 -54H303Z" />
<glyph unicode="]" glyph-name="bracketright" horiz-adv-x="344" d="M43 -99L40 -35H212V641H40L43 706H294V-99H43Z" />
<glyph unicode="^" glyph-name="asciicircum" horiz-adv-x="459" d="M50 392L197 624H260L409 392H332L230 564L128 392H50Z" />
<glyph unicode="_" glyph-name="underscore" horiz-adv-x="549" d="M50 -64V0H499V-64H50Z" />
<glyph unicode="`" glyph-name="grave" horiz-adv-x="245" d="M129 522L50 690H124L195 522H129Z" />
<glyph unicode="a" glyph-name="a" horiz-adv-x="541" d="M217 -10Q172 -10 134 6T73 53T50 133Q50 198 93 239T233 281H398V310Q398 349 388 372T348 405T263 415Q220 415 180 408T105 389V457Q137 469 180 476T274 484Q375 484 425 443T476 310V0H407L401 54Q370
22 326 6T217 -10ZM238 57Q290 57 330 75T398 126V218H235Q179 218 155 197T131 133Q131 90 160 74T238 57Z" />
<glyph unicode="b" glyph-name="b" horiz-adv-x="575" d="M311 -10Q258 -10 219 4T146 50L140 0H70V674H152V439Q217 484 310 484Q411 484 468 427T525 241Q525 112 468 51T311 -10ZM290 56Q373 56 408 102T443 241Q443 338 406 378T288 418Q245 418 211 406T152
371V113Q179 84 214 70T290 56Z" />
<glyph unicode="c" glyph-name="c" horiz-adv-x="462" d="M294 -10Q170 -10 110 54T50 237Q50 362 118 423T301 484Q348 484 379 478T439 457V392Q385 418 316 418Q228 418 180 377T132 237Q132 143 174 100T313 56Q382 56 440 82V16Q409 3 374 -3T294 -10Z" />
<glyph unicode="d" glyph-name="d" horiz-adv-x="575" d="M264 -10Q164 -10 107 45T50 230Q50 358 109 421T269 484Q358 484 423 439V674H505V0H435L429 50Q396 19 357 5T264 -10ZM285 56Q326 56 361 70T423 113V371Q398 393 364 405T287 418Q208 418 170 373T132
230Q132 137 167 97T285 56Z" />
<glyph unicode="e" glyph-name="e" horiz-adv-x="533" d="M303 -10Q176 -10 113 51T50 239Q50 353 104 418T277 484Q347 484 392 459T460 389T483 288V199H132Q136 145 155 114T214 70T319 56Q392 56 453 81V17Q422 4 384 -3T303 -10ZM132 258H410V297Q410 355
380 386T279 418Q194 418 163 378T132 258Z" />
<glyph unicode="f" glyph-name="f" horiz-adv-x="354" d="M101 0V409H30V474H101V543Q101 611 138 650T249 690Q275 690 296 686T336 675V613Q305 624 270 624Q219 624 201 606T183 543V474H311L307 409H183V0H101Z" />
<glyph unicode="g" glyph-name="g" horiz-adv-x="547" d="M254 -176Q201 -176 151 -170T64 -151V-83Q104 -96 154 -103T250 -110Q325 -110 360 -101T395 -55Q395 -29 377 -18T311 -7H185Q54 -7 54 81Q54 110 72 136T128 174Q88 194 69 229T50 314Q50 403 101 443T259
484Q281 484 304 481T341 474H512L509 418H423Q446 399 456 373T466 314Q466 235 420 192T279 148Q263 148 251 149T221 153Q190 152 163 136T136 93Q136 76 149 68T199 60H330Q401 60 439 32T477 -52Q477 -122 419 -149T254 -176ZM259 210Q330 210 357 233T384
314Q384 372 356 398T259 424Q192 424 162 399T132 314Q132 259 160 235T259 210Z" />
<glyph unicode="h" glyph-name="h" horiz-adv-x="570" d="M70 0V674H152V423Q185 450 229 467T333 484Q419 484 462 442T505 310V0H423V307Q423 369 396 393T305 418Q265 418 223 401T152 355V0H70Z" />
<glyph unicode="i" glyph-name="i" horiz-adv-x="276" d="M115 585V660H206V585H115ZM123 0V409H50L58 474H205V0H123Z" />
<glyph unicode="j" glyph-name="j" horiz-adv-x="294" d="M133 585V660H224V585H133ZM79 -234Q29 -234 -10 -220V-155Q7 -160 22 -162T51 -165Q105 -165 123 -147T142 -87V409H69L77 474H224V-94Q224 -158 187 -196T79 -234Z" />
<glyph unicode="k" glyph-name="k" horiz-adv-x="515" d="M70 0V674H152V265L374 474H469L275 286L480 0H394L223 242L152 175V0H70Z" />
<glyph unicode="l" glyph-name="l" horiz-adv-x="263" d="M173 -10Q125 -10 98 15T70 102V674H152V111Q152 81 162 70T193 59Q216 59 238 65V0Q222 -6 206 -8T173 -10Z" />
<glyph unicode="m" glyph-name="m" horiz-adv-x="855" d="M70 0V474H144L149 420Q187 450 229 467T321 484Q374 484 403 467T447 419Q481 447 525 465T630 484Q711 484 750 443T790 315V0H709V307Q709 370 683 394T597 418Q558 418 523 405T462 365Q468 340 468
307V0H391V305Q391 365 371 391T292 418Q252 418 216 401T151 357V0H70Z" />
<glyph unicode="n" glyph-name="n" horiz-adv-x="570" d="M70 0V474H144L149 420Q183 448 228 466T333 484Q423 484 464 442T505 310V0H423V307Q423 369 398 393T302 418Q258 418 219 402T152 358V0H70Z" />
<glyph unicode="o" glyph-name="o" horiz-adv-x="574" d="M287 -10Q163 -10 107 53T50 237Q50 356 107 420T287 484Q410 484 467 420T524 237Q524 117 468 54T287 -10ZM287 60Q372 60 407 102T442 237Q442 329 407 371T287 414Q203 414 168 372T132 237Q132 145
167 103T287 60Z" />
<glyph unicode="p" glyph-name="p" horiz-adv-x="575" d="M70 -216V474H140L146 424Q179 455 218 469T311 484Q411 484 468 429T525 244Q525 116 468 53T310 -10Q217 -10 152 35V-216H70ZM288 56Q368 56 405 101T443 244Q443 337 408 377T290 418Q249 418 214
404T152 361V103Q177 81 211 69T288 56Z" />
<glyph unicode="q" glyph-name="q" horiz-adv-x="561" d="M538 -242Q482 -242 453 -212T423 -118V35Q358 -10 265 -10Q165 -10 108 43T50 224Q50 353 107 418T264 484Q317 484 356 470T429 424L435 474H505V-114Q505 -148 516 -160T558 -173Q567 -173 580 -171T601
-167V-232Q574 -242 538 -242ZM287 56Q330 56 364 68T423 103V361Q396 390 361 404T285 418Q202 418 167 368T132 224Q132 127 170 92T287 56Z" />
<glyph unicode="r" glyph-name="r" horiz-adv-x="346" d="M70 0V474H144L150 414Q185 437 232 456T326 484V420Q298 414 265 404T202 380T152 353V0H70Z" />
<glyph unicode="s" glyph-name="s" horiz-adv-x="457" d="M219 -10Q173 -10 132 -4T62 12V84Q96 72 133 66T208 60Q271 60 298 73T325 124Q325 151 311 165T267 190T191 216Q150 230 118 245T68 285T50 354Q50 417 94 450T236 484Q274 484 309 479T370 465V393Q307
414 249 414Q187 414 160 402T132 355Q132 332 144 319T183 296T252 272Q307 255 341 237T391 193T407 125Q407 55 358 23T219 -10Z" />
<glyph unicode="t" glyph-name="t" horiz-adv-x="353" d="M243 -10Q173 -10 138 27T102 132V409H30V474H102V591L184 616V474H315L310 409H184V136Q184 93 203 75T271 56Q297 56 328 66V4Q291 -10 243 -10Z" />
<glyph unicode="u" glyph-name="u" horiz-adv-x="570" d="M237 -10Q152 -10 109 37T65 174V474H147V171Q147 112 176 84T268 56Q312 56 351 72T418 116V474H500V0H426L421 54Q387 26 340 8T237 -10Z" />
<glyph unicode="v" glyph-name="v" horiz-adv-x="564" d="M236 0L50 474H135L282 76L429 474H514L328 0H236Z" />
<glyph unicode="w" glyph-name="w" horiz-adv-x="736" d="M174 0L50 474H132L225 93L331 419V474H394L511 93L604 474H686L562 0H480L369 344L256 0H174Z" />
<glyph unicode="x" glyph-name="x" horiz-adv-x="529" d="M40 0L220 241L46 474H135L264 297L394 474H482L310 241L489 0H400L264 185L129 0H40Z" />
<glyph unicode="y" glyph-name="y" horiz-adv-x="584" d="M159 -176Q112 -176 77 -163V-97Q94 -103 108 -105T138 -107Q172 -107 191 -95T226 -59T259 5L50 474H135L300 92L470 474H554L355 21Q330 -36 304 -80T244 -150T159 -176Z" />
<glyph unicode="z" glyph-name="z" horiz-adv-x="485" d="M50 0V45L329 409H63V474H428V423L153 64H435V0H50Z" />
<glyph unicode="{" glyph-name="braceleft" horiz-adv-x="296" d="M207 -104Q147 -104 122 -81T97 0V171Q97 217 85 241T30 271V325Q73 330 85 354T97 425V596Q97 653 122 676T207 700H256V635H222Q198 635 189 626T179 588V391Q179 363 166 336T121 298Q153 288
166 261T179 206V8Q179 -21 188 -30T222 -39H256V-104H207Z" />
<glyph unicode="|" glyph-name="bar" horiz-adv-x="182" d="M50 -120V735H132V-120H50Z" />
<glyph unicode="}" glyph-name="braceright" horiz-adv-x="296" d="M40 -104V-39H74Q98 -39 107 -30T117 8V206Q117 233 130 260T175 298Q143 309 130 336T117 391V588Q117 617 108 626T74 635H40V700H89Q149 700 174 677T199 596V425Q199 379 211 355T266 325V271Q223
266 211 242T199 171V0Q199 -57 174 -80T89 -104H40Z" />
<glyph unicode="~" glyph-name="asciitilde" horiz-adv-x="572" d="M406 229Q376 229 346 239T287 264T228 289T168 300Q130 300 102 286T50 240V323Q67 346 99 360T168 375Q204 375 234 365T292 340T347 315T406 304Q444 304 471 318T522 364V281Q505 257 475
243T406 229Z" />
<glyph unicode="&#xa0;" glyph-name="uni00A0" horiz-adv-x="230" />
<glyph unicode="&#xa1;" glyph-name="exclamdown" horiz-adv-x="190" d="M50 409V474H140V409H50ZM54 -170V-13L60 320H130L136 -13V-170H54Z" />
<glyph unicode="&#xa2;" glyph-name="cent" horiz-adv-x="490" d="M264 -86V-9Q155 -1 103 62T50 237Q50 351 107 411T264 482V560H326V483Q362 482 388 475T439 457V392Q388 417 326 418V56Q386 58 440 82V16Q392 -4 326 -9V-86H264ZM264 59V414Q200 404 166
362T132 237Q132 155 163 112T264 59Z" />
<glyph unicode="&#xa3;" glyph-name="sterling" horiz-adv-x="503" d="M50 0V65H76Q107 65 121 84T135 136V309H65V374H135V497Q135 572 183 613T305 654Q375 654 416 635V572Q402 580 377 584T329 588Q274 588 246 567T217 493V374H415L412 309H217V140Q217 115
212 96T190 65H453V0H50Z" />
<glyph unicode="&#xa4;" glyph-name="currency" horiz-adv-x="573" d="M88 60L50 107L133 169Q101 212 101 269Q101 327 133 368L51 431L88 477L172 411Q195 431 224 442T286 453Q319 453 348 442T401 411L486 477L523 431L440 368Q455 348 464 323T473 269Q473
241 464 216T440 168L523 106L486 60L401 125Q379 106 350 95T287 84Q254 84 225 95T172 125L88 60ZM286 144Q321 144 349 161T393 206T410 269Q410 304 393 332T348 377T286 394Q252 394 224 377T180 332T164 269Q164 235 180 207T224 161T286 144Z" />
<glyph unicode="&#xa5;" glyph-name="yen" horiz-adv-x="642" d="M280 0V96H123V153H280V205H123V262H267L50 644H135L321 310L507 644H592L374 262H519V205H362V153H519V96H362V0H280Z" />
<glyph unicode="&#xa6;" glyph-name="brokenbar" horiz-adv-x="182" d="M50 424V735H132V424H50ZM50 -120V190H132V-120H50Z" />
<glyph unicode="&#xa7;" glyph-name="section" horiz-adv-x="556" d="M259 -10Q139 -10 65 20V93Q107 77 154 69T252 60Q335 60 379 83T424 168Q424 206 404 228T344 265T240 295Q170 314 129 335T69 385T50 456Q50 493 68 521Q60 535 55 552T50 591Q50 673 109
719T289 765Q345 765 393 757T467 740V668Q431 681 389 688T302 695Q220 695 176 671T132 588Q132 555 147 534T200 498T303 467Q384 448 428 427T489 378T506 310Q506 294 501 273T489 237Q506 206 506 166Q506 81 442 36T259 -10ZM430 284Q435 299 435 311Q435
337 421 353T370 382T269 411Q218 425 185 437T132 469Q130 464 129 459T127 446Q127 422 140 407T187 381T279 354Q333 341 372 323T430 284Z" />
<glyph unicode="&#xa8;" glyph-name="dieresis" horiz-adv-x="354" d="M226 561V636H304V561H226ZM50 561V636H128V561H50Z" />
<glyph unicode="&#xa9;" glyph-name="copyright" horiz-adv-x="764" d="M382 -10Q313 -10 253 16T148 87T76 193T50 322Q50 391 76 451T147 556T253 628T382 654Q451 654 511 628T616 557T688 451T714 322Q714 253 688 193T617 88T511 16T382 -10ZM382 50Q460
50 521 85T617 181T652 322Q652 401 617 462T521 558T382 593Q305 593 244 558T148 462T113 322Q113 243 148 182T244 85T382 50ZM381 91Q276 91 217 152T157 321Q157 398 188 449T272 525T388 551Q431 551 463 543T517 520V466Q490 480 461 486T401 493Q321 493
272 454T223 321Q223 227 265 188T396 148Q426 148 459 156T517 177V121Q462 91 381 91Z" />
<glyph unicode="&#xaa;" glyph-name="ordfeminine" horiz-adv-x="347" d="M145 380Q106 380 78 398T50 458Q50 544 155 544H242V556Q242 585 228 597T167 609Q124 609 84 595V639Q102 646 127 650T179 654Q234 654 265 631T297 557V386H248L244 415Q225 397 202
389T145 380ZM160 421Q212 421 242 459V504H163Q130 504 117 495T103 460Q103 438 118 430T160 421Z" />
<glyph unicode="&#xab;" glyph-name="guillemotleft" horiz-adv-x="602" d="M519 80L265 267V306L519 493L552 445L339 286L552 128L519 80ZM304 80L50 267V306L304 493L337 445L124 286L337 128L304 80Z" />
<glyph unicode="&#xac;" glyph-name="logicalnot" horiz-adv-x="531" d="M414 147V303H50V368H481V147H414Z" />
<glyph unicode="&#xad;" glyph-name="uni00AD" horiz-adv-x="477" d="M50 236V301H427V236H50Z" />
<glyph unicode="&#xae;" glyph-name="registered" horiz-adv-x="764" d="M382 -10Q313 -10 253 16T148 87T76 193T50 322Q50 391 76 451T147 556T253 628T382 654Q451 654 511 628T616 557T688 451T714 322Q714 253 688 193T617 88T511 16T382 -10ZM382 50Q460
50 521 85T617 181T652 322Q652 401 617 462T521 558T382 593Q305 593 244 558T148 462T113 322Q113 243 148 182T244 85T382 50ZM228 112V538H416Q484 538 520 503T556 409Q556 362 530 330T456 287Q470 279 477 268T492 240L546 112H485L430 241Q421 262 409
267T360 273H290V112H228ZM290 325H388Q439 325 467 340T495 409Q495 456 475 471T408 486H290V325Z" />
<glyph unicode="&#xaf;" glyph-name="overscore" horiz-adv-x="388" d="M50 565V624H338V565H50Z" />
<glyph unicode="&#xb0;" glyph-name="degree" horiz-adv-x="319" d="M159 504Q115 504 83 534T50 612Q50 659 82 689T159 720Q205 720 237 690T269 612Q269 565 237 535T159 504ZM159 557Q183 557 199 572T215 612Q215 635 199 651T159 667Q136 667 121 651T105
612Q105 588 120 573T159 557Z" />
<glyph unicode="&#xb1;" glyph-name="plusminus" horiz-adv-x="477" d="M205 108V256H50V321H205V475H272V321H427V256H272V108H205ZM50 0V65H427V0H50Z" />
<glyph unicode="&#xb2;" glyph-name="uni00B2" horiz-adv-x="300" d="M50 370V402Q64 426 84 445T129 485Q164 514 176 531T189 569Q189 590 176 598T131 607Q114 607 95 603T59 593V640Q73 645 97 649T147 654Q196 654 222 629T248 569Q248 539 235 521T191 474Q173
457 159 446T130 417H250V370H50Z" />
<glyph unicode="&#xb3;" glyph-name="uni00B3" horiz-adv-x="303" d="M133 362Q111 362 87 365T50 374V419Q83 406 121 406Q160 406 176 415T192 448Q192 489 127 489H90L93 530H124Q156 530 171 540T186 573Q186 593 171 601T122 609Q105 609 88 606T55 597V642Q68
647 90 650T135 654Q197 654 222 633T247 576Q247 554 237 536T202 509Q230 503 241 486T253 446Q253 362 133 362Z" />
<glyph unicode="&#xb4;" glyph-name="acute" horiz-adv-x="245" d="M50 522L121 690H195L116 522H50Z" />
<glyph unicode="&#xb5;" glyph-name="uni00B5" horiz-adv-x="575" d="M70 -143V474H152V171Q152 112 181 84T273 56Q317 56 356 72T423 116V474H505V0H431L426 54Q392 26 345 8T242 -10Q215 -10 192 -4T152 12V-143H70Z" />
<glyph unicode="&#xb6;" glyph-name="paragraph" horiz-adv-x="628" d="M314 -77V253Q240 253 180 273T85 341T50 477Q50 562 83 613T176 687T313 710H578V-77H496V646H396V-77H314Z" />
<glyph unicode="&#xb7;" glyph-name="middot" horiz-adv-x="174" d="M50 250V319H124V250H50Z" />
<glyph unicode="&#xb8;" glyph-name="cedilla" horiz-adv-x="313" d="M120 -240Q104 -240 83 -238T50 -232V-182Q79 -190 113 -190Q160 -190 181 -179T203 -137Q203 -108 182 -100T118 -91H81L110 0H168L152 -48Q207 -48 235 -71T263 -138Q263 -187 229 -213T120 -240Z" />
<glyph unicode="&#xb9;" glyph-name="uni00B9" horiz-adv-x="212" d="M124 370V598L50 582V628L182 654V370H124Z" />
<glyph unicode="&#xba;" glyph-name="ordmasculine" horiz-adv-x="365" d="M182 380Q50 380 50 517Q50 584 83 619T182 654Q249 654 282 619T315 517Q315 380 182 380ZM182 424Q225 424 242 447T259 517Q259 562 242 585T182 609Q140 609 123 586T105 517Q105
471 122 448T182 424Z" />
<glyph unicode="&#xbb;" glyph-name="guillemotright" horiz-adv-x="602" d="M298 80L265 128L478 286L265 445L298 493L552 306V267L298 80ZM83 80L50 128L263 286L50 445L83 493L337 306V267L83 80Z" />
<glyph unicode="&#xbc;" glyph-name="onequarter" horiz-adv-x="632" d="M124 370V598L50 582V628L182 654V370H124ZM100 0L442 644H519L177 0H100ZM494 0V58H344V101L487 284H551V101H582V58H551V0H494ZM400 102H505V238L400 102Z" />
<glyph unicode="&#xbd;" glyph-name="onehalf" horiz-adv-x="630" d="M124 370V598L50 582V628L182 654V370H124ZM100 0L442 644H519L177 0H100ZM380 0V32Q394 56 414 75T459 115Q494 144 506 161T519 199Q519 220 506 228T461 237Q444 237 425 233T389 223V270Q403
275 427 279T477 284Q526 284 552 259T578 199Q578 169 565 151T521 104Q503 87 489 76T460 47H580V0H380Z" />
<glyph unicode="&#xbe;" glyph-name="threequarters" horiz-adv-x="641" d="M133 362Q111 362 87 365T50 374V417Q83 404 121 404Q160 404 176 414T192 448Q192 490 127 490H90L93 529H124Q186 529 186 573Q186 611 122 611Q105 611 88 608T55 599V642Q68 647
90 650T135 654Q197 654 222 633T247 576Q247 554 237 536T202 509Q230 503 241 486T253 446Q253 362 133 362ZM109 0L451 644H528L186 0H109ZM503 0V58H353V101L496 284H560V101H591V58H560V0H503ZM409 102H514V238L409 102Z" />
<glyph unicode="&#xbf;" glyph-name="questiondown" horiz-adv-x="493" d="M241 409V474H331V409H241ZM264 -180Q158 -180 104 -133T50 -1Q50 54 77 89T150 161Q179 186 200 204T233 244T245 300V319H327V296Q327 251 307 220T258 163T200 114Q172 90 152 64T132
0Q132 -58 165 -84T283 -110Q327 -110 369 -100T443 -74V-144Q412 -160 365 -170T264 -180Z" />
<glyph unicode="&#xc0;" glyph-name="Agrave" horiz-adv-x="685" d="M296 688L217 856H291L362 688H296ZM50 0L295 644H391L635 0H551L483 177H203L135 0H50ZM217 242H468L342 573L217 242Z" />
<glyph unicode="&#xc1;" glyph-name="Aacute" horiz-adv-x="685" d="M292 688L363 856H437L358 688H292ZM50 0L295 644H391L635 0H551L483 177H203L135 0H50ZM217 242H468L342 573L217 242Z" />
<glyph unicode="&#xc2;" glyph-name="Acircumflex" horiz-adv-x="685" d="M194 688L309 836H375L490 688H419L342 790L265 688H194ZM50 0L295 644H391L635 0H551L483 177H203L135 0H50ZM217 242H468L342 573L217 242Z" />
<glyph unicode="&#xc3;" glyph-name="Atilde" horiz-adv-x="685" d="M417 703Q391 703 366 712T318 731T273 741Q249 741 228 734T190 706V769Q202 783 226 791T273 799Q301 799 324 790T370 771T417 761Q468 761 494 797V733Q484 720 464 712T417 703ZM50 0L295
644H391L635 0H551L483 177H203L135 0H50ZM217 242H468L342 573L217 242Z" />
<glyph unicode="&#xc4;" glyph-name="Adieresis" horiz-adv-x="685" d="M215 710V785H293V710H215ZM391 710V785H469V710H391ZM50 0L295 644H391L635 0H551L483 177H203L135 0H50ZM217 242H468L342 573L217 242Z" />
<glyph unicode="&#xc5;" glyph-name="Aring" horiz-adv-x="685" d="M50 0L287 622Q261 636 247 660T232 716Q232 761 262 792T341 824Q391 824 421 793T452 716Q452 686 438 662T399 623L635 0H551L483 177H203L135 0H50ZM341 655Q369 655 386 673T403 716Q403
742 386 759T341 777Q315 777 298 760T280 716Q280 691 297 673T341 655ZM217 242H468L342 573L217 242Z" />
<glyph unicode="&#xc6;" glyph-name="AE" horiz-adv-x="840" d="M50 0L295 644H790V579H491V354H754V290H491V64H790V0H409V178H206L138 0H50ZM231 242H409V579H358L231 242Z" />
<glyph unicode="&#xc7;" glyph-name="Ccedilla" horiz-adv-x="595" d="M326 -240Q310 -240 289 -238T256 -232V-182Q285 -190 319 -190Q366 -190 387 -179T409 -137Q409 -108 388 -100T324 -91H287L313 -8Q181 5 116 90T50 308Q50 413 82 491T182 611T358 654Q414
654 459 646T545 624V552Q505 567 460 575T365 584Q278 584 227 551T154 456T132 308Q132 189 188 125T367 60Q412 60 458 67T545 89V16Q508 5 465 -2T371 -10L358 -48Q413 -48 441 -71T469 -138Q469 -187 435 -213T326 -240Z" />
<glyph unicode="&#xc8;" glyph-name="Egrave" horiz-adv-x="555" d="M257 688L178 856H252L323 688H257ZM70 0V644H505V579H152V354H469V290H152V64H505V0H70Z" />
<glyph unicode="&#xc9;" glyph-name="Eacute" horiz-adv-x="555" d="M239 688L310 856H384L305 688H239ZM70 0V644H505V579H152V354H469V290H152V64H505V0H70Z" />
<glyph unicode="&#xca;" glyph-name="Ecircumflex" horiz-adv-x="555" d="M126 688L241 836H307L422 688H351L274 790L197 688H126ZM70 0V644H505V579H152V354H469V290H152V64H505V0H70Z" />
<glyph unicode="&#xcb;" glyph-name="Edieresis" horiz-adv-x="555" d="M153 711V786H231V711H153ZM329 711V786H407V711H329ZM70 0V644H505V579H152V354H469V290H152V64H505V0H70Z" />
<glyph unicode="&#xcc;" glyph-name="Igrave" horiz-adv-x="222" d="M80 688L1 856H75L146 688H80ZM70 0V644H152V0H70Z" />
<glyph unicode="&#xcd;" glyph-name="Iacute" horiz-adv-x="222" d="M70 688L141 856H215L136 688H70ZM70 0V644H152V0H70Z" />
<glyph unicode="&#xce;" glyph-name="Icircumflex" horiz-adv-x="222" d="M-37 688L78 836H144L259 688H188L111 790L34 688H-37ZM70 0V644H152V0H70Z" />
<glyph unicode="&#xcf;" glyph-name="Idieresis" horiz-adv-x="222" d="M-16 713V788H62V713H-16ZM160 713V788H238V713H160ZM70 0V644H152V0H70Z" />
<glyph unicode="&#xd0;" glyph-name="Eth" horiz-adv-x="664" d="M92 0V284H20V349H92V644H344Q484 644 549 568T614 318Q614 153 551 77T344 0H92ZM174 64H329Q397 64 442 84T509 160T532 318Q532 420 512 477T447 556T329 579H174V349H355V284H174V64Z" />
<glyph unicode="&#xd1;" glyph-name="Ntilde" horiz-adv-x="663" d="M404 708Q378 708 353 717T305 736T260 746Q236 746 215 739T177 711V774Q189 788 213 796T260 804Q288 804 311 795T357 776T404 766Q455 766 481 802V738Q471 725 451 717T404 708ZM70 0V644H144L511
126V644H593V0H518L152 517V0H70Z" />
<glyph unicode="&#xd2;" glyph-name="Ograve" horiz-adv-x="694" d="M320 688L241 856H315L386 688H320ZM347 -10Q196 -10 123 69T50 322Q50 495 123 574T347 654Q499 654 571 575T644 322Q644 149 572 70T347 -10ZM347 60Q420 60 467 85T538 167T562 322Q562
419 539 476T468 559T347 584Q274 584 227 559T156 477T132 322Q132 225 155 168T226 85T347 60Z" />
<glyph unicode="&#xd3;" glyph-name="Oacute" horiz-adv-x="694" d="M312 688L383 856H457L378 688H312ZM347 -10Q196 -10 123 69T50 322Q50 495 123 574T347 654Q499 654 571 575T644 322Q644 149 572 70T347 -10ZM347 60Q420 60 467 85T538 167T562 322Q562
419 539 476T468 559T347 584Q274 584 227 559T156 477T132 322Q132 225 155 168T226 85T347 60Z" />
<glyph unicode="&#xd4;" glyph-name="Ocircumflex" horiz-adv-x="694" d="M199 688L314 836H380L495 688H424L347 790L270 688H199ZM347 -10Q196 -10 123 69T50 322Q50 495 123 574T347 654Q499 654 571 575T644 322Q644 149 572 70T347 -10ZM347 60Q420 60 467
85T538 167T562 322Q562 419 539 476T468 559T347 584Q274 584 227 559T156 477T132 322Q132 225 155 168T226 85T347 60Z" />
<glyph unicode="&#xd5;" glyph-name="Otilde" horiz-adv-x="694" d="M422 713Q396 713 371 722T323 741T278 751Q254 751 233 744T195 716V779Q207 793 231 801T278 809Q306 809 329 800T375 781T422 771Q473 771 499 807V743Q489 730 469 722T422 713ZM347 -10Q196
-10 123 69T50 322Q50 495 123 574T347 654Q499 654 571 575T644 322Q644 149 572 70T347 -10ZM347 60Q420 60 467 85T538 167T562 322Q562 419 539 476T468 559T347 584Q274 584 227 559T156 477T132 322Q132 225 155 168T226 85T347 60Z" />
<glyph unicode="&#xd6;" glyph-name="Odieresis" horiz-adv-x="694" d="M220 711V786H298V711H220ZM396 711V786H474V711H396ZM347 -10Q196 -10 123 69T50 322Q50 495 123 574T347 654Q499 654 571 575T644 322Q644 149 572 70T347 -10ZM347 60Q420 60 467 85T538
167T562 322Q562 419 539 476T468 559T347 584Q274 584 227 559T156 477T132 322Q132 225 155 168T226 85T347 60Z" />
<glyph unicode="&#xd7;" glyph-name="multiply" horiz-adv-x="410" d="M319 103L207 216L98 108L55 151L163 260L50 371L93 414L204 301L317 413L360 370L248 257L360 145L319 103Z" />
<glyph unicode="&#xd8;" glyph-name="Oslash" horiz-adv-x="694" d="M169 -53L195 17Q50 82 50 322Q50 495 123 574T347 654Q368 654 388 652T426 647L443 693H515L491 629Q568 598 606 523T644 322Q644 149 572 70T347 -10Q323 -10 301 -8T259 -2L241 -53H169ZM221
88L401 580Q388 582 375 583T347 584Q274 584 227 559T156 477T132 322Q132 228 154 171T221 88ZM347 60Q420 60 467 85T538 167T562 322Q562 420 538 477T466 560L284 65Q298 63 314 62T347 60Z" />
<glyph unicode="&#xd9;" glyph-name="Ugrave" horiz-adv-x="671" d="M319 688L240 856H314L385 688H319ZM336 -10Q204 -10 135 53T65 236V644H147V235Q147 147 196 104T336 60Q425 60 474 103T524 235V644H606V236Q606 116 537 53T336 -10Z" />
<glyph unicode="&#xda;" glyph-name="Uacute" horiz-adv-x="671" d="M295 688L366 856H440L361 688H295ZM336 -10Q204 -10 135 53T65 236V644H147V235Q147 147 196 104T336 60Q425 60 474 103T524 235V644H606V236Q606 116 537 53T336 -10Z" />
<glyph unicode="&#xdb;" glyph-name="Ucircumflex" horiz-adv-x="671" d="M187 688L302 836H368L483 688H412L335 790L258 688H187ZM336 -10Q204 -10 135 53T65 236V644H147V235Q147 147 196 104T336 60Q425 60 474 103T524 235V644H606V236Q606 116 537 53T336 -10Z" />
<glyph unicode="&#xdc;" glyph-name="Udieresis" horiz-adv-x="671" d="M196 711V786H274V711H196ZM372 711V786H450V711H372ZM336 -10Q204 -10 135 53T65 236V644H147V235Q147 147 196 104T336 60Q425 60 474 103T524 235V644H606V236Q606 116 537 53T336 -10Z" />
<glyph unicode="&#xdd;" glyph-name="Yacute" horiz-adv-x="642" d="M276 688L347 856H421L342 688H276ZM280 0V240L50 644H135L321 310L507 644H592L362 240V0H280Z" />
<glyph unicode="&#xde;" glyph-name="Thorn" horiz-adv-x="582" d="M70 0V644H152V526H342Q450 526 501 469T552 320Q552 226 495 171T338 115H152V0H70ZM152 179H325Q397 179 433 217T470 320Q470 388 436 424T330 461H152V179Z" />
<glyph unicode="&#xdf;" glyph-name="germandbls" horiz-adv-x="627" d="M376 -10Q291 -10 232 12V82Q260 70 293 65T363 60Q425 60 460 94T495 192Q495 253 464 287T356 321H274V383H358Q421 383 447 418T474 505Q474 543 460 571T410 614T310 630Q147 630 147
465V0H65V468Q65 538 95 590T180 671T310 700Q392 700 445 674T525 603T551 505Q551 450 528 410T467 353Q517 338 547 296T577 188Q577 94 526 42T376 -10Z" />
<glyph unicode="&#xe0;" glyph-name="agrave" horiz-adv-x="541" d="M261 522L182 690H256L327 522H261ZM217 -10Q172 -10 134 6T73 53T50 133Q50 198 93 239T233 281H398V310Q398 349 388 372T348 405T263 415Q220 415 180 408T105 389V457Q137 469 180 476T274
484Q375 484 425 443T476 310V0H407L401 54Q370 22 326 6T217 -10ZM238 57Q290 57 330 75T398 126V218H235Q179 218 155 197T131 133Q131 90 160 74T238 57Z" />
<glyph unicode="&#xe1;" glyph-name="aacute" horiz-adv-x="541" d="M244 522L315 690H389L310 522H244ZM217 -10Q172 -10 134 6T73 53T50 133Q50 198 93 239T233 281H398V310Q398 349 388 372T348 405T263 415Q220 415 180 408T105 389V457Q137 469 180 476T274
484Q375 484 425 443T476 310V0H407L401 54Q370 22 326 6T217 -10ZM238 57Q290 57 330 75T398 126V218H235Q179 218 155 197T131 133Q131 90 160 74T238 57Z" />
<glyph unicode="&#xe2;" glyph-name="acircumflex" horiz-adv-x="541" d="M134 522L249 670H315L430 522H359L282 624L205 522H134ZM217 -10Q172 -10 134 6T73 53T50 133Q50 198 93 239T233 281H398V310Q398 349 388 372T348 405T263 415Q220 415 180 408T105
389V457Q137 469 180 476T274 484Q375 484 425 443T476 310V0H407L401 54Q370 22 326 6T217 -10ZM238 57Q290 57 330 75T398 126V218H235Q179 218 155 197T131 133Q131 90 160 74T238 57Z" />
<glyph unicode="&#xe3;" glyph-name="atilde" horiz-adv-x="541" d="M355 542Q329 542 304 551T256 570T211 580Q187 580 166 573T128 545V608Q140 622 164 630T211 638Q239 638 262 629T308 610T355 600Q406 600 432 636V572Q422 559 402 551T355 542ZM217 -10Q172
-10 134 6T73 53T50 133Q50 198 93 239T233 281H398V310Q398 349 388 372T348 405T263 415Q220 415 180 408T105 389V457Q137 469 180 476T274 484Q375 484 425 443T476 310V0H407L401 54Q370 22 326 6T217 -10ZM238 57Q290 57 330 75T398 126V218H235Q179 218
155 197T131 133Q131 90 160 74T238 57Z" />
<glyph unicode="&#xe4;" glyph-name="adieresis" horiz-adv-x="541" d="M160 545V620H238V545H160ZM336 545V620H414V545H336ZM217 -10Q172 -10 134 6T73 53T50 133Q50 198 93 239T233 281H398V310Q398 349 388 372T348 405T263 415Q220 415 180 408T105 389V457Q137
469 180 476T274 484Q375 484 425 443T476 310V0H407L401 54Q370 22 326 6T217 -10ZM238 57Q290 57 330 75T398 126V218H235Q179 218 155 197T131 133Q131 90 160 74T238 57Z" />
<glyph unicode="&#xe5;" glyph-name="aring" horiz-adv-x="541" d="M283 522Q235 522 205 553T174 629Q174 674 204 705T283 737Q333 737 363 706T394 629Q394 584 364 553T283 522ZM283 568Q311 568 328 586T345 629Q345 655 328 672T283 690Q257 690 240 673T222
629Q222 604 239 586T283 568ZM217 -10Q172 -10 134 6T73 53T50 133Q50 198 93 239T233 281H398V310Q398 349 388 372T348 405T263 415Q220 415 180 408T105 389V457Q137 469 180 476T274 484Q375 484 425 443T476 310V0H407L401 54Q370 22 326 6T217 -10ZM238
57Q290 57 330 75T398 126V218H235Q179 218 155 197T131 133Q131 90 160 74T238 57Z" />
<glyph unicode="&#xe6;" glyph-name="ae" horiz-adv-x="881" d="M217 -10Q172 -10 134 6T73 53T50 133Q50 198 93 239T233 281H398V310Q398 349 388 372T348 405T263 415Q220 415 180 408T105 389V457Q137 469 180 476T274 484Q402 484 449 411Q477 444 520 464T625
484Q695 484 740 459T808 389T831 288V199H480Q484 145 503 114T562 70T667 56Q740 56 801 81V17Q770 4 732 -3T651 -10Q575 -10 525 12T443 80Q424 58 396 38T325 4T217 -10ZM480 258H758V297Q758 355 728 386T627 418Q542 418 511 378T480 258ZM238 57Q296 57
333 75T398 126V218H235Q179 218 155 197T131 133Q131 90 160 74T238 57Z" />
<glyph unicode="&#xe7;" glyph-name="ccedilla" horiz-adv-x="490" d="M267 -240Q251 -240 230 -238T197 -232V-182Q226 -190 260 -190Q307 -190 328 -179T350 -137Q350 -108 329 -100T265 -91H228L254 -8Q151 2 101 65T50 237Q50 362 118 423T301 484Q348 484
379 478T439 457V392Q385 418 316 418Q228 418 180 377T132 237Q132 143 174 100T313 56Q382 56 440 82V16Q412 5 381 -1T312 -10L299 -48Q354 -48 382 -71T410 -138Q410 -187 376 -213T267 -240Z" />
<glyph unicode="&#xe8;" glyph-name="egrave" horiz-adv-x="533" d="M234 522L155 690H229L300 522H234ZM303 -10Q176 -10 113 51T50 239Q50 353 104 418T277 484Q347 484 392 459T460 389T483 288V199H132Q136 145 155 114T214 70T319 56Q392 56 453 81V17Q422
4 384 -3T303 -10ZM132 258H410V297Q410 355 380 386T279 418Q194 418 163 378T132 258Z" />
<glyph unicode="&#xe9;" glyph-name="eacute" horiz-adv-x="533" d="M227 522L298 690H372L293 522H227ZM303 -10Q176 -10 113 51T50 239Q50 353 104 418T277 484Q347 484 392 459T460 389T483 288V199H132Q136 145 155 114T214 70T319 56Q392 56 453 81V17Q422
4 384 -3T303 -10ZM132 258H410V297Q410 355 380 386T279 418Q194 418 163 378T132 258Z" />
<glyph unicode="&#xea;" glyph-name="ecircumflex" horiz-adv-x="533" d="M118 522L233 670H299L414 522H343L266 624L189 522H118ZM303 -10Q176 -10 113 51T50 239Q50 353 104 418T277 484Q347 484 392 459T460 389T483 288V199H132Q136 145 155 114T214 70T319
56Q392 56 453 81V17Q422 4 384 -3T303 -10ZM132 258H410V297Q410 355 380 386T279 418Q194 418 163 378T132 258Z" />
<glyph unicode="&#xeb;" glyph-name="edieresis" horiz-adv-x="533" d="M137 545V620H215V545H137ZM313 545V620H391V545H313ZM303 -10Q176 -10 113 51T50 239Q50 353 104 418T277 484Q347 484 392 459T460 389T483 288V199H132Q136 145 155 114T214 70T319 56Q392
56 453 81V17Q422 4 384 -3T303 -10ZM132 258H410V297Q410 355 380 386T279 418Q194 418 163 378T132 258Z" />
<glyph unicode="&#xec;" glyph-name="igrave" horiz-adv-x="295" d="M155 522L76 690H150L221 522H155ZM143 0V409H70L78 474H225V0H143Z" />
<glyph unicode="&#xed;" glyph-name="iacute" horiz-adv-x="295" d="M140 522L211 690H285L206 522H140ZM143 0V409H70L78 474H225V0H143Z" />
<glyph unicode="&#xee;" glyph-name="icircumflex" horiz-adv-x="295" d="M18 522L133 670H199L314 522H243L166 624L89 522H18ZM143 0V409H70L78 474H225V0H143Z" />
<glyph unicode="&#xef;" glyph-name="idieresis" horiz-adv-x="295" d="M27 545V620H105V545H27ZM203 545V620H281V545H203ZM143 0V409H70L78 474H225V0H143Z" />
<glyph unicode="&#xf0;" glyph-name="eth" horiz-adv-x="573" d="M284 -10Q166 -10 108 46T50 196Q50 297 107 350T271 404Q310 404 356 391T441 348V394Q441 435 436 467T417 525L283 467V519L386 564Q348 593 280 593Q237 593 202 587T138 570V632Q168 642 206
648T290 654Q398 654 455 594L548 635V582L484 554Q502 523 510 482T519 390V235Q519 107 460 49T284 -10ZM284 52Q363 52 402 90T441 209V289Q408 313 367 328T285 344Q197 344 161 304T124 196Q124 128 164 90T284 52Z" />
<glyph unicode="&#xf1;" glyph-name="ntilde" horiz-adv-x="570" d="M360 542Q334 542 309 551T261 570T216 580Q192 580 171 573T133 545V608Q145 622 169 630T216 638Q244 638 267 629T313 610T360 600Q411 600 437 636V572Q427 559 407 551T360 542ZM70 0V474H144L149
420Q183 448 228 466T333 484Q423 484 464 442T505 310V0H423V307Q423 369 398 393T302 418Q258 418 219 402T152 358V0H70Z" />
<glyph unicode="&#xf2;" glyph-name="ograve" horiz-adv-x="574" d="M260 522L181 690H255L326 522H260ZM287 -10Q163 -10 107 53T50 237Q50 356 107 420T287 484Q410 484 467 420T524 237Q524 117 468 54T287 -10ZM287 60Q372 60 407 102T442 237Q442 329 407
371T287 414Q203 414 168 372T132 237Q132 145 167 103T287 60Z" />
<glyph unicode="&#xf3;" glyph-name="oacute" horiz-adv-x="574" d="M253 522L324 690H398L319 522H253ZM287 -10Q163 -10 107 53T50 237Q50 356 107 420T287 484Q410 484 467 420T524 237Q524 117 468 54T287 -10ZM287 60Q372 60 407 102T442 237Q442 329 407
371T287 414Q203 414 168 372T132 237Q132 145 167 103T287 60Z" />
<glyph unicode="&#xf4;" glyph-name="ocircumflex" horiz-adv-x="574" d="M139 522L254 670H320L435 522H364L287 624L210 522H139ZM287 -10Q163 -10 107 53T50 237Q50 356 107 420T287 484Q410 484 467 420T524 237Q524 117 468 54T287 -10ZM287 60Q372 60 407
102T442 237Q442 329 407 371T287 414Q203 414 168 372T132 237Q132 145 167 103T287 60Z" />
<glyph unicode="&#xf5;" glyph-name="otilde" horiz-adv-x="574" d="M362 547Q336 547 311 556T263 575T218 585Q194 585 173 578T135 550V613Q147 627 171 635T218 643Q246 643 269 634T315 615T362 605Q413 605 439 641V577Q429 564 409 556T362 547ZM287 -10Q163
-10 107 53T50 237Q50 356 107 420T287 484Q410 484 467 420T524 237Q524 117 468 54T287 -10ZM287 60Q372 60 407 102T442 237Q442 329 407 371T287 414Q203 414 168 372T132 237Q132 145 167 103T287 60Z" />
<glyph unicode="&#xf6;" glyph-name="odieresis" horiz-adv-x="574" d="M160 545V620H238V545H160ZM336 545V620H414V545H336ZM287 -10Q163 -10 107 53T50 237Q50 356 107 420T287 484Q410 484 467 420T524 237Q524 117 468 54T287 -10ZM287 60Q372 60 407 102T442
237Q442 329 407 371T287 414Q203 414 168 372T132 237Q132 145 167 103T287 60Z" />
<glyph unicode="&#xf7;" glyph-name="divide" horiz-adv-x="476" d="M202 398V465H273V398H202ZM50 236V301H426V236H50ZM202 78V145H273V78H202Z" />
<glyph unicode="&#xf8;" glyph-name="oslash" horiz-adv-x="574" d="M146 -54L169 10Q108 36 79 93T50 237Q50 356 107 420T287 484Q301 484 314 483T341 480L359 528H431L407 462Q467 436 495 379T524 237Q524 117 468 54T287 -10Q259 -10 235 -7L218 -54H146ZM195
79L317 412Q310 413 303 413T287 414Q203 414 168 372T132 237Q132 176 146 138T195 79ZM287 60Q372 60 407 102T442 237Q442 296 428 334T381 392L260 61Q267 60 273 60T287 60Z" />
<glyph unicode="&#xf9;" glyph-name="ugrave" horiz-adv-x="570" d="M258 522L179 690H253L324 522H258ZM237 -10Q152 -10 109 37T65 174V474H147V171Q147 112 176 84T268 56Q312 56 351 72T418 116V474H500V0H426L421 54Q387 26 340 8T237 -10Z" />
<glyph unicode="&#xfa;" glyph-name="uacute" horiz-adv-x="570" d="M235 522L306 690H380L301 522H235ZM237 -10Q152 -10 109 37T65 174V474H147V171Q147 112 176 84T268 56Q312 56 351 72T418 116V474H500V0H426L421 54Q387 26 340 8T237 -10Z" />
<glyph unicode="&#xfb;" glyph-name="ucircumflex" horiz-adv-x="570" d="M133 522L248 670H314L429 522H358L281 624L204 522H133ZM237 -10Q152 -10 109 37T65 174V474H147V171Q147 112 176 84T268 56Q312 56 351 72T418 116V474H500V0H426L421 54Q387 26 340
8T237 -10Z" />
<glyph unicode="&#xfc;" glyph-name="udieresis" horiz-adv-x="570" d="M152 542V617H230V542H152ZM328 542V617H406V542H328ZM237 -10Q152 -10 109 37T65 174V474H147V171Q147 112 176 84T268 56Q312 56 351 72T418 116V474H500V0H426L421 54Q387 26 340 8T237 -10Z" />
<glyph unicode="&#xfd;" glyph-name="yacute" horiz-adv-x="584" d="M258 522L329 690H403L324 522H258ZM159 -176Q112 -176 77 -163V-97Q94 -103 108 -105T138 -107Q172 -107 191 -95T226 -59T259 5L50 474H135L300 92L470 474H554L355 21Q330 -36 304 -80T244
-150T159 -176Z" />
<glyph unicode="&#xfe;" glyph-name="thorn" horiz-adv-x="575" d="M70 -216V700H153V439Q218 484 311 484Q411 484 468 425T525 236Q525 108 468 49T310 -10Q217 -10 152 35V-216H70ZM288 56Q368 56 405 97T443 236Q443 329 408 373T290 418Q249 418 214 404T152
361V103Q177 81 211 69T288 56Z" />
<glyph unicode="&#xff;" glyph-name="ydieresis" horiz-adv-x="584" d="M178 552V627H256V552H178ZM354 552V627H432V552H354ZM159 -176Q112 -176 77 -163V-97Q94 -103 108 -105T138 -107Q172 -107 191 -95T226 -59T259 5L50 474H135L300 92L470 474H554L355 21Q330
-36 304 -80T244 -150T159 -176Z" />
<glyph unicode="&#x2013;" glyph-name="endash" horiz-adv-x="585" d="M50 236V301H535V236H50Z" />
<glyph unicode="&#x2014;" glyph-name="emdash" horiz-adv-x="877" d="M50 236V301H827V236H50Z" />
<glyph unicode="&#x2018;" glyph-name="quoteleft" horiz-adv-x="224" d="M50 471L112 654H174L125 471H50Z" />
<glyph unicode="&#x2019;" glyph-name="quoteright" horiz-adv-x="224" d="M50 471L99 654H174L112 471H50Z" />
<glyph unicode="&#x201a;" glyph-name="quotesinglbase" horiz-adv-x="224" d="M50 -150L99 33H174L112 -150H50Z" />
<glyph unicode="&#x201c;" glyph-name="quotedblleft" horiz-adv-x="355" d="M50 471L112 654H169L120 471H50ZM187 471L249 654H305L256 471H187Z" />
<glyph unicode="&#x201d;" glyph-name="quotedblright" horiz-adv-x="355" d="M50 471L100 654H169L107 471H50ZM187 471L236 654H305L243 471H187Z" />
<glyph unicode="&#x201e;" glyph-name="quotedblbase" horiz-adv-x="355" d="M50 -119L100 64H169L107 -119H50ZM187 -119L236 64H305L243 -119H187Z" />
<glyph unicode="&#x2022;" glyph-name="bullet" horiz-adv-x="339" d="M169 168Q136 168 109 184T66 227T50 287Q50 320 66 347T109 391T169 407Q203 407 230 391T273 348T289 287Q289 237 254 203T169 168Z" />
<glyph unicode="&#x2039;" glyph-name="guilsinglleft" horiz-adv-x="387" d="M304 80L50 267V306L304 493L337 445L124 286L337 128L304 80Z" />
<glyph unicode="&#x203a;" glyph-name="guilsinglright" horiz-adv-x="387" d="M83 80L50 128L263 286L50 445L83 493L337 306V267L83 80Z" />
</font>
</defs>
</svg>
